<svg width="24" height="24" viewBox="0 0 24 24" fill="none" xmlns="http://www.w3.org/2000/svg">
<path d="M20 20.5568C20 21.1629 19.8028 21.6629 19.4085 22.0568C19.0141 22.4508 18.4748 22.7008 17.7907 22.8068C17.7505 22.822 17.7304 22.8447 17.7304 22.875L17.7425 23.6136C17.7425 23.6515 17.7264 23.6818 17.6942 23.7045C17.67 23.7348 17.6378 23.75 17.5976 23.75H16.3903C16.3501 23.75 16.3139 23.7348 16.2817 23.7045C16.2575 23.6818 16.2455 23.6515 16.2455 23.6136L16.2575 22.8636C16.2575 22.8333 16.2374 22.8106 16.1972 22.7955C15.5131 22.6667 14.9738 22.4015 14.5795 22C14.1932 21.5985 14 21.0947 14 20.4886V20.2386C14 20.2008 14.0121 20.1705 14.0362 20.1477C14.0684 20.1174 14.1046 20.1023 14.1449 20.1023H15.4487C15.4889 20.1023 15.5211 20.1174 15.5453 20.1477C15.5775 20.1705 15.5936 20.2008 15.5936 20.2386V20.4091C15.5936 20.7121 15.7344 20.9697 16.0161 21.1818C16.2978 21.3864 16.6841 21.4886 17.1751 21.4886C17.5855 21.4886 17.8873 21.4053 18.0805 21.2386C18.2817 21.0644 18.3823 20.8523 18.3823 20.6023C18.3823 20.4205 18.3219 20.2689 18.2012 20.1477C18.0805 20.0189 17.9115 19.9091 17.6942 19.8182C17.4849 19.7197 17.1509 19.5871 16.6922 19.4205C16.169 19.2462 15.7304 19.0682 15.3763 18.8864C15.0221 18.7045 14.7203 18.4583 14.4708 18.1477C14.2294 17.8295 14.1087 17.4394 14.1087 16.9773C14.1087 16.3939 14.2938 15.9129 14.664 15.5341C15.0423 15.1477 15.5493 14.8977 16.1851 14.7841C16.2254 14.7689 16.2455 14.7462 16.2455 14.7159L16.2213 13.8864C16.2213 13.8485 16.2334 13.8182 16.2575 13.7955C16.2897 13.7652 16.326 13.75 16.3662 13.75H17.5734C17.6137 13.75 17.6459 13.7652 17.67 13.7955C17.7022 13.8182 17.7183 13.8485 17.7183 13.8864L17.7062 14.7386C17.7062 14.7689 17.7264 14.7917 17.7666 14.8068C18.4346 14.9356 18.9658 15.2121 19.3602 15.6364C19.7545 16.053 19.9517 16.5644 19.9517 17.1705V17.3409C19.9517 17.3788 19.9356 17.4129 19.9034 17.4432C19.8793 17.4659 19.8471 17.4773 19.8068 17.4773H18.4909C18.4507 17.4773 18.4145 17.4659 18.3823 17.4432C18.3581 17.4129 18.3461 17.3788 18.3461 17.3409V17.25C18.3461 16.9318 18.2133 16.6629 17.9477 16.4432C17.6821 16.2159 17.3199 16.1023 16.8612 16.1023C16.499 16.1023 16.2173 16.178 16.0161 16.3295C15.8149 16.4811 15.7143 16.6894 15.7143 16.9545C15.7143 17.1439 15.7706 17.303 15.8833 17.4318C16.004 17.5606 16.1811 17.678 16.4145 17.7841C16.6479 17.8902 17.0101 18.0265 17.501 18.1932C18.0402 18.3826 18.4668 18.553 18.7807 18.7045C19.0946 18.8561 19.3763 19.0833 19.6258 19.3864C19.8753 19.6894 20 20.0795 20 20.5568Z" fill="#27292A"/>
<path d="M10.5 19.5H3V4.5H8.3775L10.9425 7.0575L11.3775 7.5H21V13.5H22.5V7.5C22.5 7.10218 22.342 6.72064 22.0607 6.43934C21.7794 6.15804 21.3978 6 21 6H12L9.4425 3.4425C9.30296 3.30212 9.13701 3.19075 8.95423 3.11481C8.77144 3.03886 8.57543 2.99984 8.3775 3H3C2.60218 3 2.22064 3.15804 1.93934 3.43934C1.65804 3.72064 1.5 4.10218 1.5 4.5V19.5C1.5 19.8978 1.65804 20.2794 1.93934 20.5607C2.22064 20.842 2.60218 21 3 21H10.5V19.5Z" fill="#27292A"/>
</svg>
