<svg width="24" height="24" viewBox="0 0 24 24" fill="none" xmlns="http://www.w3.org/2000/svg">
<path d="M10.5 18.5H3V3.5H8.3775L10.9425 6.0575L11.3775 6.5H21L22.5 6.5C22.5 6.10218 22.342 5.72065 22.0607 5.43934C21.7794 5.15804 21.3978 5 21 5H12L9.4425 2.4425C9.30296 2.30212 9.13701 2.19075 8.95423 2.11481C8.77144 2.03886 8.57543 1.99984 8.3775 2H3C2.60218 2 2.22064 2.15804 1.93934 2.43934C1.65804 2.72064 1.5 3.10218 1.5 3.5V18.5C1.5 18.8978 1.65804 19.2794 1.93934 19.5607C2.22064 19.842 2.60218 20 3 20H10.5V18.5Z" fill="#27292A"/>
<path d="M15 10.5H20V12.3H15V10.5ZM15.4167 14.1H17.0833V15.9H15.4167V14.1Z" fill="#27292A"/>
<path d="M19.5833 14.1H17.9167V15.9H19.5833V14.1Z" fill="#27292A"/>
<path d="M19.5833 17.7H17.9167V19.5H19.5833V17.7Z" fill="#27292A"/>
<path d="M17.0833 17.7H15.4167V19.5H17.0833V17.7Z" fill="#27292A"/>
<path d="M22.5 8V22H12.5V8H22.5ZM13.7998 20.7002H21.2002V9.2998H13.7998V20.7002Z" fill="#27292A"/>
</svg>
