<svg width="24" height="24" viewBox="0 0 24 24" fill="none" xmlns="http://www.w3.org/2000/svg">
<path d="M5.988 10.23C5.88074 12.2867 5.06854 14.2437 3.688 15.772C5.44848 16.4217 7.27947 16.8614 9.143 17.082C10.4184 17.233 11.7038 17.2825 12.987 17.23M9.143 17.082C8.89168 17.831 8.94594 18.6489 9.29402 19.3581C9.64209 20.0673 10.2559 20.6106 11.0021 20.87C11.7483 21.1294 12.5668 21.084 13.2797 20.7436C13.9926 20.4032 14.5425 19.7954 14.81 19.052M16.775 16.775L21 21M16.775 16.775C17.9777 16.5322 19.1599 16.1969 20.311 15.772C18.8204 14.1208 17.9967 11.9745 18 9.74997V8.99997C18.001 7.62731 17.5313 6.2958 16.6693 5.22757C15.8073 4.15934 14.605 3.41898 13.2631 3.13001C11.9212 2.84104 10.5208 3.02093 9.29548 3.63966C8.07018 4.25839 7.09407 5.27856 6.53 6.52997M3 2.99997L6.53 6.52997L16.775 16.775" stroke="black" stroke-width="1.5" stroke-linecap="round" stroke-linejoin="round"/>
</svg>
