<svg width="24" height="24" viewBox="0 0 24 24" fill="none" xmlns="http://www.w3.org/2000/svg">
<path d="M16.5 10.5V7.49998C16.5026 7.40141 16.4839 7.30344 16.4451 7.21281C16.4062 7.12218 16.3482 7.04104 16.275 6.97498L11.025 1.72498C10.9593 1.65138 10.8782 1.59309 10.7875 1.55421C10.6968 1.51534 10.5986 1.49682 10.5 1.49998H3C2.60254 1.50117 2.2217 1.65958 1.94065 1.94063C1.6596 2.22168 1.50119 2.60252 1.5 2.99998V21C1.5 21.3978 1.65804 21.7793 1.93934 22.0606C2.22064 22.3419 2.60218 22.5 3 22.5H15V21H3V2.99998H9V7.49998C9.00119 7.89744 9.1596 8.27828 9.44065 8.55933C9.7217 8.84037 10.1025 8.99879 10.5 8.99998H15V10.5H16.5ZM10.5 7.49998V3.29998L14.7 7.49998H10.5Z" fill="#27292A"/>
<path d="M7.19404 19.0808C5.83054 19.0808 4.93164 18.2425 4.93164 16.98V16.3134C4.93164 16.2427 4.98214 16.1922 5.05284 16.1922H6.23454C6.30524 16.1922 6.35574 16.2427 6.35574 16.3134V16.9901C6.35574 17.5052 6.67894 17.8587 7.19404 17.8587C7.68894 17.8587 8.04244 17.5052 8.04244 16.9901V12.0512C8.04244 11.9805 8.09294 11.93 8.16364 11.93H9.34534C9.41604 11.93 9.46654 11.9805 9.46654 12.0512V16.98C9.46654 18.2425 8.54744 19.0808 7.19404 19.0808Z" fill="#27292A"/>
<path d="M13.6444 11.9199C14.8766 11.9199 15.7048 12.7986 15.7048 14.0914C15.7048 15.364 14.8766 16.2023 13.6444 16.2023H12.5536C12.5233 16.2023 12.5031 16.2225 12.5031 16.2528V18.8788C12.5031 18.9495 12.4526 19 12.3819 19H11.2002C11.1295 19 11.079 18.9495 11.079 18.8788V12.0411C11.079 11.9704 11.1295 11.9199 11.2002 11.9199H13.6444ZM13.4121 15.0711C13.9272 15.0711 14.2807 14.7075 14.2807 14.1217C14.2807 13.5157 13.9272 13.1521 13.4121 13.1521H12.5536C12.5233 13.1521 12.5031 13.1723 12.5031 13.2026V15.0206C12.5031 15.0509 12.5233 15.0711 12.5536 15.0711H13.4121Z" fill="#27292A"/>
<path d="M19.2726 19.0808C17.8788 19.0808 16.9597 18.2021 16.9597 16.879V14.0409C16.9597 12.7178 17.8788 11.8492 19.2726 11.8492C20.6563 11.8492 21.5855 12.7279 21.5855 13.95V14.1722C21.5855 14.2429 21.535 14.2934 21.4643 14.2934H20.2826C20.2119 14.2934 20.1614 14.2429 20.1614 14.1722V13.9601C20.1614 13.4551 19.818 13.0713 19.2726 13.0713C18.7373 13.0713 18.3737 13.4551 18.3737 14.0207V16.9093C18.3737 17.4749 18.7575 17.8587 19.3029 17.8587C19.8281 17.8587 20.1715 17.5254 20.1715 16.9901V16.3639C20.1715 16.3336 20.1513 16.3134 20.121 16.3134H19.3332C19.2625 16.3134 19.212 16.2629 19.212 16.1922V15.2731C19.212 15.2024 19.2625 15.1519 19.3332 15.1519H21.4643C21.535 15.1519 21.5855 15.2024 21.5855 15.2731V16.879C21.5855 18.2425 20.6563 19.0808 19.2726 19.0808Z" fill="#27292A"/>
</svg>
