<svg width="24" height="24" viewBox="0 0 24 24" fill="none" xmlns="http://www.w3.org/2000/svg">
<path d="M16.5 10.5V7.49998C16.5026 7.40141 16.4839 7.30344 16.4451 7.21281C16.4062 7.12218 16.3482 7.04104 16.275 6.97498L11.025 1.72498C10.9593 1.65138 10.8782 1.59309 10.7875 1.55421C10.6968 1.51534 10.5986 1.49682 10.5 1.49998H3C2.60254 1.50117 2.2217 1.65958 1.94065 1.94063C1.6596 2.22168 1.50119 2.60252 1.5 2.99998V21C1.5 21.3978 1.65804 21.7793 1.93934 22.0606C2.22064 22.3419 2.60218 22.5 3 22.5H15V21H3V2.99998H9V7.49998C9.00119 7.89744 9.1596 8.27828 9.44065 8.55933C9.7217 8.84037 10.1025 8.99879 10.5 8.99998H15V10.5H16.5ZM10.5 7.49998V3.29998L14.7 7.49998H10.5Z" fill="#27292A"/>
<path d="M8.0278 11.9199C9.26 11.9199 10.0882 12.7986 10.0882 14.0914C10.0882 15.364 9.26 16.2023 8.0278 16.2023H6.937C6.9067 16.2023 6.8865 16.2225 6.8865 16.2528V18.8788C6.8865 18.9495 6.836 19 6.7653 19H5.5836C5.5129 19 5.4624 18.9495 5.4624 18.8788V12.0411C5.4624 11.9704 5.5129 11.9199 5.5836 11.9199H8.0278ZM7.7955 15.0711C8.3106 15.0711 8.6641 14.7075 8.6641 14.1217C8.6641 13.5157 8.3106 13.1521 7.7955 13.1521H6.937C6.9067 13.1521 6.8865 13.1723 6.8865 13.2026V15.0206C6.8865 15.0509 6.9067 15.0711 6.937 15.0711H7.7955Z" fill="#27292A"/>
<path d="M11.5855 19C11.5148 19 11.4643 18.9495 11.4643 18.8788V12.0512C11.4643 11.9805 11.5148 11.93 11.5855 11.93H13.757C15.1306 11.93 16.0396 12.738 16.0396 13.9803V16.9497C16.0396 18.192 15.1306 19 13.757 19H11.5855ZM12.8884 17.7274C12.8884 17.7577 12.9086 17.7779 12.9389 17.7779L13.7671 17.7678C14.262 17.7678 14.5953 17.384 14.6155 16.7881V14.1419C14.6155 13.5359 14.2822 13.1521 13.7671 13.1521H12.9389C12.9086 13.1521 12.8884 13.1723 12.8884 13.2026V17.7274Z" fill="#27292A"/>
<path d="M21.8764 13.0309C21.8764 13.1016 21.8259 13.1521 21.7552 13.1521H19.0585C19.0282 13.1521 19.008 13.1723 19.008 13.2026V14.7782C19.008 14.8085 19.0282 14.8287 19.0585 14.8287H20.7351C20.8058 14.8287 20.8563 14.8792 20.8563 14.9499V15.9296C20.8563 16.0003 20.8058 16.0508 20.7351 16.0508H19.0585C19.0282 16.0508 19.008 16.071 19.008 16.1013V18.8788C19.008 18.9495 18.9575 19 18.8868 19H17.7051C17.6344 19 17.5839 18.9495 17.5839 18.8788V12.0512C17.5839 11.9805 17.6344 11.93 17.7051 11.93H21.7552C21.8259 11.93 21.8764 11.9805 21.8764 12.0512V13.0309Z" fill="#27292A"/>
</svg>
