<svg width="24" height="24" viewBox="0 0 24 24" fill="none" xmlns="http://www.w3.org/2000/svg">
<path d="M16.5 10.5V7.49998C16.5026 7.40141 16.4839 7.30344 16.4451 7.21281C16.4062 7.12218 16.3482 7.04104 16.275 6.97498L11.025 1.72498C10.9593 1.65138 10.8782 1.59309 10.7875 1.55421C10.6968 1.51534 10.5986 1.49682 10.5 1.49998H3C2.60254 1.50117 2.2217 1.65958 1.94065 1.94063C1.6596 2.22168 1.50119 2.60252 1.5 2.99998V21C1.5 21.3978 1.65804 21.7793 1.93934 22.0606C2.22064 22.3419 2.60218 22.5 3 22.5H15V21H3V2.99998H9V7.49998C9.00119 7.89744 9.1596 8.27828 9.44065 8.55933C9.7217 8.84037 10.1025 8.99879 10.5 8.99998H15V10.5H16.5ZM10.5 7.49998V3.29998L14.7 7.49998H10.5Z" fill="#27292A"/>
<path d="M5.31164 19C5.22074 19 5.18034 18.9495 5.22074 18.8586L6.88724 15.4953C6.89734 15.465 6.89734 15.465 6.88724 15.4347L5.22074 12.0714C5.18034 11.9805 5.22074 11.93 5.31164 11.93H6.55394C6.61454 11.93 6.66504 11.9502 6.69534 12.0209L7.69524 14.152C7.71544 14.1924 7.73564 14.1924 7.75584 14.152L8.74564 12.0209C8.77594 11.9502 8.82644 11.93 8.88704 11.93H10.1293C10.2202 11.93 10.2606 11.9805 10.2202 12.0714L8.56384 15.4347C8.55374 15.465 8.55374 15.465 8.56384 15.4953L10.2202 18.8586C10.2606 18.9495 10.2202 19 10.1293 19H8.89714C8.83654 19 8.78604 18.9798 8.75574 18.9091L7.75584 16.7881C7.73564 16.7477 7.71544 16.7477 7.69524 16.7881L6.69534 18.9091C6.66504 18.9798 6.61454 19 6.55394 19H5.31164Z" fill="#27292A"/>
<path d="M11.773 19C11.7023 19 11.6518 18.9495 11.6518 18.8788V12.0512C11.6518 11.9805 11.7023 11.93 11.773 11.93H12.9547C13.0254 11.93 13.0759 11.9805 13.0759 12.0512V17.7274C13.0759 17.7577 13.0961 17.7779 13.1264 17.7779H15.8332C15.9039 17.7779 15.9544 17.8284 15.9544 17.8991V18.8788C15.9544 18.9495 15.9039 19 15.8332 19H11.773Z" fill="#27292A"/>
<path d="M19.409 19.0808C17.995 19.0808 17.086 18.2829 17.086 17.1012V16.8386C17.086 16.7679 17.1365 16.7174 17.2072 16.7174H18.3687C18.4394 16.7174 18.4899 16.7679 18.4899 16.8386V17.0305C18.4899 17.4951 18.8535 17.8587 19.4595 17.8587C20.0049 17.8587 20.2675 17.5355 20.2675 17.1416C20.2675 16.6669 19.8635 16.4548 19.0353 16.0306C18.1364 15.5761 17.1163 15.0509 17.1163 13.7884C17.1163 12.5966 18.0253 11.8492 19.3282 11.8492C20.6917 11.8492 21.6411 12.6774 21.6411 13.8995V14.1015C21.6411 14.1722 21.5906 14.2227 21.5199 14.2227H20.3584C20.2877 14.2227 20.2372 14.1722 20.2372 14.1015V13.9197C20.2372 13.4551 19.8938 13.0713 19.2979 13.0713C18.8232 13.0713 18.5202 13.3339 18.5202 13.7783C18.5202 14.253 18.8636 14.4651 19.7827 14.9196C20.7624 15.4751 21.6815 15.8993 21.6815 17.081C21.6815 18.3132 20.7725 19.0808 19.409 19.0808Z" fill="#27292A"/>
</svg>
