<svg width="24" height="24" viewBox="0 0 24 24" fill="none" xmlns="http://www.w3.org/2000/svg">
<path d="M16.5 10.5V7.49998C16.5026 7.40141 16.4839 7.30344 16.4451 7.21281C16.4062 7.12218 16.3482 7.04104 16.275 6.97498L11.025 1.72498C10.9593 1.65138 10.8782 1.59309 10.7875 1.55421C10.6968 1.51534 10.5986 1.49682 10.5 1.49998H3C2.60254 1.50117 2.2217 1.65958 1.94065 1.94063C1.6596 2.22168 1.50119 2.60252 1.5 2.99998V21C1.5 21.3978 1.65804 21.7793 1.93934 22.0606C2.22064 22.3419 2.60218 22.5 3 22.5H15V21H3V2.99998H9V7.49998C9.00119 7.89744 9.1596 8.27828 9.44065 8.55933C9.7217 8.84037 10.1025 8.99879 10.5 8.99998H15V10.5H16.5ZM10.5 7.49998V3.29998L14.7 7.49998H10.5Z" fill="#27292A"/>
<path d="M9.62116 13.0309C9.62116 13.1016 9.57066 13.1521 9.49996 13.1521H7.39916C7.36886 13.1521 7.34866 13.1723 7.34866 13.2026V14.7984C7.34866 14.8287 7.36886 14.8489 7.39916 14.8489H8.60106C8.67176 14.8489 8.72226 14.8994 8.72226 14.9701V15.9498C8.72226 16.0205 8.67176 16.071 8.60106 16.071H7.39916C7.36886 16.071 7.34866 16.0912 7.34866 16.1215V18.8788C7.34866 18.9495 7.29816 19 7.22746 19H6.04576C5.97506 19 5.92456 18.9495 5.92456 18.8788V12.0512C5.92456 11.9805 5.97506 11.93 6.04576 11.93H9.49996C9.57066 11.93 9.62116 11.9805 9.62116 12.0512V13.0309Z" fill="#27292A"/>
<path d="M10.7008 19C10.6301 19 10.5796 18.9495 10.5796 18.8788V12.0512C10.5796 11.9805 10.6301 11.93 10.7008 11.93H11.8825C11.9532 11.93 12.0037 11.9805 12.0037 12.0512V18.8788C12.0037 18.9495 11.9532 19 11.8825 19H10.7008Z" fill="#27292A"/>
<path d="M13.4326 19C13.3619 19 13.3114 18.9495 13.3114 18.8788V12.0512C13.3114 11.9805 13.3619 11.93 13.4326 11.93H14.6143C14.685 11.93 14.7355 11.9805 14.7355 12.0512V17.7274C14.7355 17.7577 14.7557 17.7779 14.786 17.7779H16.907C16.9777 17.7779 17.0282 17.8284 17.0282 17.8991V18.8788C17.0282 18.9495 16.9777 19 16.907 19H13.4326Z" fill="#27292A"/>
<path d="M21.7225 13.0309C21.7225 13.1016 21.672 13.1521 21.6013 13.1521H19.4904C19.4601 13.1521 19.4399 13.1723 19.4399 13.2026V14.7984C19.4399 14.8287 19.4601 14.8489 19.4904 14.8489H20.7024C20.7731 14.8489 20.8236 14.8994 20.8236 14.9701V15.9498C20.8236 16.0205 20.7731 16.071 20.7024 16.071H19.4904C19.4601 16.071 19.4399 16.0912 19.4399 16.1215V17.7274C19.4399 17.7577 19.4601 17.7779 19.4904 17.7779H21.6013C21.672 17.7779 21.7225 17.8284 21.7225 17.8991V18.8788C21.7225 18.9495 21.672 19 21.6013 19H18.137C18.0663 19 18.0158 18.9495 18.0158 18.8788V12.0512C18.0158 11.9805 18.0663 11.93 18.137 11.93H21.6013C21.672 11.93 21.7225 11.9805 21.7225 12.0512V13.0309Z" fill="#27292A"/>
</svg>
