<svg width="24" height="24" viewBox="0 0 24 24" fill="none" xmlns="http://www.w3.org/2000/svg">
<path d="M19.5 22.5H4.5C4.10218 22.5 3.72064 22.342 3.43934 22.0607C3.15804 21.7794 3 21.3978 3 21V3C3 2.60218 3.15804 2.22064 3.43934 1.93934C3.72064 1.65804 4.10218 1.5 4.5 1.5H19.5C19.8978 1.5 20.2794 1.65804 20.5607 1.93934C20.842 2.22064 21 2.60218 21 3V21C21 21.3978 20.842 21.7794 20.5607 22.0607C20.2794 22.342 19.8978 22.5 19.5 22.5ZM4.5 3V21H19.5V3H4.5Z" fill="#27292A"/>
<path d="M16.5 18.5H7.5V17H16.5V18.5Z" fill="#27292A"/>
<path d="M15.1294 11.6468C15.1294 12.2529 14.9322 12.7529 14.5378 13.1468C14.1435 13.5408 13.6042 13.7908 12.9201 13.8968C12.8799 13.912 12.8598 13.9347 12.8598 13.965L12.8718 14.7037C12.8718 14.7415 12.8558 14.7718 12.8236 14.7946C12.7994 14.8249 12.7672 14.84 12.727 14.84H11.5197C11.4795 14.84 11.4433 14.8249 11.4111 14.7946C11.3869 14.7718 11.3749 14.7415 11.3749 14.7037L11.3869 13.9537C11.3869 13.9234 11.3668 13.9006 11.3266 13.8855C10.6425 13.7567 10.1032 13.4915 9.70887 13.09C9.32255 12.6885 9.12939 12.1847 9.12939 11.5787V11.3287C9.12939 11.2908 9.14147 11.2605 9.16561 11.2378C9.1978 11.2075 9.23402 11.1923 9.27426 11.1923H10.5781C10.6183 11.1923 10.6505 11.2075 10.6747 11.2378C10.7069 11.2605 10.723 11.2908 10.723 11.3287V11.4991C10.723 11.8021 10.8638 12.0597 11.1455 12.2718C11.4272 12.4764 11.8135 12.5787 12.3044 12.5787C12.7149 12.5787 13.0167 12.4953 13.2099 12.3287C13.4111 12.1544 13.5117 11.9423 13.5117 11.6923C13.5117 11.5105 13.4513 11.359 13.3306 11.2378C13.2099 11.109 13.0409 10.9991 12.8236 10.9082C12.6143 10.8097 12.2803 10.6771 11.8215 10.5105C11.2984 10.3362 10.8598 10.1582 10.5057 9.97639C10.1515 9.79457 9.84972 9.54836 9.60022 9.23775C9.35877 8.91957 9.23805 8.52942 9.23805 8.0673C9.23805 7.48397 9.42316 7.00291 9.79338 6.62412C10.1716 6.23775 10.6787 5.98775 11.3145 5.87412C11.3547 5.85897 11.3749 5.83624 11.3749 5.80594L11.3507 4.97639C11.3507 4.93851 11.3628 4.90821 11.3869 4.88548C11.4191 4.85518 11.4554 4.84003 11.4956 4.84003H12.7028C12.7431 4.84003 12.7753 4.85518 12.7994 4.88548C12.8316 4.90821 12.8477 4.93851 12.8477 4.97639L12.8356 5.82866C12.8356 5.85897 12.8558 5.88169 12.896 5.89684C13.564 6.02563 14.0952 6.30215 14.4896 6.72639C14.8839 7.14306 15.0811 7.65442 15.0811 8.26048V8.43094C15.0811 8.46881 15.065 8.50291 15.0328 8.53321C15.0087 8.55594 14.9765 8.5673 14.9362 8.5673H13.6203C13.5801 8.5673 13.5439 8.55594 13.5117 8.53321C13.4875 8.50291 13.4755 8.46881 13.4755 8.43094V8.34003C13.4755 8.02185 13.3427 7.75291 13.0771 7.53321C12.8115 7.30594 12.4493 7.1923 11.9906 7.1923C11.6284 7.1923 11.3467 7.26806 11.1455 7.41957C10.9443 7.57109 10.8437 7.77942 10.8437 8.04457C10.8437 8.23397 10.9 8.39306 11.0127 8.52185C11.1334 8.65063 11.3105 8.76806 11.5439 8.87412C11.7773 8.98018 12.1395 9.11654 12.6304 9.28321C13.1696 9.4726 13.5962 9.64306 13.9101 9.79457C14.224 9.94609 14.5057 10.1734 14.7551 10.4764C15.0046 10.7794 15.1294 11.1696 15.1294 11.6468Z" fill="#27292A"/>
</svg>
