<svg width="24" height="24" viewBox="0 0 24 24" fill="none" xmlns="http://www.w3.org/2000/svg">
<path d="M9.675 5.25C9.375 3.975 8.175 3 6.75 3C5.325 3 4.2 3.975 3.825 5.25H1.5V6.75H3.825C4.125 8.025 5.325 9 6.75 9C8.175 9 9.3 8.025 9.675 6.75H22.5V5.25H9.675ZM6.75 7.5C5.925 7.5 5.25 6.825 5.25 6C5.25 5.175 5.925 4.5 6.75 4.5C7.575 4.5 8.25 5.175 8.25 6C8.25 6.825 7.575 7.5 6.75 7.5ZM17.25 9C15.825 9 14.7 9.975 14.325 11.25H1.5V12.75H14.325C14.625 14.025 15.825 15 17.25 15C18.675 15 19.8 14.025 20.175 12.75H22.5V11.25H20.175C19.875 9.975 18.675 9 17.25 9ZM17.25 13.5C16.425 13.5 15.75 12.825 15.75 12C15.75 11.175 16.425 10.5 17.25 10.5C18.075 10.5 18.75 11.175 18.75 12C18.75 12.825 18.075 13.5 17.25 13.5ZM10.5 15C9.075 15 7.95 15.975 7.575 17.25H1.5V18.75H7.575C7.875 20.025 9.075 21 10.5 21C11.925 21 13.05 20.025 13.425 18.75H22.5V17.25H13.425C13.125 15.975 11.925 15 10.5 15ZM10.5 19.5C9.675 19.5 9 18.825 9 18C9 17.175 9.675 16.5 10.5 16.5C11.325 16.5 12 17.175 12 18C12 18.825 11.325 19.5 10.5 19.5Z" fill="#27292A"/>
</svg>
