<svg width="24" height="24" viewBox="0 0 24 24" fill="none" xmlns="http://www.w3.org/2000/svg">
<path d="M21 2.2002C21.718 2.2002 22.2998 2.78203 22.2998 3.5V10.5C22.2998 11.218 21.718 11.7998 21 11.7998H18.2998V21.7998H5.7002V11.7998H3C2.28203 11.7998 1.7002 11.218 1.7002 10.5V3.5C1.7002 2.78203 2.28203 2.2002 3 2.2002H21ZM7.2998 20.2002H16.7002V7.7998H7.2998V20.2002ZM3.2998 10.2002H5.7002V6.2002H18.2998V10.2002H20.7002V3.7998H3.2998V10.2002Z" fill="#27292A"/>
<path d="M15 15.8068C15 16.4129 14.8028 16.9129 14.4085 17.3068C14.0141 17.7008 13.4748 17.9508 12.7907 18.0568C12.7505 18.072 12.7304 18.0947 12.7304 18.125L12.7425 18.8636C12.7425 18.9015 12.7264 18.9318 12.6942 18.9545C12.67 18.9848 12.6378 19 12.5976 19H11.3903C11.3501 19 11.3139 18.9848 11.2817 18.9545C11.2575 18.9318 11.2455 18.9015 11.2455 18.8636L11.2575 18.1136C11.2575 18.0833 11.2374 18.0606 11.1972 18.0455C10.5131 17.9167 9.97384 17.6515 9.57948 17.25C9.19316 16.8485 9 16.3447 9 15.7386V15.4886C9 15.4508 9.01207 15.4205 9.03622 15.3977C9.06841 15.3674 9.10463 15.3523 9.14487 15.3523H10.4487C10.4889 15.3523 10.5211 15.3674 10.5453 15.3977C10.5775 15.4205 10.5936 15.4508 10.5936 15.4886V15.6591C10.5936 15.9621 10.7344 16.2197 11.0161 16.4318C11.2978 16.6364 11.6841 16.7386 12.1751 16.7386C12.5855 16.7386 12.8873 16.6553 13.0805 16.4886C13.2817 16.3144 13.3823 16.1023 13.3823 15.8523C13.3823 15.6705 13.3219 15.5189 13.2012 15.3977C13.0805 15.2689 12.9115 15.1591 12.6942 15.0682C12.4849 14.9697 12.1509 14.8371 11.6922 14.6705C11.169 14.4962 10.7304 14.3182 10.3763 14.1364C10.0221 13.9545 9.72032 13.7083 9.47082 13.3977C9.22938 13.0795 9.10865 12.6894 9.10865 12.2273C9.10865 11.6439 9.29376 11.1629 9.66398 10.7841C10.0423 10.3977 10.5493 10.1477 11.1851 10.0341C11.2254 10.0189 11.2455 9.99621 11.2455 9.96591L11.2213 9.13636C11.2213 9.09848 11.2334 9.06818 11.2575 9.04545C11.2897 9.01515 11.326 9 11.3662 9H12.5734C12.6137 9 12.6459 9.01515 12.67 9.04545C12.7022 9.06818 12.7183 9.09848 12.7183 9.13636L12.7062 9.98864C12.7062 10.0189 12.7264 10.0417 12.7666 10.0568C13.4346 10.1856 13.9658 10.4621 14.3602 10.8864C14.7545 11.303 14.9517 11.8144 14.9517 12.4205V12.5909C14.9517 12.6288 14.9356 12.6629 14.9034 12.6932C14.8793 12.7159 14.8471 12.7273 14.8068 12.7273H13.4909C13.4507 12.7273 13.4145 12.7159 13.3823 12.6932C13.3581 12.6629 13.3461 12.6288 13.3461 12.5909V12.5C13.3461 12.1818 13.2133 11.9129 12.9477 11.6932C12.6821 11.4659 12.3199 11.3523 11.8612 11.3523C11.499 11.3523 11.2173 11.428 11.0161 11.5795C10.8149 11.7311 10.7143 11.9394 10.7143 12.2045C10.7143 12.3939 10.7706 12.553 10.8833 12.6818C11.004 12.8106 11.1811 12.928 11.4145 13.0341C11.6479 13.1402 12.0101 13.2765 12.501 13.4432C13.0402 13.6326 13.4668 13.803 13.7807 13.9545C14.0946 14.1061 14.3763 14.3333 14.6258 14.6364C14.8753 14.9394 15 15.3295 15 15.8068Z" fill="#27292A"/>
</svg>
