<svg width="24" height="24" viewBox="0 0 24 24" fill="none" xmlns="http://www.w3.org/2000/svg">
<path d="M6 16H7.5V17.5H6V16ZM6 12H7.5V13.5H6V12Z" fill="#27292A"/>
<path d="M9 16L15 16.0536V17.5536L9 17.5V16ZM9 12H15V13.5H9V12Z" fill="#27292A"/>
<path d="M12 21H4.5V2.99998H10.5V7.49998C10.5012 7.89744 10.6596 8.27828 10.9407 8.55933C11.2217 8.84037 11.6025 8.99879 12 8.99998H16.5V11.25H18V7.49998C18.0026 7.40141 17.9839 7.30344 17.9451 7.21281C17.9062 7.12218 17.8482 7.04104 17.775 6.97498L12.525 1.72498C12.4593 1.65138 12.3782 1.59309 12.2875 1.55421C12.1968 1.51534 12.0986 1.49682 12 1.49998H4.5C4.10254 1.50117 3.7217 1.65958 3.44065 1.94063C3.1596 2.22168 3.00119 2.60252 3 2.99998V21C3.00119 21.3974 3.1596 21.7783 3.44065 22.0593C3.7217 22.3404 4.10254 22.4988 4.5 22.5H12V21ZM12 3.29998L16.2 7.49998H12V3.29998Z" fill="#27292A"/>
<path d="M16 20.6925L14.0575 18.75L13 19.8075L16 22.8075L21.25 17.5575L20.1925 16.5L16 20.6925Z" fill="#27292A"/>
</svg>
