<svg width="24" height="24" viewBox="0 0 24 24" fill="none" xmlns="http://www.w3.org/2000/svg">
<path d="M16.25 8.25C16.25 8.11193 16.1381 8 16 8H8C7.86193 8 7.75 8.11193 7.75 8.25V17.25C7.75 17.3881 7.86193 17.5 8 17.5H16C16.1381 17.5 16.25 17.3881 16.25 17.25V8.25ZM17.75 17.25C17.75 18.2165 16.9665 19 16 19H8C7.0335 19 6.25 18.2165 6.25 17.25V8.25C6.25 7.2835 7.0335 6.5 8 6.5H16C16.9665 6.5 17.75 7.2835 17.75 8.25V17.25Z" fill="#27292A"/>
<path d="M20.7002 20.25H19.2002V11.25H20.7002V20.25Z" fill="#27292A"/>
<path d="M21.25 19.25C21.6642 19.25 22 19.5858 22 20C22 20.4142 21.6642 20.75 21.25 20.75H18.75C18.3358 20.75 18 20.4142 18 20C18 19.5858 18.3358 19.25 18.75 19.25H21.25Z" fill="#27292A"/>
<path d="M4.90039 20.25H3.40039L3.40039 11.25H4.90039L4.90039 20.25Z" fill="#27292A"/>
<path d="M5.4502 19.25C5.86441 19.25 6.2002 19.5858 6.2002 20C6.2002 20.4142 5.86441 20.75 5.4502 20.75H2.9502C2.53598 20.75 2.2002 20.4142 2.2002 20C2.2002 19.5858 2.53598 19.25 2.9502 19.25H5.4502Z" fill="#27292A"/>
<path d="M21 3.5C21.9665 3.5 22.75 4.2835 22.75 5.25V10.25C22.75 11.2165 21.9665 12 21 12H17V10.5H21C21.1381 10.5 21.25 10.3881 21.25 10.25V5.25C21.25 5.11193 21.1381 5 21 5H3C2.86193 5 2.75 5.11193 2.75 5.25V10.25C2.75 10.3881 2.86193 10.5 3 10.5H7V12H3C2.0335 12 1.25 11.2165 1.25 10.25V5.25C1.25 4.2835 2.0335 3.5 3 3.5H21Z" fill="#27292A"/>
</svg>
