<svg width="24" height="24" viewBox="0 0 24 24" fill="none" xmlns="http://www.w3.org/2000/svg">
<path d="M6.75 17.25H8.25V18.75H6.75V17.25ZM11.25 13.5H12.75V15H11.25V13.5ZM6.75 13.5H8.25V15H6.75V13.5ZM11.25 9.75H12.75V11.25H11.25V9.75ZM6.75 9.75H8.25V11.25H6.75V9.75ZM6.75 5.25H17.25V7.5H6.75V5.25Z" fill="#27292A"/>
<path d="M11.75 22.5H4.50375C4.10505 22.4996 3.7228 22.341 3.44088 22.0591C3.15896 21.7772 3.0004 21.3949 3 20.9963V2.997C3.00079 2.60021 3.15877 2.21991 3.43934 1.93934C3.71991 1.65877 4.10021 1.50079 4.497 1.5H19.503C19.8998 1.50079 20.2801 1.65877 20.5607 1.93934C20.8412 2.21991 20.9992 2.60021 21 2.997V8H19.5V3H4.5V21H11.75V22.5Z" fill="#27292A"/>
<path d="M22 18.6682C22 19.3955 21.77 19.9955 21.3099 20.4682C20.8498 20.9409 20.2207 21.2409 19.4225 21.3682C19.3756 21.3864 19.3521 21.4136 19.3521 21.45L19.3662 22.3364C19.3662 22.3818 19.3474 22.4182 19.3099 22.4455C19.2817 22.4818 19.2441 22.5 19.1972 22.5H17.7887C17.7418 22.5 17.6995 22.4818 17.662 22.4455C17.6338 22.4182 17.6197 22.3818 17.6197 22.3364L17.6338 21.4364C17.6338 21.4 17.6103 21.3727 17.5634 21.3545C16.7653 21.2 16.1362 20.8818 15.6761 20.4C15.2254 19.9182 15 19.3136 15 18.5864V18.2864C15 18.2409 15.0141 18.2045 15.0423 18.1773C15.0798 18.1409 15.1221 18.1227 15.169 18.1227H16.6901C16.7371 18.1227 16.7746 18.1409 16.8028 18.1773C16.8404 18.2045 16.8592 18.2409 16.8592 18.2864V18.4909C16.8592 18.8545 17.0235 19.1636 17.3521 19.4182C17.6808 19.6636 18.1315 19.7864 18.7042 19.7864C19.1831 19.7864 19.5352 19.6864 19.7606 19.4864C19.9953 19.2773 20.1127 19.0227 20.1127 18.7227C20.1127 18.5045 20.0423 18.3227 19.9014 18.1773C19.7606 18.0227 19.5634 17.8909 19.3099 17.7818C19.0657 17.6636 18.6761 17.5045 18.1408 17.3045C17.5305 17.0955 17.0188 16.8818 16.6056 16.6636C16.1925 16.4455 15.8404 16.15 15.5493 15.7773C15.2676 15.3955 15.1268 14.9273 15.1268 14.3727C15.1268 13.6727 15.3427 13.0955 15.7746 12.6409C16.216 12.1773 16.8075 11.8773 17.5493 11.7409C17.5962 11.7227 17.6197 11.6955 17.6197 11.6591L17.5915 10.6636C17.5915 10.6182 17.6056 10.5818 17.6338 10.5545C17.6714 10.5182 17.7136 10.5 17.7606 10.5H19.169C19.216 10.5 19.2535 10.5182 19.2817 10.5545C19.3192 10.5818 19.338 10.6182 19.338 10.6636L19.3239 11.6864C19.3239 11.7227 19.3474 11.75 19.3944 11.7682C20.1737 11.9227 20.7934 12.2545 21.2535 12.7636C21.7136 13.2636 21.9437 13.8773 21.9437 14.6045V14.8091C21.9437 14.8545 21.9249 14.8955 21.8873 14.9318C21.8592 14.9591 21.8216 14.9727 21.7746 14.9727H20.2394C20.1925 14.9727 20.1502 14.9591 20.1127 14.9318C20.0845 14.8955 20.0704 14.8545 20.0704 14.8091V14.7C20.0704 14.3182 19.9155 13.9955 19.6056 13.7318C19.2958 13.4591 18.8732 13.3227 18.338 13.3227C17.9155 13.3227 17.5869 13.4136 17.3521 13.5955C17.1174 13.7773 17 14.0273 17 14.3455C17 14.5727 17.0657 14.7636 17.1972 14.9182C17.338 15.0727 17.5446 15.2136 17.8169 15.3409C18.0892 15.4682 18.5117 15.6318 19.0845 15.8318C19.7136 16.0591 20.2113 16.2636 20.5775 16.4455C20.9437 16.6273 21.2723 16.9 21.5634 17.2636C21.8545 17.6273 22 18.0955 22 18.6682Z" fill="#27292A"/>
</svg>
