<svg width="24" height="24" viewBox="0 0 24 24" fill="none" xmlns="http://www.w3.org/2000/svg">
<path d="M7 10H8.5V11.5H7V10Z" fill="#27292A"/>
<path d="M10.5 10H12V11.5H10.5V10Z" fill="#27292A"/>
<path d="M7 13.5H8.5V15H7V13.5Z" fill="#27292A"/>
<path d="M7 17H8.5V18.5H7V17Z" fill="#27292A"/>
<path d="M10.5 17H12V18.5H10.5V17Z" fill="#27292A"/>
<path d="M10.5 13.5H12V15H10.5V13.5Z" fill="#27292A"/>
<path d="M7 6H16V8H7V6Z" fill="#27292A"/>
<path d="M20 18.3068C20 18.9129 19.8028 19.4129 19.4085 19.8068C19.0141 20.2008 18.4748 20.4508 17.7907 20.5568C17.7505 20.572 17.7304 20.5947 17.7304 20.625L17.7425 21.3636C17.7425 21.4015 17.7264 21.4318 17.6942 21.4545C17.67 21.4848 17.6378 21.5 17.5976 21.5H16.3903C16.3501 21.5 16.3139 21.4848 16.2817 21.4545C16.2575 21.4318 16.2455 21.4015 16.2455 21.3636L16.2575 20.6136C16.2575 20.5833 16.2374 20.5606 16.1972 20.5455C15.5131 20.4167 14.9738 20.1515 14.5795 19.75C14.1932 19.3485 14 18.8447 14 18.2386V17.9886C14 17.9508 14.0121 17.9205 14.0362 17.8977C14.0684 17.8674 14.1046 17.8523 14.1449 17.8523H15.4487C15.4889 17.8523 15.5211 17.8674 15.5453 17.8977C15.5775 17.9205 15.5936 17.9508 15.5936 17.9886V18.1591C15.5936 18.4621 15.7344 18.7197 16.0161 18.9318C16.2978 19.1364 16.6841 19.2386 17.1751 19.2386C17.5855 19.2386 17.8873 19.1553 18.0805 18.9886C18.2817 18.8144 18.3823 18.6023 18.3823 18.3523C18.3823 18.1705 18.3219 18.0189 18.2012 17.8977C18.0805 17.7689 17.9115 17.6591 17.6942 17.5682C17.4849 17.4697 17.1509 17.3371 16.6922 17.1705C16.169 16.9962 15.7304 16.8182 15.3763 16.6364C15.0221 16.4545 14.7203 16.2083 14.4708 15.8977C14.2294 15.5795 14.1087 15.1894 14.1087 14.7273C14.1087 14.1439 14.2938 13.6629 14.664 13.2841C15.0423 12.8977 15.5493 12.6477 16.1851 12.5341C16.2254 12.5189 16.2455 12.4962 16.2455 12.4659L16.2213 11.6364C16.2213 11.5985 16.2334 11.5682 16.2575 11.5455C16.2897 11.5152 16.326 11.5 16.3662 11.5H17.5734C17.6137 11.5 17.6459 11.5152 17.67 11.5455C17.7022 11.5682 17.7183 11.5985 17.7183 11.6364L17.7062 12.4886C17.7062 12.5189 17.7264 12.5417 17.7666 12.5568C18.4346 12.6856 18.9658 12.9621 19.3602 13.3864C19.7545 13.803 19.9517 14.3144 19.9517 14.9205V15.0909C19.9517 15.1288 19.9356 15.1629 19.9034 15.1932C19.8793 15.2159 19.8471 15.2273 19.8068 15.2273H18.4909C18.4507 15.2273 18.4145 15.2159 18.3823 15.1932C18.3581 15.1629 18.3461 15.1288 18.3461 15.0909V15C18.3461 14.6818 18.2133 14.4129 17.9477 14.1932C17.6821 13.9659 17.3199 13.8523 16.8612 13.8523C16.499 13.8523 16.2173 13.928 16.0161 14.0795C15.8149 14.2311 15.7143 14.4394 15.7143 14.7045C15.7143 14.8939 15.7706 15.053 15.8833 15.1818C16.004 15.3106 16.1811 15.428 16.4145 15.5341C16.6479 15.6402 17.0101 15.7765 17.501 15.9432C18.0402 16.1326 18.4668 16.303 18.7807 16.4545C19.0946 16.6061 19.3763 16.8333 19.6258 17.1364C19.8753 17.4394 20 17.8295 20 18.3068Z" fill="#27292A"/>
<path d="M16 2.5C17.6569 2.5 19 3.84315 19 5.5V9.67383C18.6869 9.56306 18.351 9.5 18 9.5H17.5V5.5C17.5 4.67157 16.8284 4 16 4H7C6.17157 4 5.5 4.67157 5.5 5.5V18.5C5.5 19.3284 6.17157 20 7 20H12.042C12.1379 20.5718 12.3977 21.0866 12.7686 21.5H7L6.8457 21.4961C5.26055 21.4158 4 20.1051 4 18.5V5.5C4 3.84315 5.34315 2.5 7 2.5H16Z" fill="#27292A"/>
</svg>
