<svg width="24" height="24" viewBox="0 0 24 24" fill="none" xmlns="http://www.w3.org/2000/svg">
<path d="M6.75 17.25H8.25V18.75H6.75V17.25ZM6.75 13.5H8.25V15H6.75V13.5ZM11.25 9.75H12.75V11.25H11.25V9.75ZM6.75 9.75H8.25V11.25H6.75V9.75ZM6.75 5.25H17.25V7.5H6.75V5.25Z" fill="#27292A"/>
<path d="M10.75 22.5H4.50375C4.10505 22.4996 3.7228 22.341 3.44088 22.0591C3.15896 21.7772 3.0004 21.3949 3 20.9963V2.997C3.00079 2.60021 3.15877 2.21991 3.43934 1.93934C3.71991 1.65877 4.10021 1.50079 4.497 1.5H19.503C19.8998 1.50079 20.2801 1.65877 20.5607 1.93934C20.8412 2.21991 20.9992 2.60021 21 2.997V10H19.5V3H4.5V21H10.75V22.5Z" fill="#27292A"/>
<path d="M17.5 12C20.5376 12 23 14.4624 23 17.5C23 20.5376 20.5376 23 17.5 23C14.4624 23 12 20.5376 12 17.5C12 14.4624 14.4624 12 17.5 12ZM16.5459 18.9883L14.8975 17.1406L14 18.1465L16.5459 21L21 16.0059L20.1025 15L16.5459 18.9883Z" fill="#27292A"/>
</svg>
