<svg width="24" height="24" viewBox="0 0 24 24" fill="none" xmlns="http://www.w3.org/2000/svg">
<path fill-rule="evenodd" clip-rule="evenodd" d="M14.615 1.59498C14.7614 1.67648 14.8763 1.80466 14.9413 1.95908C15.0064 2.11351 15.0179 2.28527 14.974 2.44698L12.982 9.74998H20.25C20.3961 9.74999 20.5391 9.79271 20.6613 9.87288C20.7835 9.95305 20.8796 10.0672 20.9378 10.2013C20.9961 10.3353 21.0138 10.4835 20.989 10.6275C20.9641 10.7715 20.8977 10.9052 20.798 11.012L10.298 22.262C10.1836 22.3848 10.0313 22.4657 9.86558 22.4917C9.69981 22.5178 9.53009 22.4875 9.38357 22.4057C9.23704 22.3239 9.12218 22.1954 9.05735 22.0406C8.99252 21.8858 8.98146 21.7138 9.02595 21.552L11.018 14.25H3.74995C3.60379 14.25 3.46082 14.2073 3.33861 14.1271C3.2164 14.0469 3.12028 13.9328 3.06206 13.7987C3.00384 13.6646 2.98607 13.5165 3.01092 13.3724C3.03578 13.2284 3.10217 13.0948 3.20195 12.988L13.702 1.73798C13.8163 1.61563 13.9683 1.53507 14.1338 1.50916C14.2993 1.48324 14.4687 1.51345 14.615 1.59498Z" fill="black"/>
</svg>
