<svg width="24" height="24" viewBox="0 0 24 24" fill="none" xmlns="http://www.w3.org/2000/svg">
<path d="M20.9971 3.5C21.8255 3.50004 22.4971 4.1716 22.4971 5V9.95508C22.4971 9.97012 22.4956 9.98507 22.4951 10H21.4932C21.4945 9.98515 21.4971 9.97028 21.4971 9.95508V5C21.4971 4.72388 21.2732 4.50004 20.9971 4.5H3C2.72386 4.5 2.5 4.72386 2.5 5V9.95508C2.5 10.2312 2.72386 10.4551 3 10.4551H7.20801V11.4551H3C2.17157 11.4551 1.5 10.7835 1.5 9.95508V5C1.5 4.17157 2.17157 3.5 3 3.5H20.9971Z" fill="#27292A"/>
<path d="M3.86963 20.5186H2.86963L2.86963 10.9551H3.86963L3.86963 20.5186Z" fill="#27292A"/>
<path d="M5.6084 20.5186H4.6084L4.6084 10.9551H5.6084L5.6084 20.5186Z" fill="#27292A"/>
<path d="M5.66821 19.665C5.94436 19.665 6.16821 19.8888 6.16821 20.165C6.16821 20.4411 5.94436 20.665 5.66821 20.665H2.5022C2.22605 20.665 2.0022 20.4411 2.0022 20.165C2.0022 19.8888 2.22605 19.665 2.5022 19.665H5.66821Z" fill="#27292A"/>
<path d="M7.2168 8.21631V9.21631H2V8.21631H7.2168Z" fill="#27292A"/>
<path d="M7.21704 15.1713L7.21704 16.1713L5.04321 16.1713L5.04321 15.1713L7.21704 15.1713Z" fill="#27292A"/>
<path d="M21.9973 8.21631L21.9973 9.21631L16.7805 9.21631L16.7805 8.21631L21.9973 8.21631Z" fill="#27292A"/>
<path d="M18.4539 5.17346C18.73 5.17346 18.9539 5.39732 18.9539 5.67346C18.9539 5.9496 18.73 6.17346 18.4539 6.17346L15.9763 6.17346C15.7002 6.17346 15.4763 5.9496 15.4763 5.67346C15.4763 5.39732 15.7002 5.17346 15.9763 5.17346L18.4539 5.17346Z" fill="#27292A"/>
<path d="M20.324 5.17346C20.6001 5.17346 20.824 5.39732 20.824 5.67346C20.824 5.9496 20.6001 6.17346 20.324 6.17346L19.7585 6.17346C19.4825 6.17338 19.2585 5.94956 19.2585 5.67346C19.2585 5.39737 19.4825 5.17354 19.7585 5.17346L20.324 5.17346Z" fill="#27292A"/>
<path d="M16.3174 7.48242C16.8217 7.53359 17.2158 7.95974 17.2158 8.47754V10H16.2158V8.47754H7.78223V17.3447H10V18.3447H7.78223C7.22994 18.3447 6.78223 17.897 6.78223 17.3447V8.47754C6.78223 7.92525 7.22994 7.47754 7.78223 7.47754H16.2158L16.3174 7.48242Z" fill="#27292A"/>
<path d="M17.5 12C20.5376 12 23 14.4624 23 17.5C23 20.5376 20.5376 23 17.5 23C14.4624 23 12 20.5376 12 17.5C12 14.4624 14.4624 12 17.5 12ZM16.1758 14.9512L18.4014 16.8994H14V18.0996H18.4023L16.1758 20.0488L16.9668 20.9512L20.3945 17.9512L20.9111 17.5L20.3945 17.0488L16.9668 14.0488L16.1758 14.9512Z" fill="#27292A"/>
</svg>
