<svg width="24" height="24" viewBox="0 0 24 24" fill="none" xmlns="http://www.w3.org/2000/svg">
<path d="M12 2C13.3325 1.99975 14.6515 2.26734 15.8785 2.78687C17.1056 3.30641 18.2157 4.06728 19.1429 5.02429V2.5H20.5714V7.71428H15.5V6.28571H18.3729C17.0346 4.7996 15.2182 3.82904 13.239 3.54253C11.2598 3.25602 9.24276 3.67165 7.53804 4.71726C5.83332 5.76288 4.54859 7.37245 3.90688 9.26654C3.26517 11.1606 3.30701 13.2196 4.02513 15.0861C4.74325 16.9526 6.0923 18.5086 7.83809 19.4841C9.58388 20.4596 11.6161 20.793 13.5821 20.4263C15.548 20.0596 17.3235 19.0161 18.6003 17.4768C19.877 15.9376 20.5744 13.9998 20.5714 12H22C22 13.9778 21.4135 15.9112 20.3147 17.5557C19.2159 19.2002 17.6541 20.4819 15.8268 21.2388C13.9996 21.9957 11.9889 22.1937 10.0491 21.8078C8.10929 21.422 6.32746 20.4696 4.92894 19.0711C3.53041 17.6725 2.578 15.8907 2.19215 13.9509C1.8063 12.0111 2.00433 10.0004 2.76121 8.17316C3.51809 6.3459 4.79981 4.78412 6.4443 3.6853C8.08879 2.58649 10.0222 2 12 2Z" fill="#27292A"/>
<path d="M15 13.8068C15 14.4129 14.8028 14.9129 14.4085 15.3068C14.0141 15.7008 13.4748 15.9508 12.7907 16.0568C12.7505 16.072 12.7304 16.0947 12.7304 16.125L12.7425 16.8636C12.7425 16.9015 12.7264 16.9318 12.6942 16.9545C12.67 16.9848 12.6378 17 12.5976 17H11.3903C11.3501 17 11.3139 16.9848 11.2817 16.9545C11.2575 16.9318 11.2455 16.9015 11.2455 16.8636L11.2575 16.1136C11.2575 16.0833 11.2374 16.0606 11.1972 16.0455C10.5131 15.9167 9.97384 15.6515 9.57948 15.25C9.19316 14.8485 9 14.3447 9 13.7386V13.4886C9 13.4508 9.01207 13.4205 9.03622 13.3977C9.06841 13.3674 9.10463 13.3523 9.14487 13.3523H10.4487C10.4889 13.3523 10.5211 13.3674 10.5453 13.3977C10.5775 13.4205 10.5936 13.4508 10.5936 13.4886V13.6591C10.5936 13.9621 10.7344 14.2197 11.0161 14.4318C11.2978 14.6364 11.6841 14.7386 12.1751 14.7386C12.5855 14.7386 12.8873 14.6553 13.0805 14.4886C13.2817 14.3144 13.3823 14.1023 13.3823 13.8523C13.3823 13.6705 13.3219 13.5189 13.2012 13.3977C13.0805 13.2689 12.9115 13.1591 12.6942 13.0682C12.4849 12.9697 12.1509 12.8371 11.6922 12.6705C11.169 12.4962 10.7304 12.3182 10.3763 12.1364C10.0221 11.9545 9.72032 11.7083 9.47082 11.3977C9.22938 11.0795 9.10865 10.6894 9.10865 10.2273C9.10865 9.64394 9.29376 9.16288 9.66398 8.78409C10.0423 8.39773 10.5493 8.14773 11.1851 8.03409C11.2254 8.01894 11.2455 7.99621 11.2455 7.96591L11.2213 7.13636C11.2213 7.09848 11.2334 7.06818 11.2575 7.04545C11.2897 7.01515 11.326 7 11.3662 7H12.5734C12.6137 7 12.6459 7.01515 12.67 7.04545C12.7022 7.06818 12.7183 7.09848 12.7183 7.13636L12.7062 7.98864C12.7062 8.01894 12.7264 8.04167 12.7666 8.05682C13.4346 8.18561 13.9658 8.46212 14.3602 8.88636C14.7545 9.30303 14.9517 9.81439 14.9517 10.4205V10.5909C14.9517 10.6288 14.9356 10.6629 14.9034 10.6932C14.8793 10.7159 14.8471 10.7273 14.8068 10.7273H13.4909C13.4507 10.7273 13.4145 10.7159 13.3823 10.6932C13.3581 10.6629 13.3461 10.6288 13.3461 10.5909V10.5C13.3461 10.1818 13.2133 9.91288 12.9477 9.69318C12.6821 9.46591 12.3199 9.35227 11.8612 9.35227C11.499 9.35227 11.2173 9.42803 11.0161 9.57955C10.8149 9.73106 10.7143 9.93939 10.7143 10.2045C10.7143 10.3939 10.7706 10.553 10.8833 10.6818C11.004 10.8106 11.1811 10.928 11.4145 11.0341C11.6479 11.1402 12.0101 11.2765 12.501 11.4432C13.0402 11.6326 13.4668 11.803 13.7807 11.9545C14.0946 12.1061 14.3763 12.3333 14.6258 12.6364C14.8753 12.9394 15 13.3295 15 13.8068Z" fill="#27292A"/>
</svg>
