<svg width="24" height="24" viewBox="0 0 24 24" fill="none" xmlns="http://www.w3.org/2000/svg">
<path d="M8.25 13.5L9.3075 14.5575L11.25 12.6225V21.75H12.75V12.6225L14.6925 14.5575L15.75 13.5L12 9.75L8.25 13.5Z" fill="#27292A"/>
<path d="M17.6249 16.5H17.2499V15H17.6249C18.52 15.0358 19.3927 14.7145 20.0509 14.1069C20.7092 13.4993 21.0991 12.6551 21.1349 11.76C21.1707 10.8649 20.8495 9.99221 20.2418 9.33396C19.6342 8.6757 18.79 8.28579 17.8949 8.24998H17.2499L17.1749 7.63498C17.0085 6.37232 16.3888 5.21319 15.4312 4.37352C14.4736 3.53385 13.2435 3.0709 11.9699 3.0709C10.6963 3.0709 9.46615 3.53385 8.50857 4.37352C7.55099 5.21319 6.93129 6.37232 6.76489 7.63498L6.74989 8.24998H6.10489C5.20979 8.28579 4.36557 8.6757 3.75795 9.33396C3.15033 9.99221 2.82909 10.8649 2.86489 11.76C2.9007 12.6551 3.29061 13.4993 3.94887 14.1069C4.60712 14.7145 5.47979 15.0358 6.37489 15H6.74989V16.5H6.37489C5.1722 16.4924 4.01477 16.0404 3.12513 15.2311C2.2355 14.4217 1.67646 13.312 1.55549 12.1154C1.43453 10.9188 1.76018 9.71967 2.46983 8.74862C3.17949 7.77758 4.22305 7.10315 5.39989 6.85498C5.72367 5.34487 6.55552 3.99146 7.75663 3.02058C8.95774 2.04971 10.4555 1.52008 11.9999 1.52008C13.5443 1.52008 15.042 2.04971 16.2432 3.02058C17.4443 3.99146 18.2761 5.34487 18.5999 6.85498C19.7767 7.10315 20.8203 7.77758 21.53 8.74862C22.2396 9.71967 22.5653 10.9188 22.4443 12.1154C22.3233 13.312 21.7643 14.4217 20.8747 15.2311C19.985 16.0404 18.8276 16.4924 17.6249 16.5Z" fill="#27292A"/>
</svg>
