<svg xmlns="http://www.w3.org/2000/svg" width="24" height="24" fill="none" viewBox="0 0 24 24"><path fill="currentColor" d="M10.5 18.5H3v-15h5.377l2.566 2.558.434.442H22.5A1.5 1.5 0 0 0 21 5h-9L9.443 2.443A1.5 1.5 0 0 0 8.378 2H3a1.5 1.5 0 0 0-1.5 1.5v15A1.5 1.5 0 0 0 3 20h7.5z"/><path fill="currentColor" d="M15 10.5h5v1.8h-5zm.417 3.6h1.666v1.8h-1.666zM19.583 14.1h-1.666v1.8h1.666zM19.583 17.7h-1.666v1.8h1.666zM17.083 17.7h-1.666v1.8h1.666z"/><path fill="currentColor" d="M22.5 8v14h-10V8zm-8.7 12.7h7.4V9.3h-7.4z"/></svg>