<svg xmlns="http://www.w3.org/2000/svg" width="24" height="24" fill="none" viewBox="0 0 24 24"><path fill="currentColor" d="M8.96 14.25a3.71 3.71 0 0 1-2.624-6.334l3.83-3.83a3.711 3.711 0 0 1 5.248 5.25L15 9.748l-1.06-1.06.417-.417a2.213 2.213 0 0 0-.003-3.125 2.265 2.265 0 0 0-3.128 0L7.397 8.975a2.21 2.21 0 0 0 0 3.128 2.265 2.265 0 0 0 3.128 0l1.06 1.06A3.7 3.7 0 0 1 8.96 14.25"/><path fill="currentColor" d="M14.96 12.75a3.711 3.711 0 0 1-2.624-6.334L12.751 6l1.06 1.061-.414.414a2.21 2.21 0 0 0 0 3.127 2.265 2.265 0 0 0 3.128 0l3.829-3.829a2.213 2.213 0 0 0 0-3.126 2.265 2.265 0 0 0-3.128 0l-1.06-1.061a3.711 3.711 0 0 1 5.248 5.249l-3.828 3.827a3.7 3.7 0 0 1-2.625 1.087"/><path fill="currentColor" d="M18 22.5H3A1.5 1.5 0 0 1 1.5 21V6A1.5 1.5 0 0 1 3 4.5h3V6H3v15h15v-7.5h1.5V21a1.5 1.5 0 0 1-1.5 1.5"/></svg>