<svg xmlns="http://www.w3.org/2000/svg" width="24" height="24" fill="none" viewBox="0 0 24 24"><path fill="currentColor" d="M13 8V4q0-.424.288-.712A.97.97 0 0 1 14 3h6q.425 0 .713.288.288.289.287.712v4a.97.97 0 0 1-.288.713A.96.96 0 0 1 20 9h-6a.97.97 0 0 1-.712-.288A.97.97 0 0 1 13 8M3 12V4q0-.424.288-.712A.97.97 0 0 1 4 3h6q.425 0 .713.288.288.289.287.712v8a.97.97 0 0 1-.288.713A.96.96 0 0 1 10 13H4a.97.97 0 0 1-.712-.288A.97.97 0 0 1 3 12m10 8v-8q0-.424.288-.712A.97.97 0 0 1 14 11h6q.425 0 .713.288T21 12v8a.97.97 0 0 1-.288.713A.96.96 0 0 1 20 21h-6a.97.97 0 0 1-.712-.288A.97.97 0 0 1 13 20M3 20v-4q0-.424.288-.712A.97.97 0 0 1 4 15h6q.425 0 .713.288T11 16v4a.97.97 0 0 1-.288.713A.96.96 0 0 1 10 21H4a.97.97 0 0 1-.712-.288A.97.97 0 0 1 3 20m2-9h4V5H5zm10 8h4v-6h-4zm0-12h4V5h-4zM5 19h4v-2H5z"/></svg>