<svg xmlns="http://www.w3.org/2000/svg" width="24" height="24" fill="none" viewBox="0 0 24 24"><rect width="20.4" height="13.6" x="2" y="4" stroke="currentColor" rx="2"/><path stroke="currentColor" d="M2 14.38h20.4"/><path stroke="currentColor" stroke-linecap="round" d="M3.86 15.876h1.72M5.22 20.5h13.96"/><path stroke="currentColor" d="M8.46 20.66v-1.02h7.48v1.02"/><path stroke="currentColor" stroke-linecap="round" d="M3.86 5.54h2.4M3.86 6.9h.36M20.18 12.34h.36M19.5 10.98h1.04M19.5 5.54h1.04M20.18 9.62h.36M20.18 8.26h.36M20.18 6.9h.36M7.26 15.876h.36"/><path stroke="currentColor" d="m10.634 17.758-.68 2.04M13.766 17.758l.68 2.04M14.805 6.432l.236.252a.5.5 0 0 1-.023.707L9.7 12.374l-.907-.001.002-.996 5.303-4.968a.5.5 0 0 1 .707.023ZM13.139 6.622l1.604 1.712M9.287 10.231l1.604 1.712"/></svg>