<svg xmlns="http://www.w3.org/2000/svg" width="24" height="24" fill="none" viewBox="0 0 24 24"><path fill="currentColor" d="M21.621 2.379a3.07 3.07 0 0 0-4.242 0L3.038 16.719A5.21 5.21 0 0 0 1.5 20.431V22.5h2.067a5.2 5.2 0 0 0 3.713-1.538L21.62 6.622a3 3 0 0 0 0-4.243M8.183 13.695l2.121 2.122-1.591 1.59-2.121-2.12zm-1.965 6.207A3.73 3.73 0 0 1 3.567 21H3v-.57a3.73 3.73 0 0 1 1.098-2.65l1.433-1.433 2.121 2.121zM20.561 5.56l-9.195 9.196-2.122-2.122L18.44 3.44a1.535 1.535 0 0 1 2.121 0 1.5 1.5 0 0 1 0 2.121"/></svg>