<svg xmlns="http://www.w3.org/2000/svg" width="24" height="24" fill="none" viewBox="0 0 24 24"><path fill="currentColor" d="M16.5 10.5v-3a.68.68 0 0 0-.225-.525l-5.25-5.25A.68.68 0 0 0 10.5 1.5H3A1.505 1.505 0 0 0 1.5 3v18A1.5 1.5 0 0 0 3 22.5h12V21H3V3h6v4.5A1.505 1.505 0 0 0 10.5 9H15v1.5zm-6-3V3.3l4.2 4.2z"/><path fill="currentColor" d="M7.574 19.08c-1.414 0-2.323-.797-2.323-1.979v-.262c0-.071.051-.122.122-.122h1.161c.07 0 .121.05.121.122v.192c0 .464.364.828.97.828.545 0 .808-.324.808-.717 0-.475-.404-.687-1.232-1.111-.9-.455-1.92-.98-1.92-2.243 0-1.191.91-1.939 2.213-1.939 1.363 0 2.313.828 2.313 2.05v.203c0 .07-.05.12-.122.12H8.524a.117.117 0 0 1-.121-.12v-.182c0-.465-.344-.849-.94-.849-.474 0-.777.263-.777.707 0 .475.343.687 1.262 1.142.98.555 1.899.98 1.899 2.161 0 1.232-.909 2-2.273 2M12.745 19c-.07 0-.121-.03-.141-.101l-1.758-6.838c-.02-.09.03-.131.111-.131h1.283c.07 0 .121.04.131.111l1.02 4.697c.01.05.051.05.061 0l1.01-4.697c.01-.07.06-.111.132-.111h1.242c.08 0 .131.04.11.131L14.17 18.9c-.02.07-.07.101-.141.101zM19.273 19.08c-1.394 0-2.313-.878-2.313-2.201v-2.838c0-1.323.919-2.192 2.313-2.192 1.384 0 2.313.879 2.313 2.101v.222c0 .07-.05.121-.121.121h-1.182a.117.117 0 0 1-.121-.12v-.213c0-.505-.344-.889-.89-.889-.534 0-.898.384-.898.95v2.888c0 .566.384.95.93.95.524 0 .868-.334.868-.869v-.626c0-.03-.02-.05-.05-.05h-.789a.117.117 0 0 1-.12-.122v-.919c0-.07.05-.121.12-.121h2.132c.07 0 .12.05.12.121v1.606c0 1.363-.928 2.202-2.312 2.202"/></svg>