<svg xmlns="http://www.w3.org/2000/svg" width="24" height="24" fill="none" viewBox="0 0 24 24"><path fill="currentColor" d="M6 22.5a4.5 4.5 0 1 0 0-9 4.5 4.5 0 0 0 0 9M6 15a3 3 0 1 1 0 6 3 3 0 0 1 0-6m12 1.5h-6V18h6zm0-4.5h-7.5v1.5H18z"/><path fill="currentColor" d="M12 21h7.5V3h-6v4.5A1.504 1.504 0 0 1 12 9H7.5v2.25H6V7.5a.68.68 0 0 1 .225-.525l5.25-5.25A.68.68 0 0 1 12 1.5h7.5A1.504 1.504 0 0 1 21 3v18a1.504 1.504 0 0 1-1.5 1.5H12zm0-17.7L7.8 7.5H12z"/><path stroke="currentColor" stroke-width="1.5" d="M6 16v2l1.5 1.5"/></svg>