<svg xmlns="http://www.w3.org/2000/svg" width="24" height="24" fill="none" viewBox="0 0 24 24"><path fill="currentColor" d="M19.5 22.5h-15A1.5 1.5 0 0 1 3 21V3a1.5 1.5 0 0 1 1.5-1.5h15A1.5 1.5 0 0 1 21 3v18a1.5 1.5 0 0 1-1.5 1.5M4.5 3v18h15V3z"/><path fill="currentColor" d="M16.5 18.5h-9V17h9zM15.13 11.647q0 .909-.592 1.5t-1.618.75q-.06.023-.06.068l.012.739a.1.1 0 0 1-.048.09.12.12 0 0 1-.097.046H11.52a.15.15 0 0 1-.109-.045.12.12 0 0 1-.036-.091l.012-.75q0-.045-.06-.069-1.027-.192-1.618-.795-.58-.602-.58-1.511v-.25q0-.057.037-.091a.16.16 0 0 1 .108-.046h1.304q.06 0 .097.046a.1.1 0 0 1 .048.09v.171q0 .454.422.773.422.307 1.16.307.615 0 .905-.25a.81.81 0 0 0 .302-.637.62.62 0 0 0-.181-.454 1.45 1.45 0 0 0-.507-.33q-.315-.147-1.002-.397a9.5 9.5 0 0 1-1.316-.535 2.8 2.8 0 0 1-.906-.738q-.362-.478-.362-1.17 0-.876.555-1.444.568-.579 1.522-.75.06-.023.06-.068l-.024-.83a.12.12 0 0 1 .036-.09.16.16 0 0 1 .109-.046h1.207q.06 0 .096.045a.1.1 0 0 1 .049.091l-.012.853q0 .045.06.068 1.002.193 1.594.83.591.624.591 1.533v.17a.14.14 0 0 1-.048.103.14.14 0 0 1-.097.034H13.62a.2.2 0 0 1-.108-.034.16.16 0 0 1-.037-.102V8.34q0-.477-.398-.807-.398-.34-1.086-.34-.544 0-.845.227a.74.74 0 0 0-.302.625q0 .284.169.477.18.193.53.352.351.16 1.087.41.81.284 1.28.51.471.228.845.682.375.455.374 1.17"/></svg>