<svg xmlns="http://www.w3.org/2000/svg" width="24" height="24" fill="none" viewBox="0 0 24 24"><path fill="currentColor" d="M7.5 10.5a1.5 1.5 0 1 0 0-3 1.5 1.5 0 0 0 0 3M12 8.25a1.5 1.5 0 1 0 0-3 1.5 1.5 0 0 0 0 3M16.5 10.5a1.5 1.5 0 1 0 0-3 1.5 1.5 0 0 0 0 3M17.25 15a1.5 1.5 0 1 0 0-3 1.5 1.5 0 0 0 0 3M14.25 18.75a1.5 1.5 0 1 0 0-3 1.5 1.5 0 0 0 0 3"/><path fill="currentColor" d="M12.405 1.5A10.5 10.5 0 0 0 1.5 12a3.615 3.615 0 0 0 4.568 3.488l.84-.233A2.25 2.25 0 0 1 9.75 17.43v2.82A2.25 2.25 0 0 0 12 22.5a10.5 10.5 0 0 0 10.5-10.905A10.537 10.537 0 0 0 12.405 1.5m6.083 16.733A8.95 8.95 0 0 1 12 21a.75.75 0 0 1-.75-.75v-2.82a3.75 3.75 0 0 0-4.747-3.615l-.84.232A2.114 2.114 0 0 1 3 12a9 9 0 0 1 9.353-9A9.135 9.135 0 0 1 21 11.648a8.92 8.92 0 0 1-2.512 6.592z"/></svg>