<svg xmlns="http://www.w3.org/2000/svg" width="24" height="24" fill="none" viewBox="0 0 24 24"><path fill="currentColor" d="M6 16h1.5v1.5H6zm0-4h1.5v1.5H6zM9 16l6 .054v1.5L9 17.5zm0-4h6v1.5H9z"/><path fill="currentColor" d="M12 21H4.5V3h6v4.5A1.504 1.504 0 0 0 12 9h4.5v2.25H18V7.5a.68.68 0 0 0-.225-.525l-5.25-5.25A.68.68 0 0 0 12 1.5H4.5A1.505 1.505 0 0 0 3 3v18a1.504 1.504 0 0 0 1.5 1.5H12zm0-17.7 4.2 4.2H12z"/><path fill="currentColor" d="m16 20.693-1.943-1.943L13 19.808l3 3 5.25-5.25-1.058-1.058z"/></svg>