<svg xmlns="http://www.w3.org/2000/svg" width="24" height="24" fill="none" viewBox="0 0 24 24"><path fill="currentColor" d="M21.497 9.955V5a.5.5 0 0 0-.5-.5H3a.5.5 0 0 0-.5.5v4.955a.5.5 0 0 0 .5.5h4.208v1H3a1.5 1.5 0 0 1-1.5-1.5V5A1.5 1.5 0 0 1 3 3.5h17.997a1.5 1.5 0 0 1 1.5 1.5v4.955a1.5 1.5 0 0 1-1.5 1.5H16.79v-1h4.208a.5.5 0 0 0 .5-.5"/><path fill="currentColor" d="M3.87 20.519h-1v-9.564h1zM19.707 20.519h-1v-9.564h1zM5.608 20.519h-1v-9.564h1zM21.445 20.519h-1v-9.564h1z"/><path fill="currentColor" d="M5.668 19.665a.5.5 0 1 1 0 1H2.502a.5.5 0 0 1 0-1zM21.5 19.665a.5.5 0 1 1 0 1h-3.165a.5.5 0 0 1 0-1zM16.216 17.345v1H7.782v-1zm0-8.867H7.782v9.867a1 1 0 0 1-1-1V8.478a1 1 0 0 1 1-1h8.434l.101.004a1 1 0 0 1 .899.996v8.867l-.006.102a1 1 0 0 1-.893.893l-.101.005z"/><path fill="currentColor" d="M7.217 8.216v1H2v-1zM7.217 15.171v1H5.043v-1zM19.389 15.171v1H16.78v-1zM21.997 8.216v1h-5.216v-1zM18.454 5.173a.5.5 0 0 1 0 1h-2.478a.5.5 0 0 1 0-1zM20.324 5.173a.5.5 0 0 1 0 1h-.566a.5.5 0 0 1 0-1zM14.542 9.52a.5.5 0 0 1 0 1H9.455a.5.5 0 0 1 0-1zM14.542 11.694a.5.5 0 0 1 0 1H9.455a.5.5 0 1 1 0-1zM14.042 15.172v1H9.955v-1zm0-.174H9.955v1.174l-.103-.006a1 1 0 0 1-.893-.893l-.004-.101v-.174a1 1 0 0 1 1-1h4.085a1 1 0 0 1 1 1v.174l-.004.101a1 1 0 0 1-.893.893l-.103.006z"/></svg>