<svg xmlns="http://www.w3.org/2000/svg" width="24" height="24" fill="none" viewBox="0 0 24 24"><path fill="currentColor" d="M18.617 5.235a1.5 1.5 0 0 0-1.5-1.5H7a1.5 1.5 0 0 0-1.5 1.5v13.648a1.5 1.5 0 0 0 1.5 1.5h6.235v1H7a2.5 2.5 0 0 1-2.5-2.5V5.235a2.5 2.5 0 0 1 2.5-2.5h10.117a2.5 2.5 0 0 1 2.5 2.5v4.819h-1z"/><path fill="currentColor" d="M7 6h10v2H7zM7 10h1.324v1.323H7zM7 13.53h1.324v1.323H7zM7 17.059h1.324v1.323H7zM11 10h1.323v1.323H11zM11 13.53h1.323v1.323H11zM11 17.059h1.323v1.323H11zM20 18.506q0 .93-.566 1.54-.554.596-1.55.716-.045 0-.045.048l.012.835q0 .12-.113.12h-.747q-.113 0-.113-.12l.011-.847q0-.048-.045-.048-1.007-.143-1.573-.74-.565-.609-.565-1.552v-.346q0-.12.113-.12h.78q.114 0 .114.12v.286q0 .609.475 1.003t1.29.394q.735 0 1.108-.346.385-.346.385-.907 0-.37-.193-.633a1.8 1.8 0 0 0-.565-.477 10 10 0 0 0-1.086-.538 10 10 0 0 1-1.245-.608 2.5 2.5 0 0 1-.758-.717q-.294-.453-.294-1.134 0-.906.532-1.468.531-.573 1.448-.704.045 0 .045-.048l-.011-.92q0-.118.113-.118h.735q.114 0 .113.119l-.011.93q0 .05.045.06.974.143 1.527.765.566.62.566 1.563v.24q0 .119-.113.119h-.792q-.113 0-.113-.12v-.179q0-.62-.441-1.027-.441-.417-1.233-.417-.667 0-1.03.31-.362.299-.362.871 0 .395.181.645.193.25.543.454.362.19 1.098.501.768.335 1.233.62.475.275.78.74.317.454.317 1.135"/></svg>