<svg xmlns="http://www.w3.org/2000/svg" width="24" height="24" fill="none" viewBox="0 0 24 24"><path fill="currentColor" d="M6.75 17.25h1.5v1.5h-1.5zm0-3.75h1.5V15h-1.5zm4.5-3.75h1.5v1.5h-1.5zm-4.5 0h1.5v1.5h-1.5zm0-4.5h10.5V7.5H6.75z"/><path fill="currentColor" d="M10.75 22.5H4.504A1.505 1.505 0 0 1 3 20.996V2.997A1.5 1.5 0 0 1 4.497 1.5h15.006A1.5 1.5 0 0 1 21 2.997V10h-1.5V3h-15v18h6.25z"/><path fill="currentColor" d="M17.5 12a5.5 5.5 0 1 1 0 11 5.5 5.5 0 0 1 0-11m-.954 6.988-1.648-1.847L14 18.147 16.546 21 21 16.006 20.102 15z"/></svg>