<svg xmlns="http://www.w3.org/2000/svg" width="24" height="24" fill="none" viewBox="0 0 24 24"><g fill="currentColor" clip-path="url(#a)"><path d="M21.13 4.96a2.52 2.52 0 1 0-5.04.001 2.52 2.52 0 0 0 5.04-.001m1.5 0a4.02 4.02 0 1 1-8.042-.001 4.02 4.02 0 0 1 8.042 0"/><path d="m16.37 9.076.088.029.079.049 3.936 2.452 1.63-2.487a.75.75 0 0 1 1.254.822l-2.432 3.713-5.103-3.179-4.203-1.354-2.338 3.644a.75.75 0 1 1-1.262-.81l2.961-4.616z"/><path d="M15.057 9.918a.75.75 0 0 1 1.266.804l-7.42 11.67a.75.75 0 1 1-1.266-.804z"/><path d="M12.246 14.674a.75.75 0 0 1 1.03-.258l5.528 3.318-2.812 4.947a.75.75 0 1 1-1.304-.742l2.088-3.673-4.272-2.562a.75.75 0 0 1-.258-1.03M10.93 3.79a.75.75 0 0 1 0 1.5H3.38a.75.75 0 0 1 0-1.5zM8.27 16.83a.75.75 0 0 1 0 1.5H2.61a.75.75 0 0 1 0-1.5zM6.14 10.16a.75.75 0 0 1 0 1.5H1.5a.75.75 0 0 1 0-1.5z"/></g><defs><clipPath id="a"><path fill="currentColor" d="M0 0h24v24H0z"/></clipPath></defs></svg>