<svg xmlns="http://www.w3.org/2000/svg" width="24" height="24" fill="none" viewBox="0 0 24 24"><path fill="currentColor" d="M20.997 3.5a1.5 1.5 0 0 1 1.5 1.5v4.955l-.002.045h-1.002q.003-.022.004-.045V5a.5.5 0 0 0-.5-.5H3a.5.5 0 0 0-.5.5v4.955a.5.5 0 0 0 .5.5h4.208v1H3a1.5 1.5 0 0 1-1.5-1.5V5A1.5 1.5 0 0 1 3 3.5z"/><path fill="currentColor" d="M3.87 20.519h-1v-9.564h1zM5.608 20.519h-1v-9.564h1z"/><path fill="currentColor" d="M5.668 19.665a.5.5 0 1 1 0 1H2.502a.5.5 0 0 1 0-1zM7.217 8.216v1H2v-1zM7.217 15.171v1H5.043v-1zM21.997 8.216v1h-5.216v-1zM18.454 5.173a.5.5 0 0 1 0 1h-2.478a.5.5 0 0 1 0-1zM20.324 5.173a.5.5 0 0 1 0 1h-.566a.5.5 0 0 1 0-1z"/><path fill="currentColor" d="M16.317 7.482a1 1 0 0 1 .899.996V10h-1V8.478H7.782v8.867H10v1H7.782a1 1 0 0 1-1-1V8.478a1 1 0 0 1 1-1h8.434z"/><path fill="currentColor" d="M17.5 12a5.5 5.5 0 1 1 0 11 5.5 5.5 0 0 1 0-11m-1.324 2.951L18.4 16.9H14v1.2h4.402l-2.226 1.95.79.902 3.428-3 .517-.451-.517-.451-3.427-3z"/></svg>