<svg xmlns="http://www.w3.org/2000/svg" width="24" height="24" fill="none" viewBox="0 0 24 24"><path fill="currentColor" d="M6.75 17.25h1.5v1.5h-1.5zm4.5-3.75h1.5V15h-1.5zm-4.5 0h1.5V15h-1.5zm4.5-3.75h1.5v1.5h-1.5zm-4.5 0h1.5v1.5h-1.5zm0-4.5h10.5V7.5H6.75z"/><path fill="currentColor" d="M11.75 22.5H4.504A1.505 1.505 0 0 1 3 20.996V2.997A1.5 1.5 0 0 1 4.497 1.5h15.006A1.5 1.5 0 0 1 21 2.997V8h-1.5V3h-15v18h7.25z"/><path fill="currentColor" d="M21 15h-4.5v-2.25c0-.826.673-1.5 1.5-1.5s1.5.674 1.5 1.5H21c0-1.655-1.346-3-3-3s-3 1.345-3 3V15c-.827 0-1.5.674-1.5 1.5V21c0 .827.673 1.5 1.5 1.5h6c.827 0 1.5-.673 1.5-1.5v-4.5c0-.826-.673-1.5-1.5-1.5m0 6h-6v-4.5h6z"/></svg>