<svg xmlns="http://www.w3.org/2000/svg" width="24" height="24" fill="none" viewBox="0 0 24 24"><path fill="currentColor" d="M12 6a3.75 3.75 0 1 0 0 7.5A3.75 3.75 0 0 0 12 6m0 6a2.25 2.25 0 1 1 0-4.5 2.25 2.25 0 0 1 0 4.5"/><path fill="currentColor" d="M12 1.5A10.5 10.5 0 1 0 22.5 12 10.51 10.51 0 0 0 12 1.5M7.5 19.783V18.75a2.25 2.25 0 0 1 2.25-2.25h4.5a2.25 2.25 0 0 1 2.25 2.25v1.033a8.93 8.93 0 0 1-9 0m10.495-1.088A3.75 3.75 0 0 0 14.25 15h-4.5a3.75 3.75 0 0 0-3.744 3.695 9 9 0 1 1 11.989 0"/></svg>