<svg xmlns="http://www.w3.org/2000/svg" width="24" height="24" fill="none" viewBox="0 0 24 24"><path fill="currentColor" d="M16.5 19.5a1.5 1.5 0 1 0 0-3 1.5 1.5 0 0 0 0 3"/><path fill="currentColor" d="M22.333 17.61A6.48 6.48 0 0 0 16.5 13.5a6.48 6.48 0 0 0-5.833 4.11L10.5 18l.167.392A6.48 6.48 0 0 0 16.5 22.5a6.48 6.48 0 0 0 5.833-4.108L22.5 18zM16.5 21a3 3 0 1 1 0-5.999 3 3 0 0 1 0 5.999"/><path fill="currentColor" d="M9 21H6V3h6v4.5A1.504 1.504 0 0 0 13.5 9H18v3h1.5V7.5a.68.68 0 0 0-.225-.525l-5.25-5.25A.68.68 0 0 0 13.5 1.5H6A1.505 1.505 0 0 0 4.5 3v18A1.504 1.504 0 0 0 6 22.5h3zm4.5-17.7 4.2 4.2h-4.2z"/></svg>