<svg xmlns="http://www.w3.org/2000/svg" width="32" height="32" fill="none" viewBox="0 0 32 32"><rect width="27.6" height="18.4" x="2.2" y="5" stroke="currentColor" stroke-width="1.2" rx="2"/><path stroke="currentColor" stroke-width="1.2" d="M2.2 19.12h27.6"/><path stroke="currentColor" stroke-linecap="round" stroke-width="1.2" d="M4.64 21.144h2.48M6.48 27.4h19.04"/><path stroke="currentColor" stroke-width="1.2" d="M10.94 27.54v-1.38h10.12v1.38"/><path stroke="currentColor" stroke-linecap="round" stroke-width="1.2" d="M4.64 7.16h3.4M4.64 9h.64M26.72 16.36h.64M25.8 14.52h1.56M25.8 7.16h1.56M26.72 12.68h.64M26.72 10.84h.64M26.72 9h.64M9.24 21.144h.64"/><path stroke="currentColor" stroke-width="1.2" d="m13.809 23.59-.92 2.76M18.191 23.59l.92 2.76M19.34 7.98l.802.856a.4.4 0 0 1-.018.566l-7.475 7.003h-1.333v-1.457l7.457-6.987a.4.4 0 0 1 .566.019ZM17.215 8.6l2.17 2.316M12.004 13.482l2.17 2.316"/></svg>