<svg xmlns="http://www.w3.org/2000/svg" width="32" height="32" fill="none" viewBox="0 0 32 32"><path fill="currentColor" d="M28.797 13.182V6a.4.4 0 0 0-.4-.4H4a.4.4 0 0 0-.4.4v7.182c0 .22.18.4.4.4h5.874v1.2H4a1.6 1.6 0 0 1-1.6-1.6V6A1.6 1.6 0 0 1 4 4.4h24.398a1.6 1.6 0 0 1 1.6 1.6v7.182a1.6 1.6 0 0 1-1.6 1.6h-5.875v-1.2h5.875a.4.4 0 0 0 .399-.4"/><path fill="currentColor" d="M5.348 26.807h-1.2V14.182h1.2zM26.253 26.807h-1.2V14.182h1.2zM7.644 26.807h-1.2V14.182h1.2zM28.55 26.807h-1.201V14.182h1.2z"/><path fill="currentColor" d="M7.903 25.8a.6.6 0 0 1 0 1.2h-4.3a.6.6 0 0 1 0-1.2zM28.803 25.8a.6.6 0 0 1 0 1.2h-4.3a.6.6 0 0 1 0-1.2zM10.513 22.737h11.372V10.791H10.513zm12.572.2-.005.102a1 1 0 0 1-.892.893l-.103.006H10.313l-.103-.006a1 1 0 0 1-.892-.893l-.005-.102V10.592a1 1 0 0 1 1-1h11.772l.103.005a1 1 0 0 1 .897.995z"/><path fill="currentColor" d="M9.886 10.686v1.2H3v-1.2zM9.886 19.868v1.2H7.017v-1.2zM25.954 19.868v1.2h-3.443v-1.2zM29.397 10.686v1.2H22.51v-1.2zM24.78 6.67a.6.6 0 0 1 0 1.2h-3.39a.6.6 0 0 1 0-1.2zM27.128 6.67a.601.601 0 0 1 0 1.2h-.626a.6.6 0 0 1 0-1.2zM19.616 12.408a.601.601 0 0 1 0 1.2h-6.834a.6.6 0 0 1 0-1.2zM19.616 15.277a.601.601 0 0 1 0 1.2h-6.834a.6.6 0 0 1 0-1.2zM13.382 19.868h5.634v-.47h-5.634zm6.834.2-.006.102a1 1 0 0 1-.892.893l-.102.005h-6.034l-.103-.005a1 1 0 0 1-.897-.995v-.87a1 1 0 0 1 .897-.995l.103-.004h6.034l.102.004a1 1 0 0 1 .898.996z"/></svg>