<svg xmlns="http://www.w3.org/2000/svg" width="32" height="32" fill="none" viewBox="0 0 32 32"><path fill="currentColor" d="M24.283 6.765a1.4 1.4 0 0 0-1.4-1.4H9a1.4 1.4 0 0 0-1.4 1.4v18.352a1.4 1.4 0 0 0 1.4 1.4h8.432v1.2H9a2.6 2.6 0 0 1-2.6-2.6V6.765a2.6 2.6 0 0 1 2.6-2.6h13.882a2.6 2.6 0 0 1 2.6 2.6v6.637h-1.2z"/><path fill="currentColor" d="M10 8h12v3H10zM10 13.706h1.676v1.676H10zM10 18.177h1.676v1.676H10zM10 22.647h1.676v1.676H10zM14.824 13.706H16.5v1.676h-1.677zM14.824 18.177H16.5v1.676h-1.677zM14.824 22.647H16.5v1.676h-1.677zM26 24.107q0 1.18-.716 1.95-.703.757-1.963.908-.058 0-.058.06l.014 1.059q0 .15-.143.151h-.945q-.144 0-.144-.151l.015-1.074q0-.06-.058-.06-1.275-.181-1.991-.937-.717-.772-.717-1.966v-.439q0-.15.143-.15h.99q.142 0 .142.15v.363q0 .771.602 1.27.602.5 1.634.5.93 0 1.404-.44.487-.438.487-1.148 0-.47-.244-.802-.242-.332-.716-.604-.473-.288-1.376-.68-1.002-.424-1.576-.772a3.1 3.1 0 0 1-.96-.907q-.372-.575-.372-1.437 0-1.149.673-1.86.674-.724 1.834-.892.057 0 .058-.06l-.015-1.164q0-.152.144-.152h.93q.144 0 .144.152l-.014 1.18q0 .06.057.075 1.233.18 1.935.967.716.787.716 1.981v.303q0 .15-.143.15h-1.003q-.144 0-.144-.15v-.227q0-.787-.558-1.3-.559-.53-1.562-.53-.845 0-1.304.393-.459.378-.459 1.104 0 .5.23.817.243.317.687.574.46.242 1.39.635.974.424 1.562.787.601.347.989.937.4.575.401 1.436"/></svg>