<svg width="32" height="32" viewBox="0 0 32 32" fill="none" xmlns="http://www.w3.org/2000/svg">
<path d="M24.2825 6.76489C24.2825 5.99169 23.6553 5.3645 22.8821 5.3645H9.00024C8.22705 5.3645 7.59985 5.99169 7.59985 6.76489V25.1174C7.59985 25.8906 8.22705 26.5178 9.00024 26.5178H17.4319V27.717H9.00024C7.5643 27.717 6.40063 26.5534 6.40063 25.1174V6.76489C6.40064 5.32895 7.5643 4.16528 9.00024 4.16528H22.8821C24.318 4.16528 25.4827 5.32895 25.4827 6.76489V13.4016H24.2825V6.76489Z" fill="#27292A"/>
<path d="M10 8H22V11H10V8Z" fill="#27292A"/>
<path d="M10 13.7059H11.6764V15.3824H10V13.7059Z" fill="#27292A"/>
<path d="M10 18.1765H11.6764V19.8529H10V18.1765Z" fill="#27292A"/>
<path d="M10 22.647H11.6764V24.3234H10V22.647Z" fill="#27292A"/>
<path d="M14.8235 13.7059H16.4999V15.3824H14.8235V13.7059Z" fill="#27292A"/>
<path d="M14.8235 18.1765H16.4999V19.8529H14.8235V18.1765Z" fill="#27292A"/>
<path d="M14.8235 22.647H16.4999V24.3234H14.8235V22.647Z" fill="#27292A"/>
<path d="M26 24.1073C26 24.8936 25.7612 25.5437 25.2835 26.0578C24.8155 26.5618 24.1611 26.8642 23.3205 26.965C23.2823 26.965 23.2632 26.9852 23.2632 27.0255L23.2775 28.0839C23.2775 28.1847 23.2298 28.2351 23.1343 28.2351H22.1886C22.093 28.2351 22.0453 28.1847 22.0453 28.0839L22.0596 27.0104C22.0596 26.9701 22.0405 26.9499 22.0023 26.9499C21.1521 26.8289 20.4882 26.5165 20.0106 26.0125C19.533 25.4984 19.2942 24.8432 19.2942 24.0468V23.6084C19.2942 23.5076 19.342 23.4572 19.4375 23.4572H20.4261C20.5217 23.4572 20.5694 23.5076 20.5694 23.6084V23.9712C20.5694 24.4853 20.77 24.9087 21.1712 25.2413C21.5724 25.574 22.1169 25.7403 22.8047 25.7403C23.4256 25.7403 23.8937 25.5941 24.2089 25.3018C24.5337 25.0095 24.6961 24.6264 24.6961 24.1527C24.6961 23.8402 24.6149 23.5731 24.4525 23.3513C24.2901 23.1295 24.0513 22.9279 23.7361 22.7465C23.4208 22.555 22.9623 22.3282 22.3605 22.0661C21.6918 21.7839 21.1665 21.5268 20.7844 21.295C20.4023 21.0631 20.0823 20.7607 19.8243 20.3878C19.576 20.0047 19.4518 19.5259 19.4518 18.9513C19.4518 18.1853 19.6763 17.5653 20.1252 17.0916C20.5742 16.6077 21.1856 16.3104 21.9593 16.1995C21.9975 16.1995 22.0166 16.1793 22.0166 16.139L22.0023 14.9747C22.0023 14.8739 22.0501 14.8235 22.1456 14.8235H23.0769C23.1725 14.8235 23.2202 14.8739 23.2202 14.9747L23.2059 16.1541C23.2059 16.1944 23.225 16.2196 23.2632 16.2297C24.0847 16.3507 24.7295 16.6732 25.1976 17.1974C25.6752 17.7216 25.914 18.3818 25.914 19.1782V19.4806C25.914 19.5814 25.8662 19.6318 25.7707 19.6318H24.7677C24.6722 19.6318 24.6244 19.5814 24.6244 19.4806V19.2538C24.6244 18.7296 24.4382 18.2961 24.0656 17.9534C23.6931 17.6006 23.1725 17.4242 22.5038 17.4242C21.9402 17.4242 21.5056 17.5553 21.1999 17.8173C20.8942 18.0693 20.7414 18.4373 20.7414 18.9211C20.7414 19.2538 20.8178 19.5259 20.9706 19.7376C21.133 19.9493 21.3623 20.1408 21.6584 20.3122C21.9641 20.4734 22.4274 20.6851 23.0483 20.9472C23.6978 21.2295 24.2185 21.4915 24.6101 21.7335C25.0113 21.9653 25.3409 22.2778 25.5988 22.6709C25.8662 23.0539 26 23.5328 26 24.1073Z" fill="#27292A"/>
</svg>
