<svg xmlns="http://www.w3.org/2000/svg" style="display:none">
<defs>
  <symbol id="archive-24" viewBox="0 0 24 24">
    <path fill="currentColor" d="M12 15h10.5v1.5H12zm0 3h10.5v1.5H12zm0 3h5.25v1.5H12z"/><path fill="currentColor" d="M10.5 19.5H3v-15h5.377l2.566 2.558.434.442H21v6h1.5v-6A1.5 1.5 0 0 0 21 6h-9L9.443 3.443A1.5 1.5 0 0 0 8.378 3H3a1.5 1.5 0 0 0-1.5 1.5v15A1.5 1.5 0 0 0 3 21h7.5z"/>
  </symbol>
  <symbol id="archive-cabinet-24" viewBox="0 0 24 24">
    <path fill="currentColor" d="M10.5 14.25h3v1.5h-3z"/><path fill="currentColor" d="M4.5 1.5V21A1.5 1.5 0 0 0 6 22.5h12a1.5 1.5 0 0 0 1.5-1.5V1.5zM18 21H6v-9h12zm0-10.5H6v-3h12zM6 6V3h12v3z"/>
  </symbol>
  <symbol id="archive-invoice-24" viewBox="0 0 24 24">
    <path fill="currentColor" d="M20 20.557q0 .909-.591 1.5-.592.591-1.618.75-.06.023-.06.068l.011.739a.1.1 0 0 1-.048.09.12.12 0 0 1-.096.046H16.39a.16.16 0 0 1-.108-.046.12.12 0 0 1-.037-.09l.012-.75q0-.045-.06-.069-1.026-.193-1.617-.795-.58-.602-.58-1.511v-.25a.12.12 0 0 1 .036-.091.16.16 0 0 1 .109-.046h1.304q.06 0 .096.046a.1.1 0 0 1 .049.09v.171q0 .454.422.773.422.306 1.16.307.614 0 .905-.25a.81.81 0 0 0 .301-.637.62.62 0 0 0-.18-.454 1.45 1.45 0 0 0-.508-.33q-.314-.146-1.002-.398a9.5 9.5 0 0 1-1.316-.534 2.8 2.8 0 0 1-.905-.738q-.363-.478-.362-1.17 0-.876.555-1.444.567-.579 1.521-.75.06-.023.06-.068l-.024-.83q0-.056.037-.09a.16.16 0 0 1 .108-.046h1.207q.06 0 .097.046a.1.1 0 0 1 .048.09l-.012.853q0 .045.06.068 1.003.193 1.594.83.592.624.592 1.534v.17a.14.14 0 0 1-.049.102.14.14 0 0 1-.096.034H18.49a.2.2 0 0 1-.109-.034.16.16 0 0 1-.036-.102v-.091q0-.477-.398-.807-.399-.34-1.087-.34-.543 0-.845.226a.74.74 0 0 0-.302.625q0 .285.17.478.18.193.53.352t1.087.41q.81.284 1.28.51.47.229.845.682.375.455.374 1.17"/><path fill="currentColor" d="M10.5 19.5H3v-15h5.377l2.566 2.558.434.442H21v6h1.5v-6A1.5 1.5 0 0 0 21 6h-9L9.443 3.443A1.5 1.5 0 0 0 8.378 3H3a1.5 1.5 0 0 0-1.5 1.5v15A1.5 1.5 0 0 0 3 21h7.5z"/>
  </symbol>
  <symbol id="archive-quote-24" viewBox="0 0 24 24">
    <path fill="currentColor" d="M10.5 18.5H3v-15h5.377l2.566 2.558.434.442H22.5A1.5 1.5 0 0 0 21 5h-9L9.443 2.443A1.5 1.5 0 0 0 8.378 2H3a1.5 1.5 0 0 0-1.5 1.5v15A1.5 1.5 0 0 0 3 20h7.5z"/><path fill="currentColor" d="M15 10.5h5v1.8h-5zm.417 3.6h1.666v1.8h-1.666zM19.583 14.1h-1.666v1.8h1.666zM19.583 17.7h-1.666v1.8h1.666zM17.083 17.7h-1.666v1.8h1.666z"/><path fill="currentColor" d="M22.5 8v14h-10V8zm-8.7 12.7h7.4V9.3h-7.4z"/>
  </symbol>
  <symbol id="arrow-path-24" viewBox="0 0 24 24">
    <path stroke="currentColor" stroke-linecap="round" stroke-linejoin="round" stroke-width="1.5" d="M16.023 9.348h4.992l-3.181-3.183a8.25 8.25 0 0 0-13.803 3.7m3.946 4.787H2.985v4.992m0-4.992 3.18 3.183a8.25 8.25 0 0 0 13.803-3.7m1.047-9.779v4.99"/>
  </symbol>
  <symbol id="arrow-top-right-on-square-24" viewBox="0 0 24 24">
    <path stroke="currentColor" stroke-linecap="round" stroke-linejoin="round" stroke-width="1.5" d="M13.5 6H5.25A2.25 2.25 0 0 0 3 8.25v10.5A2.25 2.25 0 0 0 5.25 21h10.5A2.25 2.25 0 0 0 18 18.75V10.5m-10.5 6L21 3m0 5.25V3h-5.25"/>
  </symbol>
  <symbol id="arrow-uturn-left-24" viewBox="0 0 24 24">
    <path stroke="currentColor" stroke-linecap="round" stroke-linejoin="round" stroke-width="1.5" d="M9 3 3 9l6 6M3 9h12a6 6 0 1 1 0 12h-3"/>
  </symbol>
  <symbol id="bars-3-24" viewBox="0 0 24 24">
    <path stroke="currentColor" stroke-linecap="round" stroke-linejoin="round" stroke-width="1.5" d="M3.75 6.75h16.5M3.75 12h16.5m-16.5 5.25h16.5"/>
  </symbol>
  <symbol id="bell-24" viewBox="0 0 24 24">
    <path stroke="currentColor" stroke-linecap="round" stroke-linejoin="round" stroke-width="1.5" d="M9.143 17.082c1.898.225 3.816.225 5.714 0 1.863-.22 3.694-.66 5.454-1.31A8.97 8.97 0 0 1 18 9.75V9A6 6 0 0 0 6 9v.75a8.97 8.97 0 0 1-2.312 6.022c1.733.64 3.56 1.085 5.455 1.31m5.714 0a3 3 0 1 1-5.714 0"/>
  </symbol>
  <symbol id="bell-slash-24" viewBox="0 0 24 24">
    <path stroke="currentColor" stroke-linecap="round" stroke-linejoin="round" stroke-width="1.5" d="M5.988 10.23a8.96 8.96 0 0 1-2.3 5.542c1.76.65 3.591 1.09 5.455 1.31 1.275.151 2.56.2 3.844.148m-3.844-.148a3 3 0 0 0 5.667 1.97m1.965-2.277L21 21m-4.225-4.225a24 24 0 0 0 3.536-1.003A8.97 8.97 0 0 1 18 9.75V9A6 6 0 0 0 6.53 6.53M3 3l3.53 3.53 10.245 10.245"/>
  </symbol>
  <symbol id="building-office-2-24" viewBox="0 0 24 24">
    <path stroke="currentColor" stroke-linecap="round" stroke-linejoin="round" stroke-width="1.5" d="M2.25 21h19.5m-18-18v18m10.5-18v18m6-13.5V21M6.75 6.75h.75m-.75 3h.75m-.75 3h.75m3-6h.75m-.75 3h.75m-.75 3h.75M6.75 21v-3.375c0-.621.504-1.125 1.125-1.125h2.25c.621 0 1.125.504 1.125 1.125V21M3 3h12m-.75 4.5H21m-3.75 3.75h.008v.008h-.008zm0 3h.008v.008h-.008zm0 3h.008v.008h-.008z"/>
  </symbol>
  <symbol id="calendar-days-24" viewBox="0 0 24 24">
    <path stroke="currentColor" stroke-linecap="round" stroke-linejoin="round" stroke-width="1.5" d="M6.75 3v2.25M17.25 3v2.25M3 18.75V7.5a2.25 2.25 0 0 1 2.25-2.25h13.5A2.25 2.25 0 0 1 21 7.5v11.25m0 0v-7.5A2.25 2.25 0 0 0 18.75 9H5.25A2.25 2.25 0 0 0 3 11.25v7.5A2.25 2.25 0 0 0 5.25 21h13.5A2.25 2.25 0 0 0 21 18.75m-9-6h.008v.008H12zM12 15h.008v.008H12zm0 2.25h.008v.008H12zM9.75 15h.008v.008H9.75zm0 2.25h.008v.008H9.75zM7.5 15h.008v.008H7.5zm0 2.25h.008v.008H7.5zm6.75-4.5h.008v.008h-.008zm0 2.25h.008v.008h-.008zm0 2.25h.008v.008h-.008zm2.25-4.5h.008v.008H16.5zm0 2.25h.008v.008H16.5z"/>
  </symbol>
  <symbol id="chart-bar-24" viewBox="0 0 24 24">
    <path stroke="currentColor" stroke-linecap="round" stroke-linejoin="round" stroke-width="1.5" d="M3 13.125C3 12.504 3.504 12 4.125 12h2.25c.621 0 1.125.504 1.125 1.125v6.75C7.5 20.496 6.996 21 6.375 21h-2.25A1.125 1.125 0 0 1 3 19.875zm6.75-4.5c0-.621.504-1.125 1.125-1.125h2.25c.621 0 1.125.504 1.125 1.125v11.25c0 .621-.504 1.125-1.125 1.125h-2.25a1.125 1.125 0 0 1-1.125-1.125zm6.75-4.5c0-.621.504-1.125 1.125-1.125h2.25C20.496 3 21 3.504 21 4.125v15.75c0 .621-.504 1.125-1.125 1.125h-2.25a1.125 1.125 0 0 1-1.125-1.125z"/>
  </symbol>
  <symbol id="check-24" viewBox="0 0 24 24">
    <path stroke="currentColor" stroke-linecap="round" stroke-linejoin="round" stroke-width="1.5" d="m4.5 12.75 6 6 9-13.5"/>
  </symbol>
  <symbol id="checkmark-filled-24" viewBox="0 0 24 24">
    <path fill="currentColor" d="M12 1.5a10.5 10.5 0 1 0 0 21 10.5 10.5 0 0 0 0-21m-1.5 14.692-3.75-3.75 1.193-1.192 2.557 2.557 5.558-5.557 1.197 1.19z"/>
  </symbol>
  <symbol id="checkmark-outline-24" viewBox="0 0 24 24">
    <path fill="currentColor" d="m10.5 16.06-3.75-3.75 1.06-1.06 2.69 2.69 5.689-5.69 1.061 1.061z"/><path fill="currentColor" d="M12 1.5a10.5 10.5 0 1 0 0 21 10.5 10.5 0 0 0 0-21M12 21a9 9 0 1 1 0-18 9 9 0 0 1 0 18"/>
  </symbol>
  <symbol id="close-lg-24" viewBox="0 0 24 24">
    <path fill="currentColor" d="m13.06 12 6.44-6.44-1.06-1.06L12 10.94 5.56 4.5 4.5 5.56 10.94 12 4.5 18.44l1.06 1.06L12 13.06l6.44 6.44 1.06-1.06z"/>
  </symbol>
  <symbol id="close-sm-24" viewBox="0 0 24 24">
    <path fill="currentColor" d="M13.06 12 18 7.06 16.94 6 12 10.94 7.06 6 6 7.06 10.94 12 6 16.94 7.06 18 12 13.06 16.94 18 18 16.94z"/>
  </symbol>
  <symbol id="computer-desktop-24" viewBox="0 0 24 24">
    <path stroke="currentColor" stroke-linecap="round" stroke-linejoin="round" stroke-width="1.5" d="M9 17.25v1.007a3 3 0 0 1-.879 2.122L7.5 21h9l-.621-.621A3 3 0 0 1 15 18.257V17.25m-12-12V12a2.25 2.25 0 0 0 2.25 2.25h13.5A2.25 2.25 0 0 0 21 12V5.25A2.25 2.25 0 0 0 18.75 3H5.25A2.25 2.25 0 0 0 3 5.25V15a2.25 2.25 0 0 0 2.25 2.25h13.5A2.25 2.25 0 0 0 21 15V5.25"/>
  </symbol>
  <symbol id="copy-document-24" viewBox="0 0 24 24">
    <path fill="currentColor" d="M20.55 11.025 15.975 6.45c-.225-.3-.6-.45-.975-.45H9c-.825 0-1.5.675-1.5 1.5V21c0 .825.675 1.5 1.5 1.5h10.5c.825 0 1.5-.675 1.5-1.5v-8.925c0-.375-.15-.75-.45-1.05M15 7.5l4.425 4.5H15zM9 21V7.5h4.5V12c0 .825.675 1.5 1.5 1.5h4.5V21z"/><path fill="currentColor" d="M4.5 13.5H3V3c0-.825.675-1.5 1.5-1.5H15V3H4.5z"/>
  </symbol>
  <symbol id="copy-item-24" viewBox="0 0 24 24">
    <path fill="currentColor" d="M21 7.5V21H7.5V7.5zM21 6H7.5A1.5 1.5 0 0 0 6 7.5V21a1.5 1.5 0 0 0 1.5 1.5H21a1.5 1.5 0 0 0 1.5-1.5V7.5A1.5 1.5 0 0 0 21 6"/><path fill="currentColor" d="M3 13.5H1.5V3A1.5 1.5 0 0 1 3 1.5h10.5V3H3z"/>
  </symbol>
  <symbol id="copy-link-24" viewBox="0 0 24 24">
    <path fill="currentColor" d="M8.96 14.25a3.71 3.71 0 0 1-2.624-6.334l3.83-3.83a3.711 3.711 0 0 1 5.248 5.25L15 9.748l-1.06-1.06.417-.417a2.213 2.213 0 0 0-.003-3.125 2.265 2.265 0 0 0-3.128 0L7.397 8.975a2.21 2.21 0 0 0 0 3.128 2.265 2.265 0 0 0 3.128 0l1.06 1.06A3.7 3.7 0 0 1 8.96 14.25"/><path fill="currentColor" d="M14.96 12.75a3.711 3.711 0 0 1-2.624-6.334L12.751 6l1.06 1.061-.414.414a2.21 2.21 0 0 0 0 3.127 2.265 2.265 0 0 0 3.128 0l3.829-3.829a2.213 2.213 0 0 0 0-3.126 2.265 2.265 0 0 0-3.128 0l-1.06-1.061a3.711 3.711 0 0 1 5.248 5.249l-3.828 3.827a3.7 3.7 0 0 1-2.625 1.087"/><path fill="currentColor" d="M18 22.5H3A1.5 1.5 0 0 1 1.5 21V6A1.5 1.5 0 0 1 3 4.5h3V6H3v15h15v-7.5h1.5V21a1.5 1.5 0 0 1-1.5 1.5"/>
  </symbol>
  <symbol id="currency-dollar-24" viewBox="0 0 24 24">
    <path stroke="currentColor" stroke-linecap="round" stroke-linejoin="round" stroke-width="1.5" d="M12 6v12m-3-2.818.879.659c1.171.879 3.07.879 4.242 0s1.172-2.303 0-3.182C13.536 12.219 12.768 12 12 12c-.725 0-1.45-.22-2.003-.659-1.106-.879-1.106-2.303 0-3.182s2.9-.879 4.006 0l.415.33M21 12a9 9 0 1 1-18 0 9 9 0 0 1 18 0"/>
  </symbol>
  <symbol id="dashboard-24" viewBox="0 0 24 24">
    <path fill="currentColor" d="M13 8V4q0-.424.288-.712A.97.97 0 0 1 14 3h6q.425 0 .713.288.288.289.287.712v4a.97.97 0 0 1-.288.713A.96.96 0 0 1 20 9h-6a.97.97 0 0 1-.712-.288A.97.97 0 0 1 13 8M3 12V4q0-.424.288-.712A.97.97 0 0 1 4 3h6q.425 0 .713.288.288.289.287.712v8a.97.97 0 0 1-.288.713A.96.96 0 0 1 10 13H4a.97.97 0 0 1-.712-.288A.97.97 0 0 1 3 12m10 8v-8q0-.424.288-.712A.97.97 0 0 1 14 11h6q.425 0 .713.288T21 12v8a.97.97 0 0 1-.288.713A.96.96 0 0 1 20 21h-6a.97.97 0 0 1-.712-.288A.97.97 0 0 1 13 20M3 20v-4q0-.424.288-.712A.97.97 0 0 1 4 15h6q.425 0 .713.288T11 16v4a.97.97 0 0 1-.288.713A.96.96 0 0 1 10 21H4a.97.97 0 0 1-.712-.288A.97.97 0 0 1 3 20m2-9h4V5H5zm10 8h4v-6h-4zm0-12h4V5h-4zM5 19h4v-2H5z"/>
  </symbol>
  <symbol id="delete-24" viewBox="0 0 24 24">
    <path fill="currentColor" d="M21.75 19.5H9a.75.75 0 0 1-.53-.22l-6.75-6.75a.75.75 0 0 1 0-1.06l6.75-6.75A.75.75 0 0 1 9 4.5h12.75a.75.75 0 0 1 .75.75v13.5a.75.75 0 0 1-.75.75M9.31 18H21V6H9.31l-6 6z"/><path fill="currentColor" d="m15.31 12 3.44-3.44-1.06-1.06-3.44 3.44-3.44-3.44-1.06 1.06L13.19 12l-3.44 3.44 1.06 1.06 3.44-3.44 3.44 3.44 1.06-1.06z"/>
  </symbol>
  <symbol id="design-24x24-24" viewBox="0 0 24 24">
    <rect width="20.4" height="13.6" x="2" y="4" stroke="currentColor" rx="2"/><path stroke="currentColor" d="M2 14.38h20.4"/><path stroke="currentColor" stroke-linecap="round" d="M3.86 15.876h1.72M5.22 20.5h13.96"/><path stroke="currentColor" d="M8.46 20.66v-1.02h7.48v1.02"/><path stroke="currentColor" stroke-linecap="round" d="M3.86 5.54h2.4M3.86 6.9h.36M20.18 12.34h.36M19.5 10.98h1.04M19.5 5.54h1.04M20.18 9.62h.36M20.18 8.26h.36M20.18 6.9h.36M7.26 15.876h.36"/><path stroke="currentColor" d="m10.634 17.758-.68 2.04M13.766 17.758l.68 2.04M14.805 6.432l.236.252a.5.5 0 0 1-.023.707L9.7 12.374l-.907-.001.002-.996 5.303-4.968a.5.5 0 0 1 .707.023ZM13.139 6.622l1.604 1.712M9.287 10.231l1.604 1.712"/>
  </symbol>
  <symbol id="design-32x32-32" viewBox="0 0 32 32">
    <rect width="27.6" height="18.4" x="2.2" y="5" stroke="currentColor" stroke-width="1.2" rx="2"/><path stroke="currentColor" stroke-width="1.2" d="M2.2 19.12h27.6"/><path stroke="currentColor" stroke-linecap="round" stroke-width="1.2" d="M4.64 21.144h2.48M6.48 27.4h19.04"/><path stroke="currentColor" stroke-width="1.2" d="M10.94 27.54v-1.38h10.12v1.38"/><path stroke="currentColor" stroke-linecap="round" stroke-width="1.2" d="M4.64 7.16h3.4M4.64 9h.64M26.72 16.36h.64M25.8 14.52h1.56M25.8 7.16h1.56M26.72 12.68h.64M26.72 10.84h.64M26.72 9h.64M9.24 21.144h.64"/><path stroke="currentColor" stroke-width="1.2" d="m13.809 23.59-.92 2.76M18.191 23.59l.92 2.76M19.34 7.98l.802.856a.4.4 0 0 1-.018.566l-7.475 7.003h-1.333v-1.457l7.457-6.987a.4.4 0 0 1 .566.019ZM17.215 8.6l2.17 2.316M12.004 13.482l2.17 2.316"/>
  </symbol>
  <symbol id="design-48x48-48" viewBox="0 0 48 48">
    <rect width="42.001" height="28.001" x="2.998" y="7" stroke="currentColor" stroke-width="1.5" rx="2"/><path stroke="currentColor" stroke-width="1.5" d="M2.998 28.65h42.001"/><path stroke="currentColor" stroke-linecap="round" stroke-width="1.5" d="M6.547 31.73h4.101M9.347 41.25h29.301"/><path stroke="currentColor" stroke-width="1.5" d="M16.297 41.3v-2.1h15.4v2.1"/><path stroke="currentColor" stroke-linecap="round" stroke-width="1.5" d="M6.547 10.45h5.501M6.547 13.25h1.301M40.148 24.45h1.3M38.747 21.65h2.7M38.747 10.45h2.7M40.148 18.85h1.3M40.148 16.05h1.3M40.148 13.25h1.3M13.547 31.73h1.301"/><path stroke="currentColor" stroke-width="1.5" d="m20.508 35.237-1.4 4.201M27.486 35.237l1.4 4.2M28.84 11.043l1.935 2.065a.25.25 0 0 1-.011.353L18.962 24.518h-2.256v-2.45l11.781-11.037a.25.25 0 0 1 .354.012ZM25.727 12.589l3.302 3.525M17.797 20.019l3.302 3.525"/>
  </symbol>
  <symbol id="down-24" viewBox="0 0 24 24">
    <path fill="currentColor" d="M12 16.5 4.5 9l1.05-1.05L12 14.4l6.45-6.45L19.5 9z"/>
  </symbol>
  <symbol id="download-24" viewBox="0 0 24 24">
    <path fill="currentColor" d="M19.5 18v3h-15v-3H3v3a1.5 1.5 0 0 0 1.5 1.5h15A1.5 1.5 0 0 0 21 21v-3zm0-7.5-1.058-1.057-5.692 5.685V1.5h-1.5v13.628L5.558 9.442 4.5 10.5 12 18z"/>
  </symbol>
  <symbol id="due-soon-24" viewBox="0 0 24 24">
    <path stroke="currentColor" stroke-linecap="round" stroke-linejoin="round" stroke-width="1.5" d="M6.75 3v2.25M17.25 3v2.25M3 18.75V7.5a2.25 2.25 0 0 1 2.25-2.25h13.5A2.25 2.25 0 0 1 21 7.5v11.25m0 0v-7.5A2.25 2.25 0 0 0 18.75 9H5.25A2.25 2.25 0 0 0 3 11.25v7.5A2.25 2.25 0 0 0 5.25 21h13.5A2.25 2.25 0 0 0 21 18.75"/>
  </symbol>
  <symbol id="edit-24" viewBox="0 0 24 24">
    <path fill="currentColor" d="M18.618 9.455a1.23 1.23 0 0 0 0-1.782l-2.29-2.291a1.23 1.23 0 0 0-1.782 0L3 16.927V21h4.073zm-3.182-3.182 2.291 2.29-1.909 1.91-2.29-2.291zM4.273 19.727v-2.29l8.363-8.364 2.291 2.29-8.363 8.364z"/>
  </symbol>
  <symbol id="edit-pen-24" viewBox="0 0 24 24">
    <path fill="currentColor" d="M21.621 2.379a3.07 3.07 0 0 0-4.242 0L3.038 16.719A5.21 5.21 0 0 0 1.5 20.431V22.5h2.067a5.2 5.2 0 0 0 3.713-1.538L21.62 6.622a3 3 0 0 0 0-4.243M8.183 13.695l2.121 2.122-1.591 1.59-2.121-2.12zm-1.965 6.207A3.73 3.73 0 0 1 3.567 21H3v-.57a3.73 3.73 0 0 1 1.098-2.65l1.433-1.433 2.121 2.121zM20.561 5.56l-9.195 9.196-2.122-2.122L18.44 3.44a1.535 1.535 0 0 1 2.121 0 1.5 1.5 0 0 1 0 2.121"/>
  </symbol>
  <symbol id="exclamation-circle-24" viewBox="0 0 24 24">
    <path stroke="currentColor" stroke-linecap="round" stroke-linejoin="round" stroke-width="1.5" d="M12 9v3.75m9-.75a9 9 0 1 1-18 0 9 9 0 0 1 18 0m-9 3.75h.008v.008H12z"/>
  </symbol>
  <symbol id="file-ai-24" viewBox="0 0 24 24">
    <path fill="currentColor" d="M17.5 10.5v-3a.68.68 0 0 0-.225-.525l-5.25-5.25A.68.68 0 0 0 11.5 1.5H4A1.505 1.505 0 0 0 2.5 3v18A1.5 1.5 0 0 0 4 22.5h12V21H4V3h6v4.5A1.504 1.504 0 0 0 11.5 9H16v1.5zm-6-3V3.3l4.2 4.2z"/><path fill="currentColor" d="M15.352 19c-.071 0-.122-.03-.142-.101l-.232-.99c-.01-.03-.02-.04-.05-.04h-1.89c-.03 0-.04.01-.05.04l-.232.99c-.02.07-.06.101-.131.101h-1.223c-.08 0-.12-.04-.1-.131l1.818-6.838c.02-.07.07-.101.14-.101h1.465c.071 0 .122.03.142.101l1.818 6.838c.02.09-.02.131-.101.131zm-2.091-2.293c-.01.04.02.06.05.06h1.334c.03 0 .06-.02.05-.06l-.697-2.929c-.01-.05-.05-.05-.06 0zM18.171 19a.117.117 0 0 1-.121-.121V12.05c0-.07.05-.121.121-.121h1.182c.07 0 .12.05.12.121v6.828c0 .07-.05.121-.12.121z"/>
  </symbol>
  <symbol id="file-eps-24" viewBox="0 0 24 24">
    <path fill="currentColor" d="M16.5 10.5v-3a.68.68 0 0 0-.225-.525l-5.25-5.25A.68.68 0 0 0 10.5 1.5H3A1.505 1.505 0 0 0 1.5 3v18A1.5 1.5 0 0 0 3 22.5h12V21H3V3h6v4.5A1.505 1.505 0 0 0 10.5 9H15v1.5zm-6-3V3.3l4.2 4.2z"/><path fill="currentColor" d="M9.854 13.03c0 .072-.05.122-.12.122H7.025c-.03 0-.05.02-.05.05v1.576c0 .03.02.05.05.05h1.687c.07 0 .121.051.121.122v.98c0 .07-.05.12-.12.12H7.025c-.03 0-.05.021-.05.051v1.626c0 .03.02.05.05.05h2.707c.07 0 .121.051.121.122v.98c0 .07-.05.121-.12.121H5.672a.117.117 0 0 1-.121-.121V12.05c0-.07.05-.121.121-.121h4.06c.07 0 .121.05.121.121zM13.851 11.92c1.233 0 2.06.879 2.06 2.171 0 1.273-.827 2.111-2.06 2.111h-1.09c-.03 0-.05.02-.05.05v2.627c0 .07-.051.121-.122.121h-1.182a.117.117 0 0 1-.121-.121V12.04c0-.07.05-.121.121-.121zm-.232 3.151c.515 0 .869-.364.869-.95 0-.605-.354-.969-.869-.969h-.858c-.03 0-.05.02-.05.05v1.819c0 .03.02.05.05.05zM19.409 19.08c-1.414 0-2.323-.797-2.323-1.979v-.262c0-.071.05-.122.121-.122h1.162c.07 0 .12.05.12.122v.192c0 .464.364.828.97.828.546 0 .808-.324.808-.717 0-.475-.404-.687-1.232-1.111-.899-.455-1.919-.98-1.919-2.243 0-1.191.91-1.939 2.212-1.939 1.364 0 2.313.828 2.313 2.05v.203c0 .07-.05.12-.121.12h-1.162a.117.117 0 0 1-.12-.12v-.182c0-.465-.344-.849-.94-.849-.475 0-.778.263-.778.707 0 .475.343.687 1.263 1.142.98.555 1.898.98 1.898 2.161 0 1.232-.909 2-2.272 2"/>
  </symbol>
  <symbol id="file-gen-24" viewBox="0 0 24 24">
    <path fill="currentColor" d="M16.5 10.5v-3a.68.68 0 0 0-.225-.525l-5.25-5.25A.68.68 0 0 0 10.5 1.5H3A1.505 1.505 0 0 0 1.5 3v18A1.5 1.5 0 0 0 3 22.5h12V21H3V3h6v4.5A1.505 1.505 0 0 0 10.5 9H15v1.5zm-6-3V3.3l4.2 4.2z"/><path fill="currentColor" d="M9.621 13.03c0 .072-.05.122-.121.122H7.4c-.031 0-.051.02-.051.05v1.596c0 .03.02.05.05.05h1.202c.07 0 .121.051.121.122v.98c0 .07-.05.121-.12.121H7.398c-.03 0-.05.02-.05.05v2.758c0 .07-.05.121-.122.121H6.046a.117.117 0 0 1-.121-.121V12.05c0-.07.05-.121.12-.121H9.5c.07 0 .121.05.121.121zM10.7 19a.117.117 0 0 1-.12-.121V12.05c0-.07.05-.121.12-.121h1.183c.07 0 .12.05.12.121v6.828c0 .07-.05.121-.12.121zM13.433 19a.117.117 0 0 1-.122-.121V12.05c0-.07.05-.121.122-.121h1.181c.071 0 .121.05.121.121v5.676c0 .03.02.05.051.05h2.121c.07 0 .121.051.121.122v.98c0 .07-.05.121-.121.121zM21.723 13.03c0 .072-.051.122-.122.122h-2.11c-.03 0-.051.02-.051.05v1.596c0 .03.02.05.05.05h1.212c.071 0 .122.051.122.122v.98c0 .07-.05.121-.122.121H19.49c-.03 0-.05.02-.05.05v1.606c0 .03.02.05.05.05h2.111c.071 0 .122.051.122.122v.98c0 .07-.051.121-.122.121h-3.464a.117.117 0 0 1-.121-.121V12.05c0-.07.05-.121.121-.121h3.464c.071 0 .122.05.122.121z"/>
  </symbol>
  <symbol id="file-jpg-24" viewBox="0 0 24 24">
    <path fill="currentColor" d="M16.5 10.5v-3a.68.68 0 0 0-.225-.525l-5.25-5.25A.68.68 0 0 0 10.5 1.5H3A1.505 1.505 0 0 0 1.5 3v18A1.5 1.5 0 0 0 3 22.5h12V21H3V3h6v4.5A1.505 1.505 0 0 0 10.5 9H15v1.5zm-6-3V3.3l4.2 4.2z"/><path fill="currentColor" d="M7.194 19.08c-1.363 0-2.262-.837-2.262-2.1v-.667c0-.07.05-.12.12-.12h1.183c.07 0 .12.05.12.12v.677c0 .515.324.869.839.869.495 0 .848-.354.848-.869v-4.939c0-.07.05-.121.122-.121h1.181c.071 0 .122.05.122.121v4.929c0 1.262-.92 2.1-2.273 2.1M13.644 11.92c1.233 0 2.06.879 2.06 2.171 0 1.273-.827 2.111-2.06 2.111h-1.09c-.03 0-.05.02-.05.05v2.627c0 .07-.051.121-.122.121H11.2a.117.117 0 0 1-.121-.121V12.04c0-.07.05-.121.121-.121zm-.232 3.151c.515 0 .869-.364.869-.95 0-.605-.354-.969-.869-.969h-.858c-.03 0-.05.02-.05.05v1.819c0 .03.02.05.05.05zM19.273 19.08c-1.394 0-2.313-.878-2.313-2.201v-2.838c0-1.323.919-2.192 2.313-2.192 1.383 0 2.313.879 2.313 2.101v.222c0 .07-.051.121-.122.121h-1.181a.117.117 0 0 1-.122-.12v-.213c0-.505-.343-.889-.888-.889-.536 0-.9.384-.9.95v2.888c0 .566.384.95.93.95.525 0 .869-.334.869-.869v-.626c0-.03-.02-.05-.051-.05h-.788a.117.117 0 0 1-.121-.122v-.919c0-.07.05-.121.121-.121h2.131c.071 0 .122.05.122.121v1.606c0 1.363-.93 2.202-2.313 2.202"/>
  </symbol>
  <symbol id="file-pdf-24" viewBox="0 0 24 24">
    <path fill="currentColor" d="M16.5 10.5v-3a.68.68 0 0 0-.225-.525l-5.25-5.25A.68.68 0 0 0 10.5 1.5H3A1.505 1.505 0 0 0 1.5 3v18A1.5 1.5 0 0 0 3 22.5h12V21H3V3h6v4.5A1.505 1.505 0 0 0 10.5 9H15v1.5zm-6-3V3.3l4.2 4.2z"/><path fill="currentColor" d="M8.028 11.92c1.232 0 2.06.879 2.06 2.171 0 1.273-.828 2.111-2.06 2.111H6.937c-.03 0-.05.02-.05.05v2.627c0 .07-.051.121-.122.121H5.584a.117.117 0 0 1-.122-.121V12.04c0-.07.05-.121.122-.121zm-.233 3.151c.516 0 .87-.364.87-.95 0-.605-.354-.969-.87-.969h-.858c-.03 0-.05.02-.05.05v1.819c0 .03.02.05.05.05zM11.586 19a.117.117 0 0 1-.122-.121V12.05c0-.07.05-.121.121-.121h2.172c1.374 0 2.283.808 2.283 2.05v2.97c0 1.242-.91 2.05-2.283 2.05zm1.302-1.273c0 .03.02.05.05.05l.83-.01c.494 0 .827-.383.848-.979v-2.646c0-.606-.334-.99-.849-.99h-.828c-.03 0-.05.02-.05.05zM21.876 13.03c0 .072-.05.122-.12.122h-2.698c-.03 0-.05.02-.05.05v1.576c0 .03.02.05.05.05h1.677c.07 0 .121.051.121.122v.98c0 .07-.05.12-.12.12h-1.678c-.03 0-.05.021-.05.051v2.778c0 .07-.05.121-.121.121h-1.182a.117.117 0 0 1-.121-.121V12.05c0-.07.05-.121.121-.121h4.05c.07 0 .121.05.121.121z"/>
  </symbol>
  <symbol id="file-png-24" viewBox="0 0 24 24">
    <path fill="currentColor" d="M16.5 10.5v-3a.68.68 0 0 0-.225-.525l-5.25-5.25A.68.68 0 0 0 10.5 1.5H3A1.505 1.505 0 0 0 1.5 3v18A1.5 1.5 0 0 0 3 22.5h12V21H3V3h6v4.5A1.505 1.505 0 0 0 10.5 9H15v1.5zm-6-3V3.3l4.2 4.2z"/><path fill="currentColor" d="M7.081 11.92c1.232 0 2.06.879 2.06 2.171 0 1.273-.828 2.111-2.06 2.111h-1.09c-.031 0-.051.02-.051.05v2.627c0 .07-.05.121-.121.121H4.637a.117.117 0 0 1-.121-.121V12.04c0-.07.05-.121.12-.121zm-.232 3.151c.515 0 .868-.364.868-.95 0-.605-.353-.969-.868-.969H5.99c-.03 0-.05.02-.05.05v1.819c0 .03.02.05.05.05zM13.992 12.051c0-.07.05-.121.121-.121h1.172c.07 0 .121.05.121.121v6.828c0 .07-.05.121-.121.121h-1.232c-.061 0-.112-.02-.142-.09l-1.929-4.112c-.02-.04-.06-.04-.06.01l.01 4.07c0 .072-.05.122-.122.122H10.64a.117.117 0 0 1-.121-.121V12.05c0-.07.05-.121.12-.121h1.223c.06 0 .111.02.141.09l1.93 4.112c.02.04.06.04.06-.01zM19.273 19.08c-1.394 0-2.313-.878-2.313-2.201v-2.838c0-1.323.919-2.192 2.313-2.192 1.383 0 2.313.879 2.313 2.101v.222c0 .07-.05.121-.122.121h-1.181a.117.117 0 0 1-.122-.12v-.213c0-.505-.343-.889-.888-.889-.536 0-.9.384-.9.95v2.888c0 .566.385.95.93.95.525 0 .869-.334.869-.869v-.626c0-.03-.02-.05-.05-.05h-.789a.117.117 0 0 1-.12-.122v-.919c0-.07.05-.121.12-.121h2.131c.071 0 .122.05.122.121v1.606c0 1.363-.93 2.202-2.313 2.202"/>
  </symbol>
  <symbol id="file-svg-24" viewBox="0 0 24 24">
    <path fill="currentColor" d="M16.5 10.5v-3a.68.68 0 0 0-.225-.525l-5.25-5.25A.68.68 0 0 0 10.5 1.5H3A1.505 1.505 0 0 0 1.5 3v18A1.5 1.5 0 0 0 3 22.5h12V21H3V3h6v4.5A1.505 1.505 0 0 0 10.5 9H15v1.5zm-6-3V3.3l4.2 4.2z"/><path fill="currentColor" d="M7.574 19.08c-1.414 0-2.323-.797-2.323-1.979v-.262c0-.071.051-.122.122-.122h1.161c.07 0 .121.05.121.122v.192c0 .464.364.828.97.828.545 0 .808-.324.808-.717 0-.475-.404-.687-1.232-1.111-.9-.455-1.92-.98-1.92-2.243 0-1.191.91-1.939 2.213-1.939 1.363 0 2.313.828 2.313 2.05v.203c0 .07-.05.12-.122.12H8.524a.117.117 0 0 1-.121-.12v-.182c0-.465-.344-.849-.94-.849-.474 0-.777.263-.777.707 0 .475.343.687 1.262 1.142.98.555 1.899.98 1.899 2.161 0 1.232-.909 2-2.273 2M12.745 19c-.07 0-.121-.03-.141-.101l-1.758-6.838c-.02-.09.03-.131.111-.131h1.283c.07 0 .121.04.131.111l1.02 4.697c.01.05.051.05.061 0l1.01-4.697c.01-.07.06-.111.132-.111h1.242c.08 0 .131.04.11.131L14.17 18.9c-.02.07-.07.101-.141.101zM19.273 19.08c-1.394 0-2.313-.878-2.313-2.201v-2.838c0-1.323.919-2.192 2.313-2.192 1.384 0 2.313.879 2.313 2.101v.222c0 .07-.05.121-.121.121h-1.182a.117.117 0 0 1-.121-.12v-.213c0-.505-.344-.889-.89-.889-.534 0-.898.384-.898.95v2.888c0 .566.384.95.93.95.524 0 .868-.334.868-.869v-.626c0-.03-.02-.05-.05-.05h-.789a.117.117 0 0 1-.12-.122v-.919c0-.07.05-.121.12-.121h2.132c.07 0 .12.05.12.121v1.606c0 1.363-.928 2.202-2.312 2.202"/>
  </symbol>
  <symbol id="file-xls-24" viewBox="0 0 24 24">
    <path fill="currentColor" d="M16.5 10.5v-3a.68.68 0 0 0-.225-.525l-5.25-5.25A.68.68 0 0 0 10.5 1.5H3A1.505 1.505 0 0 0 1.5 3v18A1.5 1.5 0 0 0 3 22.5h12V21H3V3h6v4.5A1.505 1.505 0 0 0 10.5 9H15v1.5zm-6-3V3.3l4.2 4.2z"/><path fill="currentColor" d="M5.312 19c-.091 0-.132-.05-.091-.141l1.666-3.364c.01-.03.01-.03 0-.06L5.221 12.07c-.04-.09 0-.141.09-.141h1.243c.06 0 .111.02.141.09l1 2.132q.03.06.06 0l.99-2.131c.03-.07.081-.091.142-.091h1.242c.091 0 .132.05.091.141l-1.656 3.364c-.01.03-.01.03 0 .06l1.656 3.364c.04.09 0 .141-.09.141H8.896c-.06 0-.111-.02-.141-.09l-1-2.122q-.03-.06-.06 0l-1 2.121c-.031.07-.081.091-.142.091zM11.773 19a.117.117 0 0 1-.121-.121V12.05c0-.07.05-.121.121-.121h1.182c.07 0 .12.05.12.121v5.676c0 .03.021.05.051.05h2.707c.07 0 .121.051.121.122v.98c0 .07-.05.121-.12.121zM19.409 19.08c-1.414 0-2.323-.797-2.323-1.979v-.262c0-.071.05-.122.121-.122h1.162c.07 0 .12.05.12.122v.192c0 .464.364.828.97.828.546 0 .808-.324.808-.717 0-.475-.404-.687-1.232-1.111-.899-.455-1.919-.98-1.919-2.243 0-1.191.91-1.939 2.212-1.939 1.364 0 2.313.828 2.313 2.05v.203c0 .07-.05.12-.121.12h-1.162a.117.117 0 0 1-.12-.12v-.182c0-.465-.344-.849-.94-.849-.475 0-.778.263-.778.707 0 .475.344.687 1.263 1.142.98.555 1.898.98 1.898 2.161 0 1.232-.909 2-2.272 2"/>
  </symbol>
  <symbol id="filter-24" viewBox="0 0 24 24">
    <path fill="currentColor" d="M13.5 21h-3A1.5 1.5 0 0 1 9 19.5v-5.693L3.443 8.25A1.5 1.5 0 0 1 3 7.193V4.5A1.5 1.5 0 0 1 4.5 3h15A1.5 1.5 0 0 1 21 4.5v2.693a1.5 1.5 0 0 1-.442 1.057L15 13.807V19.5a1.5 1.5 0 0 1-1.5 1.5m-9-16.5v2.693l6 6V19.5h3v-6.307l6-6V4.5z"/>
  </symbol>
  <symbol id="has-comments-24" viewBox="0 0 24 24">
    <path stroke="currentColor" stroke-linecap="round" stroke-linejoin="round" stroke-width="1.5" d="M8.625 9.75a.375.375 0 1 1-.75 0 .375.375 0 0 1 .75 0m0 0H8.25m4.125 0a.375.375 0 1 1-.75 0 .375.375 0 0 1 .75 0m0 0H12m4.125 0a.375.375 0 1 1-.75 0 .375.375 0 0 1 .75 0m0 0h-.375m-13.5 3.01c0 1.6 1.123 2.994 2.707 3.227q1.63.24 3.293.369V21l4.184-4.183a1.14 1.14 0 0 1 .778-.332 48 48 0 0 0 5.83-.498c1.585-.233 2.708-1.626 2.708-3.228V6.741c0-1.602-1.123-2.995-2.707-3.228A48.4 48.4 0 0 0 12 3c-2.392 0-4.744.175-7.043.513C3.373 3.746 2.25 5.14 2.25 6.741z"/>
  </symbol>
  <symbol id="history-order-24" viewBox="0 0 24 24">
    <path fill="currentColor" d="M6 22.5a4.5 4.5 0 1 0 0-9 4.5 4.5 0 0 0 0 9M6 15a3 3 0 1 1 0 6 3 3 0 0 1 0-6m12 1.5h-6V18h6zm0-4.5h-7.5v1.5H18z"/><path fill="currentColor" d="M12 21h7.5V3h-6v4.5A1.504 1.504 0 0 1 12 9H7.5v2.25H6V7.5a.68.68 0 0 1 .225-.525l5.25-5.25A.68.68 0 0 1 12 1.5h7.5A1.504 1.504 0 0 1 21 3v18a1.504 1.504 0 0 1-1.5 1.5H12zm0-17.7L7.8 7.5H12z"/><path stroke="currentColor" stroke-width="1.5" d="M6 16v2l1.5 1.5"/>
  </symbol>
  <symbol id="home-24" viewBox="0 0 24 24">
    <path stroke="currentColor" stroke-linecap="round" stroke-linejoin="round" stroke-width="1.5" d="m2.25 12 8.954-8.955a1.126 1.126 0 0 1 1.591 0L21.75 12M4.5 9.75v10.125c0 .621.504 1.125 1.125 1.125H9.75v-4.875c0-.621.504-1.125 1.125-1.125h2.25c.621 0 1.125.504 1.125 1.125V21h4.125c.621 0 1.125-.504 1.125-1.125V9.75M8.25 21h8.25"/>
  </symbol>
  <symbol id="invoice-24" viewBox="0 0 24 24">
    <path fill="currentColor" d="M19.5 22.5h-15A1.5 1.5 0 0 1 3 21V3a1.5 1.5 0 0 1 1.5-1.5h15A1.5 1.5 0 0 1 21 3v18a1.5 1.5 0 0 1-1.5 1.5M4.5 3v18h15V3z"/><path fill="currentColor" d="M16.5 18.5h-9V17h9zM15.13 11.647q0 .909-.592 1.5t-1.618.75q-.06.023-.06.068l.012.739a.1.1 0 0 1-.048.09.12.12 0 0 1-.097.046H11.52a.15.15 0 0 1-.109-.045.12.12 0 0 1-.036-.091l.012-.75q0-.045-.06-.069-1.027-.192-1.618-.795-.58-.602-.58-1.511v-.25q0-.057.037-.091a.16.16 0 0 1 .108-.046h1.304q.06 0 .097.046a.1.1 0 0 1 .048.09v.171q0 .454.422.773.422.307 1.16.307.615 0 .905-.25a.81.81 0 0 0 .302-.637.62.62 0 0 0-.181-.454 1.45 1.45 0 0 0-.507-.33q-.315-.147-1.002-.397a9.5 9.5 0 0 1-1.316-.535 2.8 2.8 0 0 1-.906-.738q-.362-.478-.362-1.17 0-.876.555-1.444.568-.579 1.522-.75.06-.023.06-.068l-.024-.83a.12.12 0 0 1 .036-.09.16.16 0 0 1 .109-.046h1.207q.06 0 .096.045a.1.1 0 0 1 .049.091l-.012.853q0 .045.06.068 1.002.193 1.594.83.591.624.591 1.533v.17a.14.14 0 0 1-.048.103.14.14 0 0 1-.097.034H13.62a.2.2 0 0 1-.108-.034.16.16 0 0 1-.037-.102V8.34q0-.477-.398-.807-.398-.34-1.086-.34-.544 0-.845.227a.74.74 0 0 0-.302.625q0 .284.169.477.18.193.53.352.351.16 1.087.41.81.284 1.28.51.471.228.845.682.375.455.374 1.17"/>
  </symbol>
  <symbol id="invoice-alt-24" viewBox="0 0 24 24">
    <path fill="currentColor" d="M1.5 16.5h21V18h-21zm0 3h21V21h-21zM18 7.5a1.5 1.5 0 1 0 0 3 1.5 1.5 0 0 0 0-3M12 12a3 3 0 1 1 0-5.999A3 3 0 0 1 12 12m0-4.5a1.5 1.5 0 1 0 0 3 1.5 1.5 0 0 0 0-3m-6 0a1.5 1.5 0 1 0 0 3 1.5 1.5 0 0 0 0-3"/><path fill="currentColor" d="M21 15H3a1.504 1.504 0 0 1-1.5-1.5v-9A1.504 1.504 0 0 1 3 3h18a1.504 1.504 0 0 1 1.5 1.5v9A1.5 1.5 0 0 1 21 15m0-10.5H3v9h18z"/>
  </symbol>
  <symbol id="kanban-24" viewBox="0 0 24 24">
    <path fill="currentColor" d="M6 3v3H3V3zm1.5-1.5h-6v6h6zm6 1.5v3h-3V3zM15 1.5H9v6h6zM21 3v3h-3V3zm1.5-1.5h-6v6h6zM6 10.5v3H3v-3zM7.5 9h-6v6h6zm6 1.5v3h-3v-3zM15 9H9v6h6zm6 1.5v3h-3v-3zM22.5 9h-6v6h6zM6 18v3H3v-3zm1.5-1.5h-6v6h6zm6 1.5v3h-3v-3zm1.5-1.5H9v6h6zm6 1.5v3h-3v-3zm1.5-1.5h-6v6h6z"/>
  </symbol>
  <symbol id="left-24" viewBox="0 0 24 24">
    <path fill="currentColor" d="m7.725 11.775 7.5-7.5 1.05 1.05-6.45 6.45 6.45 6.45-1.05 1.05z"/>
  </symbol>
  <symbol id="left-arrow-24" viewBox="0 0 24 24">
    <path fill="currentColor" d="m10.5 19.5 1.057-1.058-5.685-5.692H21v-1.5H5.872l5.685-5.692L10.5 4.5 3 12z"/>
  </symbol>
  <symbol id="left-arrow-1-24" viewBox="0 0 24 24">
    <path fill="currentColor" d="m4.5 10.5 1.058 1.057 5.692-5.685V21h1.5V5.872l5.692 5.685L19.5 10.5 12 3z"/>
  </symbol>
  <symbol id="link-24" viewBox="0 0 24 24">
    <path fill="currentColor" d="M21.938 5.07a4.5 4.5 0 0 0-6.375 0l1.065 1.065a3.007 3.007 0 1 1 4.252 4.252l-6 6a3.004 3.004 0 0 1-4.252-4.244l1.057-1.065-1.057-1.065-1.065 1.065a4.5 4.5 0 0 0 0 6.375 4.5 4.5 0 0 0 3.187 1.297 4.5 4.5 0 0 0 3.203-1.32l6-6a4.5 4.5 0 0 0-.015-6.36"/><path fill="currentColor" d="M3.143 18.615a3 3 0 0 1 0-4.252l6-6a3 3 0 0 1 4.252 0 2.95 2.95 0 0 1 .855 2.137 3 3 0 0 1-.877 2.137l-1.59 1.613 1.065 1.065 1.59-1.59a4.513 4.513 0 1 0-6.383-6.383l-6 6a4.5 4.5 0 0 0 0 6.383A4.5 4.5 0 0 0 5.25 21a4.55 4.55 0 0 0 3.21-1.32l-1.065-1.065a3 3 0 0 1-4.252 0"/>
  </symbol>
  <symbol id="list-24" viewBox="0 0 24 24">
    <path stroke="currentColor" stroke-linecap="round" stroke-linejoin="round" stroke-width="1.5" d="M3.75 12h16.5m-16.5 3.75h16.5M3.75 19.5h16.5M5.625 4.5h12.75a1.875 1.875 0 1 1 0 3.75H5.625a1.875 1.875 0 0 1 0-3.75"/>
  </symbol>
  <symbol id="lock-24" viewBox="0 0 24 24">
    <path stroke="currentColor" stroke-linecap="round" stroke-linejoin="round" stroke-width="1.5" d="M16.5 10.5V6.75a4.5 4.5 0 1 0-9 0v3.75m-.75 11.25h10.5a2.25 2.25 0 0 0 2.25-2.25v-6.75a2.25 2.25 0 0 0-2.25-2.25H6.75a2.25 2.25 0 0 0-2.25 2.25v6.75a2.25 2.25 0 0 0 2.25 2.25"/>
  </symbol>
  <symbol id="lock-calc-24" viewBox="0 0 24 24">
    <path fill="currentColor" d="M6.75 17.25h1.5v1.5h-1.5zm4.5-3.75h1.5V15h-1.5zm-4.5 0h1.5V15h-1.5zm4.5-3.75h1.5v1.5h-1.5zm-4.5 0h1.5v1.5h-1.5zm0-4.5h10.5V7.5H6.75z"/><path fill="currentColor" d="M11.75 22.5H4.504A1.505 1.505 0 0 1 3 20.996V2.997A1.5 1.5 0 0 1 4.497 1.5h15.006A1.5 1.5 0 0 1 21 2.997V8h-1.5V3h-15v18h7.25z"/><path fill="currentColor" d="M21 15v-2.25c0-1.655-1.346-3-3-3s-3 1.345-3 3V15c-.827 0-1.5.674-1.5 1.5V21c0 .827.673 1.5 1.5 1.5h6c.827 0 1.5-.673 1.5-1.5v-4.5c0-.826-.673-1.5-1.5-1.5m-4.5-2.25c0-.826.673-1.5 1.5-1.5s1.5.674 1.5 1.5V15h-3zM15 21v-4.5h6V21z"/>
  </symbol>
  <symbol id="menu-h-24" viewBox="0 0 24 24">
    <path fill="currentColor" d="M6 13.5a1.5 1.5 0 1 0 0-3 1.5 1.5 0 0 0 0 3M12 13.5a1.5 1.5 0 1 0 0-3 1.5 1.5 0 0 0 0 3M18 13.5a1.5 1.5 0 1 0 0-3 1.5 1.5 0 0 0 0 3"/>
  </symbol>
  <symbol id="menu-v-24" viewBox="0 0 24 24">
    <path fill="currentColor" d="M12 7.5a1.5 1.5 0 1 0 0-3 1.5 1.5 0 0 0 0 3M12 13.5a1.5 1.5 0 1 0 0-3 1.5 1.5 0 0 0 0 3M12 19.5a1.5 1.5 0 1 0 0-3 1.5 1.5 0 0 0 0 3"/>
  </symbol>
  <symbol id="moon-24" viewBox="0 0 24 24">
    <path stroke="currentColor" stroke-linecap="round" stroke-linejoin="round" stroke-width="1.5" d="M21.752 15.002A9.7 9.7 0 0 1 18 15.75 9.75 9.75 0 0 1 8.25 6c0-1.33.266-2.597.748-3.752A9.75 9.75 0 0 0 3 11.25a9.75 9.75 0 0 0 15.159 8.113 9.75 9.75 0 0 0 3.593-4.361"/>
  </symbol>
  <symbol id="new-24" viewBox="0 0 24 24">
    <path fill="currentColor" d="M12 3c4.95 0 9 4.05 9 9s-4.05 9-9 9-9-4.05-9-9 4.05-9 9-9m0-1.5C6.225 1.5 1.5 6.225 1.5 12S6.225 22.5 12 22.5 22.5 17.775 22.5 12 17.775 1.5 12 1.5"/><path fill="currentColor" d="M18 11.25h-5.25V6h-1.5v5.25H6v1.5h5.25V18h1.5v-5.25H18z"/>
  </symbol>
  <symbol id="options-24" viewBox="0 0 24 24">
    <path fill="currentColor" d="M9.675 5.25C9.375 3.975 8.175 3 6.75 3s-2.55.975-2.925 2.25H1.5v1.5h2.325C4.125 8.025 5.325 9 6.75 9s2.55-.975 2.925-2.25H22.5v-1.5zM6.75 7.5c-.825 0-1.5-.675-1.5-1.5s.675-1.5 1.5-1.5 1.5.675 1.5 1.5-.675 1.5-1.5 1.5M17.25 9c-1.425 0-2.55.975-2.925 2.25H1.5v1.5h12.825c.3 1.275 1.5 2.25 2.925 2.25s2.55-.975 2.925-2.25H22.5v-1.5h-2.325c-.3-1.275-1.5-2.25-2.925-2.25m0 4.5c-.825 0-1.5-.675-1.5-1.5s.675-1.5 1.5-1.5 1.5.675 1.5 1.5-.675 1.5-1.5 1.5M10.5 15c-1.425 0-2.55.975-2.925 2.25H1.5v1.5h6.075c.3 1.275 1.5 2.25 2.925 2.25s2.55-.975 2.925-2.25H22.5v-1.5h-9.075c-.3-1.275-1.5-2.25-2.925-2.25m0 4.5c-.825 0-1.5-.675-1.5-1.5s.675-1.5 1.5-1.5 1.5.675 1.5 1.5-.675 1.5-1.5 1.5"/>
  </symbol>
  <symbol id="palette-24" viewBox="0 0 24 24">
    <path fill="currentColor" d="M7.5 10.5a1.5 1.5 0 1 0 0-3 1.5 1.5 0 0 0 0 3M12 8.25a1.5 1.5 0 1 0 0-3 1.5 1.5 0 0 0 0 3M16.5 10.5a1.5 1.5 0 1 0 0-3 1.5 1.5 0 0 0 0 3M17.25 15a1.5 1.5 0 1 0 0-3 1.5 1.5 0 0 0 0 3M14.25 18.75a1.5 1.5 0 1 0 0-3 1.5 1.5 0 0 0 0 3"/><path fill="currentColor" d="M12.405 1.5A10.5 10.5 0 0 0 1.5 12a3.615 3.615 0 0 0 4.568 3.488l.84-.233A2.25 2.25 0 0 1 9.75 17.43v2.82A2.25 2.25 0 0 0 12 22.5a10.5 10.5 0 0 0 10.5-10.905A10.537 10.537 0 0 0 12.405 1.5m6.083 16.733A8.95 8.95 0 0 1 12 21a.75.75 0 0 1-.75-.75v-2.82a3.75 3.75 0 0 0-4.747-3.615l-.84.232A2.114 2.114 0 0 1 3 12a9 9 0 0 1 9.353-9A9.135 9.135 0 0 1 21 11.648a8.92 8.92 0 0 1-2.512 6.592z"/>
  </symbol>
  <symbol id="pause-outline-24" viewBox="0 0 24 24">
    <path fill="currentColor" d="M10.5 7.5H9v9h1.5zm4.5 0h-1.5v9H15z"/><path fill="currentColor" d="M12 3a9 9 0 1 1 0 18 9 9 0 0 1 0-18m0-1.5a10.5 10.5 0 1 0 0 21 10.5 10.5 0 0 0 0-21"/>
  </symbol>
  <symbol id="pending-24" viewBox="0 0 24 24">
    <path fill="currentColor" d="M11.25 14.25h1.5v1.5h-1.5zm0 3h1.5v1.5h-1.5z"/><path fill="currentColor" d="M17.25 8.753V3h2.25V1.5h-15V3h2.25v5.752c0 .325.105.64.3.9L8.813 12 7.05 14.348a1.5 1.5 0 0 0-.3.9V21H4.5v1.5h15V21h-2.25v-5.752a1.5 1.5 0 0 0-.3-.9L15.188 12l1.762-2.347a1.5 1.5 0 0 0 .3-.9M15.75 3v5.25h-7.5V3zm0 12.248V21h-7.5v-5.752L10.688 12 9 9.75h6L13.313 12z"/>
  </symbol>
  <symbol id="photo-24" viewBox="0 0 24 24">
    <path stroke="currentColor" stroke-linecap="round" stroke-linejoin="round" stroke-width="1.5" d="m2.25 15.75 5.159-5.159a2.25 2.25 0 0 1 3.182 0l5.159 5.159m-1.5-1.5 1.409-1.409a2.25 2.25 0 0 1 3.182 0l2.909 2.909m-18 3.75h16.5a1.5 1.5 0 0 0 1.5-1.5V6a1.5 1.5 0 0 0-1.5-1.5H3.75A1.5 1.5 0 0 0 2.25 6v12a1.5 1.5 0 0 0 1.5 1.5m10.5-11.25h.008v.008h-.008zm.375 0a.375.375 0 1 1-.75 0 .375.375 0 0 1 .75 0"/>
  </symbol>
  <symbol id="print-24" viewBox="0 0 24 24">
    <path fill="currentColor" d="M21 6.75h-2.25v-4.5H5.25v4.5H3a1.5 1.5 0 0 0-1.5 1.5v7.5a1.5 1.5 0 0 0 1.5 1.5h2.25v4.5h13.5v-4.5H21a1.5 1.5 0 0 0 1.5-1.5v-7.5a1.5 1.5 0 0 0-1.5-1.5m-14.25-3h10.5v3H6.75zm10.5 16.5H6.75v-7.5h10.5zm3.75-4.5h-2.25v-4.5H5.25v4.5H3v-7.5h18z"/>
  </symbol>
  <symbol id="print-invoice-24" viewBox="0 0 24 24">
    <path fill="currentColor" d="M21 2.2a1.3 1.3 0 0 1 1.3 1.3v7a1.3 1.3 0 0 1-1.3 1.3h-2.7v10H5.7v-10H3a1.3 1.3 0 0 1-1.3-1.3v-7A1.3 1.3 0 0 1 3 2.2zm-13.7 18h9.4V7.8H7.3zm-4-10h2.4v-4h12.6v4h2.4V3.8H3.3z"/><path fill="currentColor" d="M15 15.807q0 .909-.591 1.5-.592.591-1.618.75-.06.023-.06.068l.011.739a.1.1 0 0 1-.048.09.12.12 0 0 1-.096.046H11.39a.16.16 0 0 1-.108-.046.12.12 0 0 1-.037-.09l.013-.75q0-.045-.06-.069-1.027-.193-1.619-.795Q9 16.648 9 15.739v-.25a.12.12 0 0 1 .036-.091.16.16 0 0 1 .109-.046h1.304q.06 0 .096.046a.1.1 0 0 1 .049.09v.171q0 .454.422.773.422.306 1.16.307.615 0 .905-.25a.81.81 0 0 0 .301-.637.62.62 0 0 0-.18-.454 1.45 1.45 0 0 0-.508-.33q-.314-.147-1.002-.397a9.5 9.5 0 0 1-1.316-.535 2.8 2.8 0 0 1-.905-.738q-.363-.478-.362-1.17 0-.876.555-1.444.567-.579 1.521-.75.06-.023.06-.068l-.024-.83a.12.12 0 0 1 .037-.09.16.16 0 0 1 .108-.046h1.207q.06 0 .097.045a.1.1 0 0 1 .048.091l-.012.853q0 .045.06.068 1.003.193 1.594.83.592.624.592 1.534v.17a.14.14 0 0 1-.049.102.14.14 0 0 1-.096.034H13.49a.2.2 0 0 1-.109-.034.16.16 0 0 1-.036-.102V12.5q0-.477-.398-.807-.399-.34-1.087-.34-.543 0-.845.226a.74.74 0 0 0-.302.625q0 .285.17.478.18.193.53.352t1.087.41q.81.284 1.28.51.47.229.845.682.375.455.374 1.17"/>
  </symbol>
  <symbol id="print-quote-24" viewBox="0 0 24 24">
    <path fill="currentColor" d="M21 2.2a1.3 1.3 0 0 1 1.3 1.3v7a1.3 1.3 0 0 1-1.3 1.3h-2.7v10H5.7v-10H3a1.3 1.3 0 0 1-1.3-1.3v-7A1.3 1.3 0 0 1 3 2.2zm-13.7 18h9.4V7.8H7.3zm-4-10h2.4v-4h12.6v4h2.4V3.8H3.3z"/><path fill="currentColor" d="M9 9.5h6v1.8H9zm.5 3.6h2v1.8h-2zM14.5 13.1h-2v1.8h2zM14.5 16.7h-2v1.8h2zM11.5 16.7h-2v1.8h2z"/>
  </symbol>
  <symbol id="print-work-order-24" viewBox="0 0 24 24">
    <path fill="currentColor" d="M21 2.2a1.3 1.3 0 0 1 1.3 1.3v7a1.3 1.3 0 0 1-1.3 1.3h-2.7v10H5.7v-10H3a1.3 1.3 0 0 1-1.3-1.3v-7A1.3 1.3 0 0 1 3 2.2zm-13.7 18h9.4V7.8H7.3zm-4-10h2.4v-4h12.6v4h2.4V3.8H3.3z"/><path fill="currentColor" d="M9 10h6v1.6H9zm0 3.2h6v1.6H9zm0 3.2h3V18H9z"/>
  </symbol>
  <symbol id="priority-24" viewBox="0 0 24 24">
    <path stroke="currentColor" stroke-linecap="round" stroke-linejoin="round" stroke-width="1.5" d="M11.48 3.499a.562.562 0 0 1 1.04 0l2.125 5.111a.56.56 0 0 0 .475.345l5.518.442c.499.04.7.663.32.988l-4.203 3.602a.56.56 0 0 0-.182.557l1.285 5.385a.562.562 0 0 1-.84.61l-4.725-2.885a.56.56 0 0 0-.586 0L6.982 20.54a.562.562 0 0 1-.84-.61l1.285-5.386a.56.56 0 0 0-.182-.557L3.04 10.385a.562.562 0 0 1 .32-.988l5.519-.442a.56.56 0 0 0 .475-.345z"/>
  </symbol>
  <symbol id="priority-solid-24" viewBox="0 0 24 24">
    <path fill="currentColor" fill-rule="evenodd" d="M10.788 3.21c.448-1.077 1.976-1.077 2.424 0l2.082 5.006 5.404.434c1.164.093 1.636 1.545.749 2.305l-4.117 3.527 1.257 5.273c.271 1.136-.964 2.033-1.96 1.425L12 18.354 7.373 21.18c-.996.608-2.231-.29-1.96-1.425l1.257-5.273-4.117-3.527c-.887-.76-.415-2.212.749-2.305l5.404-.434z" clip-rule="evenodd"/>
  </symbol>
  <symbol id="production-24" viewBox="0 0 24 24">
    <path fill="currentColor" d="M21 16.489a4.5 4.5 0 0 0-.116-1.002l1.616-.62-.538-1.4-1.654.634a4.5 4.5 0 0 0-1.318-1.357l.728-1.634-1.37-.61-.729 1.635a4.5 4.5 0 0 0-1.119-.146c-.387 0-.76.054-1.119.146l-.728-1.635-1.37.61.727 1.633a4.5 4.5 0 0 0-1.318 1.358l-1.654-.635-.538 1.4 1.616.62A4.5 4.5 0 0 0 12 16.49q.002.495.105.96l-1.605.714.61 1.37 1.56-.694c.33.539.77 1.002 1.29 1.36l-.678 1.763 1.4.538.643-1.672c.375.102.768.16 1.175.16s.8-.06 1.175-.16l.642 1.672 1.4-.538-.677-1.762c.521-.358.96-.822 1.29-1.36l1.56.694.61-1.37-1.605-.715c.067-.31.105-.63.105-.96m-4.5 3c-1.655 0-3-1.347-3-3s1.345-3 3-3c1.654 0 3 1.345 3 3 0 1.654-1.346 3-3 3m-6.397-8.325 1.11 1.109 1.06-1.06-1.11-1.11a4.5 4.5 0 0 0 .77-1.852H13.5V6.75h-1.568a4.5 4.5 0 0 0-.768-1.854l1.109-1.11-1.06-1.06-1.11 1.11a4.5 4.5 0 0 0-1.853-.768V1.5h-1.5v1.568a4.5 4.5 0 0 0-1.853.768l-1.11-1.109-1.06 1.06 1.11 1.11a4.5 4.5 0 0 0-.77 1.853H1.5v1.5h1.568a4.5 4.5 0 0 0 .768 1.853l-1.109 1.11 1.06 1.06 1.11-1.11a4.5 4.5 0 0 0 1.853.77V13.5h1.5v-1.568a4.5 4.5 0 0 0 1.853-.768M4.5 7.5c0-1.654 1.346-3 3-3 1.655 0 3 1.346 3 3 0 1.655-1.345 3-3 3-1.654 0-3-1.345-3-3"/>
  </symbol>
  <symbol id="production-24x24-24" viewBox="0 0 24 24">
    <path fill="currentColor" d="M21.497 9.955V5a.5.5 0 0 0-.5-.5H3a.5.5 0 0 0-.5.5v4.955a.5.5 0 0 0 .5.5h4.208v1H3a1.5 1.5 0 0 1-1.5-1.5V5A1.5 1.5 0 0 1 3 3.5h17.997a1.5 1.5 0 0 1 1.5 1.5v4.955a1.5 1.5 0 0 1-1.5 1.5H16.79v-1h4.208a.5.5 0 0 0 .5-.5"/><path fill="currentColor" d="M3.87 20.519h-1v-9.564h1zM19.707 20.519h-1v-9.564h1zM5.608 20.519h-1v-9.564h1zM21.445 20.519h-1v-9.564h1z"/><path fill="currentColor" d="M5.668 19.665a.5.5 0 1 1 0 1H2.502a.5.5 0 0 1 0-1zM21.5 19.665a.5.5 0 1 1 0 1h-3.165a.5.5 0 0 1 0-1zM16.216 17.345v1H7.782v-1zm0-8.867H7.782v9.867a1 1 0 0 1-1-1V8.478a1 1 0 0 1 1-1h8.434l.101.004a1 1 0 0 1 .899.996v8.867l-.006.102a1 1 0 0 1-.893.893l-.101.005z"/><path fill="currentColor" d="M7.217 8.216v1H2v-1zM7.217 15.171v1H5.043v-1zM19.389 15.171v1H16.78v-1zM21.997 8.216v1h-5.216v-1zM18.454 5.173a.5.5 0 0 1 0 1h-2.478a.5.5 0 0 1 0-1zM20.324 5.173a.5.5 0 0 1 0 1h-.566a.5.5 0 0 1 0-1zM14.542 9.52a.5.5 0 0 1 0 1H9.455a.5.5 0 0 1 0-1zM14.542 11.694a.5.5 0 0 1 0 1H9.455a.5.5 0 1 1 0-1zM14.042 15.172v1H9.955v-1zm0-.174H9.955v1.174l-.103-.006a1 1 0 0 1-.893-.893l-.004-.101v-.174a1 1 0 0 1 1-1h4.085a1 1 0 0 1 1 1v.174l-.004.101a1 1 0 0 1-.893.893l-.103.006z"/>
  </symbol>
  <symbol id="production-32x32-32" viewBox="0 0 32 32">
    <path fill="currentColor" d="M28.797 13.182V6a.4.4 0 0 0-.4-.4H4a.4.4 0 0 0-.4.4v7.182c0 .22.18.4.4.4h5.874v1.2H4a1.6 1.6 0 0 1-1.6-1.6V6A1.6 1.6 0 0 1 4 4.4h24.398a1.6 1.6 0 0 1 1.6 1.6v7.182a1.6 1.6 0 0 1-1.6 1.6h-5.875v-1.2h5.875a.4.4 0 0 0 .399-.4"/><path fill="currentColor" d="M5.348 26.807h-1.2V14.182h1.2zM26.253 26.807h-1.2V14.182h1.2zM7.644 26.807h-1.2V14.182h1.2zM28.55 26.807h-1.201V14.182h1.2z"/><path fill="currentColor" d="M7.903 25.8a.6.6 0 0 1 0 1.2h-4.3a.6.6 0 0 1 0-1.2zM28.803 25.8a.6.6 0 0 1 0 1.2h-4.3a.6.6 0 0 1 0-1.2zM10.513 22.737h11.372V10.791H10.513zm12.572.2-.005.102a1 1 0 0 1-.892.893l-.103.006H10.313l-.103-.006a1 1 0 0 1-.892-.893l-.005-.102V10.592a1 1 0 0 1 1-1h11.772l.103.005a1 1 0 0 1 .897.995z"/><path fill="currentColor" d="M9.886 10.686v1.2H3v-1.2zM9.886 19.868v1.2H7.017v-1.2zM25.954 19.868v1.2h-3.443v-1.2zM29.397 10.686v1.2H22.51v-1.2zM24.78 6.67a.6.6 0 0 1 0 1.2h-3.39a.6.6 0 0 1 0-1.2zM27.128 6.67a.601.601 0 0 1 0 1.2h-.626a.6.6 0 0 1 0-1.2zM19.616 12.408a.601.601 0 0 1 0 1.2h-6.834a.6.6 0 0 1 0-1.2zM19.616 15.277a.601.601 0 0 1 0 1.2h-6.834a.6.6 0 0 1 0-1.2zM13.382 19.868h5.634v-.47h-5.634zm6.834.2-.006.102a1 1 0 0 1-.892.893l-.102.005h-6.034l-.103-.005a1 1 0 0 1-.897-.995v-.87a1 1 0 0 1 .897-.995l.103-.004h6.034l.102.004a1 1 0 0 1 .898.996z"/>
  </symbol>
  <symbol id="production-48x48-48" viewBox="0 0 48 48">
    <path fill="currentColor" d="M43.241 20.908V9a.25.25 0 0 0-.25-.25H5a.25.25 0 0 0-.25.25v11.908c0 .138.112.25.25.25h9.414v1.5H5a1.75 1.75 0 0 1-1.75-1.75V9c0-.966.784-1.75 1.75-1.75h37.991c.967 0 1.75.784 1.75 1.75v11.908a1.75 1.75 0 0 1-1.75 1.75h-9.414v-1.5h9.414a.25.25 0 0 0 .25-.25"/><path fill="currentColor" d="M7.24 41.032h-1.5V21.908h1.5zM38.91 41.032h-1.5V21.908h1.5zM10.717 41.032h-1.5V21.908h1.5zM42.388 41.032h-1.5V21.908h1.5z"/><path fill="currentColor" d="M11.586 39.825a.75.75 0 0 1 0 1.5H4.754a.75.75 0 0 1 0-1.5zM43.25 39.825a.75.75 0 0 1 0 1.5h-6.833a.75.75 0 0 1 0-1.5zM15.064 35.185h17.865V16.454H15.063zm19.365.5-.005.103c-.048.47-.422.845-.893.893l-.102.004H14.563l-.102-.004a1 1 0 0 1-.893-.893l-.005-.103V15.954a1 1 0 0 1 .898-.995l.102-.005H33.43l.102.005a1 1 0 0 1 .898.995z"/><path fill="currentColor" d="M14.433 16.931v1.5H4v-1.5zM14.432 30.84v1.5h-4.346v-1.5zM38.775 30.84v1.5h-5.216v-1.5zM43.992 16.931v1.5H33.559v-1.5zM37.156 10.846a.75.75 0 0 1 0 1.5h-5.455a.75.75 0 0 1 0-1.5zM40.395 10.846a.75.75 0 1 1 0 1.5h-.63a.75.75 0 0 1 0-1.5zM29.33 19.539a.75.75 0 0 1 0 1.5H18.66a.75.75 0 0 1 0-1.5zM29.33 23.885a.75.75 0 0 1 0 1.5H18.66a.75.75 0 0 1 0-1.5zM19.41 30.84h9.17v-1.347h-9.17zm10.67.5-.004.101a1 1 0 0 1-.893.893l-.102.006H18.91l-.103-.006a1 1 0 0 1-.892-.893l-.005-.101v-2.347a1 1 0 0 1 .897-.995l.103-.005h10.17a1 1 0 0 1 1 1z"/>
  </symbol>
  <symbol id="production-complete-24" viewBox="0 0 24 24">
    <path fill="currentColor" d="M6 16h1.5v1.5H6zm0-4h1.5v1.5H6zM9 16l6 .054v1.5L9 17.5zm0-4h6v1.5H9z"/><path fill="currentColor" d="M12 21H4.5V3h6v4.5A1.504 1.504 0 0 0 12 9h4.5v2.25H18V7.5a.68.68 0 0 0-.225-.525l-5.25-5.25A.68.68 0 0 0 12 1.5H4.5A1.505 1.505 0 0 0 3 3v18a1.504 1.504 0 0 0 1.5 1.5H12zm0-17.7 4.2 4.2H12z"/><path fill="currentColor" d="m16 20.693-1.943-1.943L13 19.808l3 3 5.25-5.25-1.058-1.058z"/>
  </symbol>
  <symbol id="quote-24x24-24" viewBox="0 0 24 24">
    <path fill="currentColor" d="M18.617 5.235a1.5 1.5 0 0 0-1.5-1.5H7a1.5 1.5 0 0 0-1.5 1.5v13.648a1.5 1.5 0 0 0 1.5 1.5h6.235v1H7a2.5 2.5 0 0 1-2.5-2.5V5.235a2.5 2.5 0 0 1 2.5-2.5h10.117a2.5 2.5 0 0 1 2.5 2.5v4.819h-1z"/><path fill="currentColor" d="M7 6h10v2H7zM7 10h1.324v1.323H7zM7 13.53h1.324v1.323H7zM7 17.059h1.324v1.323H7zM11 10h1.323v1.323H11zM11 13.53h1.323v1.323H11zM11 17.059h1.323v1.323H11zM20 18.506q0 .93-.566 1.54-.554.596-1.55.716-.045 0-.045.048l.012.835q0 .12-.113.12h-.747q-.113 0-.113-.12l.011-.847q0-.048-.045-.048-1.007-.143-1.573-.74-.565-.609-.565-1.552v-.346q0-.12.113-.12h.78q.114 0 .114.12v.286q0 .609.475 1.003t1.29.394q.735 0 1.108-.346.385-.346.385-.907 0-.37-.193-.633a1.8 1.8 0 0 0-.565-.477 10 10 0 0 0-1.086-.538 10 10 0 0 1-1.245-.608 2.5 2.5 0 0 1-.758-.717q-.294-.453-.294-1.134 0-.906.532-1.468.531-.573 1.448-.704.045 0 .045-.048l-.011-.92q0-.118.113-.118h.735q.114 0 .113.119l-.011.93q0 .05.045.06.974.143 1.527.765.566.62.566 1.563v.24q0 .119-.113.119h-.792q-.113 0-.113-.12v-.179q0-.62-.441-1.027-.441-.417-1.233-.417-.667 0-1.03.31-.362.299-.362.871 0 .395.181.645.193.25.543.454.362.19 1.098.501.768.335 1.233.62.475.275.78.74.317.454.317 1.135"/>
  </symbol>
  <symbol id="quote-32x32-32" viewBox="0 0 32 32">
    <path fill="currentColor" d="M24.283 6.765a1.4 1.4 0 0 0-1.4-1.4H9a1.4 1.4 0 0 0-1.4 1.4v18.352a1.4 1.4 0 0 0 1.4 1.4h8.432v1.2H9a2.6 2.6 0 0 1-2.6-2.6V6.765a2.6 2.6 0 0 1 2.6-2.6h13.882a2.6 2.6 0 0 1 2.6 2.6v6.637h-1.2z"/><path fill="currentColor" d="M10 8h12v3H10zM10 13.706h1.676v1.676H10zM10 18.177h1.676v1.676H10zM10 22.647h1.676v1.676H10zM14.824 13.706H16.5v1.676h-1.677zM14.824 18.177H16.5v1.676h-1.677zM14.824 22.647H16.5v1.676h-1.677zM26 24.107q0 1.18-.716 1.95-.703.757-1.963.908-.058 0-.058.06l.014 1.059q0 .15-.143.151h-.945q-.144 0-.144-.151l.015-1.074q0-.06-.058-.06-1.275-.181-1.991-.937-.717-.772-.717-1.966v-.439q0-.15.143-.15h.99q.142 0 .142.15v.363q0 .771.602 1.27.602.5 1.634.5.93 0 1.404-.44.487-.438.487-1.148 0-.47-.244-.802-.242-.332-.716-.604-.473-.288-1.376-.68-1.002-.424-1.576-.772a3.1 3.1 0 0 1-.96-.907q-.372-.575-.372-1.437 0-1.149.673-1.86.674-.724 1.834-.892.057 0 .058-.06l-.015-1.164q0-.152.144-.152h.93q.144 0 .144.152l-.014 1.18q0 .06.057.075 1.233.18 1.935.967.716.787.716 1.981v.303q0 .15-.143.15h-1.003q-.144 0-.144-.15v-.227q0-.787-.558-1.3-.559-.53-1.562-.53-.845 0-1.304.393-.459.378-.459 1.104 0 .5.23.817.243.317.687.574.46.242 1.39.635.974.424 1.562.787.601.347.989.937.4.575.401 1.436"/>
  </symbol>
  <symbol id="quote-48x48-48" viewBox="0 0 48 48">
    <path fill="currentColor" d="M37.426 8c0-.69-.56-1.25-1.25-1.25H11c-.69 0-1.25.56-1.25 1.25v32.47c0 .69.56 1.25 1.25 1.25h15.02v1.5H11a2.75 2.75 0 0 1-2.75-2.75V8A2.75 2.75 0 0 1 11 5.25h25.176A2.75 2.75 0 0 1 38.926 8v12.09h-1.5z"/><path fill="currentColor" d="M13 11h21v5H13zM13 20.588h2.735v2.735H13zM13 27.882h2.735v2.735H13zM13 35.176h2.735v2.735H13zM22 20.588h2.735v2.735H22zM22 27.882h2.735v2.735H22zM22 35.176h2.735v2.735H22zM40 37.558q0 1.925-1.169 3.183-1.146 1.233-3.203 1.48-.093 0-.093.099l.023 1.727q0 .246-.234.246h-1.542q-.234 0-.234-.246l.023-1.752q0-.099-.093-.099-2.081-.296-3.25-1.53-1.17-1.257-1.169-3.206v-.716q0-.246.234-.246h1.613q.234 0 .234.246v.592q0 1.26.982 2.073t2.665.814q1.52 0 2.29-.716.796-.715.796-1.875 0-.764-.398-1.307-.397-.542-1.169-.987-.771-.468-2.244-1.11-1.636-.69-2.572-1.258a5.1 5.1 0 0 1-1.566-1.48q-.608-.937-.608-2.344 0-1.875 1.099-3.034 1.1-1.185 2.992-1.456.094 0 .094-.098l-.023-1.9q0-.247.233-.247h1.52q.234 0 .234.247l-.024 1.924q0 .099.094.124 2.01.295 3.156 1.578 1.17 1.284 1.169 3.232v.494q0 .246-.234.246H37.99q-.234 0-.234-.247v-.37q0-1.283-.912-2.121-.912-.864-2.548-.864-1.38 0-2.128.642-.748.616-.748 1.8 0 .816.374 1.333.398.518 1.122.937.75.395 2.268 1.037 1.59.69 2.548 1.282a4.75 4.75 0 0 1 1.613 1.53q.655.938.655 2.343"/>
  </symbol>
  <symbol id="quote-sent-24" viewBox="0 0 24 24">
    <path fill="currentColor" d="M6.75 17.25h1.5v1.5h-1.5zm0-3.75h1.5V15h-1.5zm4.5-3.75h1.5v1.5h-1.5zm-4.5 0h1.5v1.5h-1.5zm0-4.5h10.5V7.5H6.75z"/><path fill="currentColor" d="M10.75 22.5H4.504A1.505 1.505 0 0 1 3 20.996V2.997A1.5 1.5 0 0 1 4.497 1.5h15.006A1.5 1.5 0 0 1 21 2.997V10h-1.5V3h-15v18h6.25z"/><path fill="currentColor" d="M17.5 12a5.5 5.5 0 1 1 0 11 5.5 5.5 0 0 1 0-11m-.954 6.988-1.648-1.847L14 18.147 16.546 21 21 16.006 20.102 15z"/>
  </symbol>
  <symbol id="right-24" viewBox="0 0 24 24">
    <path fill="currentColor" d="m16.275 12.225-7.5 7.5-1.05-1.05 6.45-6.45-6.45-6.45 1.05-1.05z"/>
  </symbol>
  <symbol id="right-arrow-24" viewBox="0 0 24 24">
    <path fill="currentColor" d="m13.5 4.5-1.072 1.045 5.685 5.705H3v1.5h15.113l-5.685 5.68L13.5 19.5 21 12z"/>
  </symbol>
  <symbol id="right-arrow-1-24" viewBox="0 0 24 24">
    <path fill="currentColor" d="m19.5 13.5-1.045-1.072-5.705 5.685V3h-1.5v15.113l-5.68-5.685L4.5 13.5 12 21z"/>
  </symbol>
  <symbol id="rush-24" viewBox="0 0 24 24">
    <path fill="currentColor" d="M8.707 22.44a.75.75 0 0 1-.45-.803l1.365-8.887H6a.75.75 0 0 1-.75-.922l2.25-9.75a.75.75 0 0 1 .75-.578h7.5a.75.75 0 0 1 .735.915L15.187 8.25h3.563a.75.75 0 0 1 .675.42.75.75 0 0 1-.083.75l-9.75 12.75A.75.75 0 0 1 9 22.5a.8.8 0 0 1-.293-.06m4.605-12.69 1.5-6.75H8.85l-1.905 8.25h4.432l-1.192 7.71 7.065-9.21z"/>
  </symbol>
  <symbol id="rush-1-24" viewBox="0 0 24 24">
    <g fill="currentColor" clip-path="url(#a)"><path d="M21.13 4.96a2.52 2.52 0 1 0-5.04.001 2.52 2.52 0 0 0 5.04-.001m1.5 0a4.02 4.02 0 1 1-8.042-.001 4.02 4.02 0 0 1 8.042 0"/><path d="m16.37 9.076.088.029.079.049 3.936 2.452 1.63-2.487a.75.75 0 0 1 1.254.822l-2.432 3.713-5.103-3.179-4.203-1.354-2.338 3.644a.75.75 0 1 1-1.262-.81l2.961-4.616z"/><path d="M15.057 9.918a.75.75 0 0 1 1.266.804l-7.42 11.67a.75.75 0 1 1-1.266-.804z"/><path d="M12.246 14.674a.75.75 0 0 1 1.03-.258l5.528 3.318-2.812 4.947a.75.75 0 1 1-1.304-.742l2.088-3.673-4.272-2.562a.75.75 0 0 1-.258-1.03M10.93 3.79a.75.75 0 0 1 0 1.5H3.38a.75.75 0 0 1 0-1.5zM8.27 16.83a.75.75 0 0 1 0 1.5H2.61a.75.75 0 0 1 0-1.5zM6.14 10.16a.75.75 0 0 1 0 1.5H1.5a.75.75 0 0 1 0-1.5z"/></g><defs><clipPath id="a"><path fill="currentColor" d="M0 0h24v24H0z"/></clipPath></defs>
  </symbol>
  <symbol id="search-24" viewBox="0 0 24 24">
    <path fill="currentColor" d="m21.75 20.69-5.664-5.665a8.263 8.263 0 1 0-1.06 1.061l5.663 5.664zM3 9.75a6.75 6.75 0 1 1 6.75 6.75A6.76 6.76 0 0 1 3 9.75"/>
  </symbol>
  <symbol id="send-production-24" viewBox="0 0 24 24">
    <path fill="currentColor" d="M20.997 3.5a1.5 1.5 0 0 1 1.5 1.5v4.955l-.002.045h-1.002q.003-.022.004-.045V5a.5.5 0 0 0-.5-.5H3a.5.5 0 0 0-.5.5v4.955a.5.5 0 0 0 .5.5h4.208v1H3a1.5 1.5 0 0 1-1.5-1.5V5A1.5 1.5 0 0 1 3 3.5z"/><path fill="currentColor" d="M3.87 20.519h-1v-9.564h1zM5.608 20.519h-1v-9.564h1z"/><path fill="currentColor" d="M5.668 19.665a.5.5 0 1 1 0 1H2.502a.5.5 0 0 1 0-1zM7.217 8.216v1H2v-1zM7.217 15.171v1H5.043v-1zM21.997 8.216v1h-5.216v-1zM18.454 5.173a.5.5 0 0 1 0 1h-2.478a.5.5 0 0 1 0-1zM20.324 5.173a.5.5 0 0 1 0 1h-.566a.5.5 0 0 1 0-1z"/><path fill="currentColor" d="M16.317 7.482a1 1 0 0 1 .899.996V10h-1V8.478H7.782v8.867H10v1H7.782a1 1 0 0 1-1-1V8.478a1 1 0 0 1 1-1h8.434z"/><path fill="currentColor" d="M17.5 12a5.5 5.5 0 1 1 0 11 5.5 5.5 0 0 1 0-11m-1.324 2.951L18.4 16.9H14v1.2h4.402l-2.226 1.95.79.902 3.428-3 .517-.451-.517-.451-3.427-3z"/>
  </symbol>
  <symbol id="settings-24" viewBox="0 0 24 24">
    <path fill="currentColor" d="M20.25 12.57v-1.148l1.44-1.26a1.5 1.5 0 0 0 .285-1.912l-1.77-3a1.5 1.5 0 0 0-1.298-.75 1.5 1.5 0 0 0-.48.075l-1.822.615a8 8 0 0 0-.983-.562l-.382-1.89a1.5 1.5 0 0 0-1.5-1.208h-3.51a1.5 1.5 0 0 0-1.5 1.207l-.383 1.89a9 9 0 0 0-.99.563l-1.785-.645a1.5 1.5 0 0 0-.48-.045 1.5 1.5 0 0 0-1.297.75l-1.77 3a1.5 1.5 0 0 0 .307 1.883L3.75 11.43v1.148l-1.418 1.26a1.5 1.5 0 0 0-.307 1.912l1.77 3a1.5 1.5 0 0 0 1.297.75c.163.001.326-.024.48-.075l1.823-.615q.471.315.982.563l.383 1.89a1.5 1.5 0 0 0 1.5 1.207h3.54a1.5 1.5 0 0 0 1.5-1.207l.382-1.89q.514-.25.99-.563l1.815.615q.234.076.48.075a1.5 1.5 0 0 0 1.298-.75l1.71-3a1.5 1.5 0 0 0-.308-1.883zM18.907 18l-2.572-.87c-.603.51-1.29.908-2.033 1.178L13.77 21h-3.54l-.533-2.663a7 7 0 0 1-2.025-1.177l-2.58.84-1.77-3 2.04-1.8a6.7 6.7 0 0 1 0-2.347L3.322 9l1.77-3 2.573.87a6.7 6.7 0 0 1 2.032-1.178L10.23 3h3.54l.532 2.662c.736.277 1.42.675 2.025 1.178l2.58-.84 1.77 3-2.04 1.8a6.7 6.7 0 0 1 0 2.348L20.677 15z"/><path fill="currentColor" d="M12 16.5a4.5 4.5 0 1 1 4.5-4.5 4.456 4.456 0 0 1-4.5 4.5M12 9a2.933 2.933 0 0 0-3 3 2.933 2.933 0 0 0 3 3 2.933 2.933 0 0 0 3-3 2.933 2.933 0 0 0-3-3"/>
  </symbol>
  <symbol id="shield-check-24" viewBox="0 0 24 24">
    <path stroke="currentColor" stroke-linecap="round" stroke-linejoin="round" stroke-width="1.5" d="M9 12.75 11.25 15 15 9.75m-3-7.036A11.96 11.96 0 0 1 3.598 6 12 12 0 0 0 3 9.749c0 5.592 3.824 10.29 9 11.623 5.176-1.332 9-6.03 9-11.622 0-1.31-.21-2.571-.598-3.751h-.152c-3.196 0-6.1-1.248-8.25-3.285"/>
  </symbol>
  <symbol id="sun-24" viewBox="0 0 24 24">
    <path stroke="currentColor" stroke-linecap="round" stroke-linejoin="round" stroke-width="1.5" d="M12 3v2.25m6.364.386-1.591 1.591M21 12h-2.25m-.386 6.364-1.591-1.591M12 18.75V21m-4.773-4.227-1.591 1.591M5.25 12H3m4.227-4.773L5.636 5.636M15.75 12a3.75 3.75 0 1 1-7.5 0 3.75 3.75 0 0 1 7.5 0"/>
  </symbol>
  <symbol id="suppliers-24" viewBox="0 0 24 24">
    <path fill="currentColor" d="m21.378 6.102-9-5.25a.75.75 0 0 0-.756 0l-9 5.25a.75.75 0 0 0-.372.648v10.5a.75.75 0 0 0 .372.648l9 5.25a.75.75 0 0 0 .756 0l9-5.25a.75.75 0 0 0 .372-.648V6.75a.75.75 0 0 0-.372-.648M12 2.368l7.512 4.382L12 11.132 4.488 6.75zM3.75 8.055l7.5 4.375v8.765l-7.5-4.375zm9 13.14v-8.764l7.5-4.375v8.764z"/>
  </symbol>
  <symbol id="trash-24" viewBox="0 0 24 24">
    <path fill="currentColor" d="M9 9h1.5v9H9zm4.5 0H15v9h-1.5z"/><path fill="currentColor" d="M3 4.5V6h1.5v15A1.5 1.5 0 0 0 6 22.5h12a1.5 1.5 0 0 0 1.5-1.5V6H21V4.5zM6 21V6h12v15zM9 1.5h6V3H9z"/>
  </symbol>
  <symbol id="unlock-calc-24" viewBox="0 0 24 24">
    <path fill="currentColor" d="M6.75 17.25h1.5v1.5h-1.5zm4.5-3.75h1.5V15h-1.5zm-4.5 0h1.5V15h-1.5zm4.5-3.75h1.5v1.5h-1.5zm-4.5 0h1.5v1.5h-1.5zm0-4.5h10.5V7.5H6.75z"/><path fill="currentColor" d="M11.75 22.5H4.504A1.505 1.505 0 0 1 3 20.996V2.997A1.5 1.5 0 0 1 4.497 1.5h15.006A1.5 1.5 0 0 1 21 2.997V8h-1.5V3h-15v18h7.25z"/><path fill="currentColor" d="M21 15h-4.5v-2.25c0-.826.673-1.5 1.5-1.5s1.5.674 1.5 1.5H21c0-1.655-1.346-3-3-3s-3 1.345-3 3V15c-.827 0-1.5.674-1.5 1.5V21c0 .827.673 1.5 1.5 1.5h6c.827 0 1.5-.673 1.5-1.5v-4.5c0-.826-.673-1.5-1.5-1.5m0 6h-6v-4.5h6z"/>
  </symbol>
  <symbol id="up-24" viewBox="0 0 24 24">
    <path fill="currentColor" d="m12 7.5 7.5 7.5-1.05 1.05L12 9.6l-6.45 6.45L4.5 15z"/>
  </symbol>
  <symbol id="update-invoice-24" viewBox="0 0 24 24">
    <path fill="currentColor" d="M12 2a9.94 9.94 0 0 1 7.143 3.024V2.5h1.428v5.214H15.5V6.286h2.873A8.559 8.559 0 1 0 20.57 12H22A10 10 0 1 1 12 2"/><path fill="currentColor" d="M15 13.807q0 .909-.591 1.5-.592.591-1.618.75-.06.023-.06.068l.011.739a.1.1 0 0 1-.048.09.12.12 0 0 1-.096.046H11.39a.16.16 0 0 1-.108-.046.12.12 0 0 1-.037-.09l.013-.75q0-.045-.06-.069-1.027-.193-1.619-.795Q9 14.648 9 13.739v-.25a.12.12 0 0 1 .036-.091.16.16 0 0 1 .109-.046h1.304q.06 0 .096.046a.1.1 0 0 1 .049.09v.171q0 .454.422.773.422.307 1.16.307.615 0 .905-.25a.81.81 0 0 0 .301-.637.62.62 0 0 0-.18-.454 1.45 1.45 0 0 0-.508-.33q-.314-.147-1.002-.397a9.5 9.5 0 0 1-1.316-.535 2.8 2.8 0 0 1-.905-.738q-.363-.478-.362-1.17 0-.876.555-1.444.567-.579 1.521-.75.06-.023.06-.068l-.024-.83a.12.12 0 0 1 .037-.09.16.16 0 0 1 .108-.046h1.207q.06 0 .097.045a.1.1 0 0 1 .048.091l-.012.853q0 .045.06.068 1.003.193 1.594.83.592.624.592 1.534v.17a.14.14 0 0 1-.049.102.14.14 0 0 1-.096.034H13.49a.2.2 0 0 1-.109-.034.16.16 0 0 1-.036-.102V10.5q0-.477-.398-.807-.399-.34-1.087-.34-.543 0-.845.227a.74.74 0 0 0-.302.624q0 .285.17.478.18.193.53.352t1.087.41q.81.284 1.28.51.47.229.845.682.375.455.374 1.17"/>
  </symbol>
  <symbol id="upload-24" viewBox="0 0 24 24">
    <path fill="currentColor" d="m8.25 13.5 1.057 1.057 1.943-1.934v9.127h1.5v-9.127l1.943 1.935L15.75 13.5 12 9.75z"/><path fill="currentColor" d="M17.625 16.5h-.375V15h.375a3.378 3.378 0 0 0 .27-6.75h-.645l-.075-.615a5.25 5.25 0 0 0-10.41 0l-.015.615h-.645a3.378 3.378 0 0 0 .27 6.75h.375v1.5h-.375A4.875 4.875 0 0 1 5.4 6.855a6.75 6.75 0 0 1 13.2 0 4.875 4.875 0 0 1-.975 9.645"/>
  </symbol>
  <symbol id="user-24" viewBox="0 0 24 24">
    <path fill="currentColor" d="M12 6a3.75 3.75 0 1 0 0 7.5A3.75 3.75 0 0 0 12 6m0 6a2.25 2.25 0 1 1 0-4.5 2.25 2.25 0 0 1 0 4.5"/><path fill="currentColor" d="M12 1.5A10.5 10.5 0 1 0 22.5 12 10.51 10.51 0 0 0 12 1.5M7.5 19.783V18.75a2.25 2.25 0 0 1 2.25-2.25h4.5a2.25 2.25 0 0 1 2.25 2.25v1.033a8.93 8.93 0 0 1-9 0m10.495-1.088A3.75 3.75 0 0 0 14.25 15h-4.5a3.75 3.75 0 0 0-3.744 3.695 9 9 0 1 1 11.989 0"/>
  </symbol>
  <symbol id="view-24" viewBox="0 0 24 24">
    <path fill="currentColor" d="M16.5 19.5a1.5 1.5 0 1 0 0-3 1.5 1.5 0 0 0 0 3"/><path fill="currentColor" d="M22.333 17.61A6.48 6.48 0 0 0 16.5 13.5a6.48 6.48 0 0 0-5.833 4.11L10.5 18l.167.392A6.48 6.48 0 0 0 16.5 22.5a6.48 6.48 0 0 0 5.833-4.108L22.5 18zM16.5 21a3 3 0 1 1 0-5.999 3 3 0 0 1 0 5.999"/><path fill="currentColor" d="M9 21H6V3h6v4.5A1.504 1.504 0 0 0 13.5 9H18v3h1.5V7.5a.68.68 0 0 0-.225-.525l-5.25-5.25A.68.68 0 0 0 13.5 1.5H6A1.505 1.505 0 0 0 4.5 3v18A1.504 1.504 0 0 0 6 22.5h3zm4.5-17.7 4.2 4.2h-4.2z"/>
  </symbol>
  <symbol id="work-order-24" viewBox="0 0 24 24">
    <path fill="currentColor" d="M19.5 22.5h-15A1.5 1.5 0 0 1 3 21V3a1.5 1.5 0 0 1 1.5-1.5h15A1.5 1.5 0 0 1 21 3v18a1.5 1.5 0 0 1-1.5 1.5M4.5 3v18h15V3z"/><path fill="currentColor" d="M16.5 18h-9v-4h9zM16.5 7.5h-9V6h9zM16.5 11.5h-9V10h9z"/>
  </symbol>
  <symbol id="wrench-screwdriver-24" viewBox="0 0 24 24">
    <path stroke="currentColor" stroke-linecap="round" stroke-linejoin="round" stroke-width="1.5" d="M11.42 15.17 17.25 21A2.652 2.652 0 0 0 21 17.25l-5.877-5.877m-5.108.233 1.745-1.437-4.26-4.26V4.5L3.75 2.25l-1.5 1.5L4.5 7.5h1.409zl-6.837 5.63a2.548 2.548 0 1 0 3.586 3.586l4.655-5.653 2.496-3.03c.317-.384.74-.626 1.208-.766.55-.164 1.163-.188 1.743-.14a4.5 4.5 0 0 0 4.486-6.336l-3.276 3.277a3 3 0 0 1-2.25-2.25l3.276-3.276a4.5 4.5 0 0 0-6.336 4.486c.091 1.076-.071 2.264-.904 2.95l-.102.085m6.614 8.205L15.75 15.75M4.867 19.125h.008v.008h-.008z"/>
  </symbol>
</defs>
</svg>
