<svg width="24" height="24" viewBox="0 0 24 24" fill="none" xmlns="http://www.w3.org/2000/svg">
<path d="M8.96036 14.25C8.2265 14.2499 7.50913 14.0323 6.89896 13.6245C6.28878 13.2168 5.8132 12.6373 5.53232 11.9593C5.25144 11.2813 5.17789 10.5353 5.32096 9.81553C5.46404 9.09574 5.8173 8.43454 6.33611 7.91551L10.1656 4.08676C10.8616 3.39076 11.8056 2.99976 12.7899 2.99976C13.7741 2.99976 14.7181 3.39076 15.4141 4.08676C16.1101 4.78275 16.5011 5.72672 16.5011 6.71101C16.5011 7.69529 16.1101 8.63926 15.4141 9.33526L14.9994 9.74926L13.9381 8.68951L14.3559 8.27176C14.769 7.85662 15.0007 7.29459 15.0002 6.70889C14.9996 6.12318 14.7668 5.5616 14.3529 5.14726C13.9315 4.74517 13.3715 4.52083 12.7891 4.52083C12.2067 4.52083 11.6467 4.74517 11.2254 5.14726L7.39736 8.97526C7.19186 9.18053 7.02884 9.42429 6.91761 9.69261C6.80638 9.96093 6.74913 10.2485 6.74913 10.539C6.74913 10.8295 6.80638 11.1171 6.91761 11.3854C7.02884 11.6537 7.19186 11.8975 7.39736 12.1028C7.81869 12.5048 8.37871 12.7292 8.96111 12.7292C9.54351 12.7292 10.1035 12.5048 10.5249 12.1028L11.5854 13.1633C11.2413 13.5089 10.8322 13.7829 10.3816 13.9694C9.93108 14.1559 9.44801 14.2513 8.96036 14.25Z" fill="#27292A"/>
<path d="M14.9604 12.75C14.2265 12.7499 13.5091 12.5323 12.899 12.1246C12.2888 11.7168 11.8132 11.1373 11.5323 10.4594C11.2514 9.78137 11.1779 9.03532 11.321 8.31554C11.464 7.59576 11.8173 6.93456 12.3361 6.41552L12.7509 6.00002L13.8114 7.06127L13.3974 7.47527C12.9831 7.89011 12.7504 8.45239 12.7504 9.03865C12.7504 9.6249 12.9831 10.1872 13.3974 10.602C13.8187 11.0041 14.3787 11.2285 14.9611 11.2285C15.5435 11.2285 16.1035 11.0041 16.5249 10.602L20.3536 6.77327C20.7676 6.35847 21.0002 5.79634 21.0002 5.21027C21.0002 4.6242 20.7676 4.06208 20.3536 3.64727C19.9323 3.24518 19.3723 3.02084 18.7899 3.02084C18.2075 3.02084 17.6474 3.24518 17.2261 3.64727L16.1656 2.58602C16.8616 1.89003 17.8056 1.49902 18.7899 1.49902C19.7741 1.49902 20.7181 1.89003 21.4141 2.58602C22.1101 3.28202 22.5011 4.22599 22.5011 5.21027C22.5011 6.19456 22.1101 7.13853 21.4141 7.83452L17.5861 11.6618C17.2421 12.0075 16.833 12.2816 16.3825 12.4683C15.9319 12.655 15.4488 12.7505 14.9611 12.7493" fill="#27292A"/>
<path d="M18 22.5H3C2.60218 22.5 2.22064 22.342 1.93934 22.0607C1.65804 21.7794 1.5 21.3978 1.5 21V6C1.5 5.60218 1.65804 5.22064 1.93934 4.93934C2.22064 4.65804 2.60218 4.5 3 4.5H6V6H3V21H18V13.5H19.5V21C19.5 21.3978 19.342 21.7794 19.0607 22.0607C18.7794 22.342 18.3978 22.5 18 22.5Z" fill="#27292A"/>
</svg>
