<svg width="24" height="24" viewBox="0 0 24 24" fill="none" xmlns="http://www.w3.org/2000/svg">
<path d="M21.7501 19.5H9.00008C8.80119 19.5 8.61045 19.4209 8.46983 19.2803L1.71983 12.5303C1.57923 12.3896 1.50024 12.1989 1.50024 12C1.50024 11.8011 1.57923 11.6104 1.71983 11.4698L8.46983 4.71975C8.61045 4.57909 8.80119 4.50004 9.00008 4.5H21.7501C21.949 4.5 22.1398 4.57902 22.2804 4.71967C22.4211 4.86032 22.5001 5.05109 22.5001 5.25V18.75C22.5001 18.9489 22.4211 19.1397 22.2804 19.2803C22.1398 19.421 21.949 19.5 21.7501 19.5ZM9.31058 18H21.0001V6H9.31058L3.31058 12L9.31058 18Z" fill="#27292A"/>
<path d="M15.3105 12L18.75 8.5605L17.6895 7.5L14.25 10.9395L10.8105 7.5L9.75 8.5605L13.1895 12L9.75 15.4395L10.8105 16.5L14.25 13.0605L17.6895 16.5L18.75 15.4395L15.3105 12Z" fill="#27292A"/>
</svg>
