<svg width="24" height="24" viewBox="0 0 24 24" fill="none" xmlns="http://www.w3.org/2000/svg">
<path d="M21.621 2.37898C21.0497 1.83323 20.2901 1.52869 19.5 1.52869C18.71 1.52869 17.9503 1.83323 17.379 2.37898L3.03752 16.719C2.54836 17.2053 2.16058 17.7838 1.89666 18.4211C1.63273 19.0584 1.49792 19.7417 1.50002 20.4315V22.5H3.56702C4.25679 22.5021 4.94011 22.3673 5.57738 22.1033C6.21466 21.8394 6.79322 21.4516 7.27952 20.9625L21.621 6.62173C21.8996 6.34315 22.1206 6.01243 22.2714 5.64844C22.4222 5.28445 22.4998 4.89433 22.4998 4.50035C22.4998 4.10637 22.4222 3.71625 22.2714 3.35227C22.1206 2.98828 21.8996 2.65755 21.621 2.37898ZM8.18252 13.695L10.3043 15.8167L8.71277 17.4075L6.59177 15.2865L8.18252 13.695ZM6.21827 19.902C5.87082 20.2511 5.45761 20.5279 5.00255 20.7163C4.54748 20.9048 4.05957 21.0012 3.56702 21H3.00002V20.4307C2.9988 19.9382 3.0952 19.4503 3.28367 18.9952C3.47213 18.5401 3.74892 18.1269 4.09802 17.7795L5.53052 16.347L7.65227 18.468L6.21827 19.902ZM20.5613 5.56048L11.3655 14.7555L9.24377 12.6345L18.4403 3.43948C18.7259 3.1666 19.1057 3.01433 19.5008 3.01433C19.8958 3.01433 20.2756 3.1666 20.5613 3.43948C20.8425 3.72077 21.0005 4.10223 21.0005 4.49998C21.0005 4.89772 20.8425 5.27919 20.5613 5.56048Z" fill="#27292A"/>
</svg>
