<svg xmlns="http://www.w3.org/2000/svg" width="24" height="24" fill="none" viewBox="0 0 24 24"><path fill="currentColor" d="M17.5 10.5v-3a.68.68 0 0 0-.225-.525l-5.25-5.25A.68.68 0 0 0 11.5 1.5H4A1.505 1.505 0 0 0 2.5 3v18A1.5 1.5 0 0 0 4 22.5h12V21H4V3h6v4.5A1.504 1.504 0 0 0 11.5 9H16v1.5zm-6-3V3.3l4.2 4.2z"/><path fill="currentColor" d="M15.352 19c-.071 0-.122-.03-.142-.101l-.232-.99c-.01-.03-.02-.04-.05-.04h-1.89c-.03 0-.04.01-.05.04l-.232.99c-.02.07-.06.101-.131.101h-1.223c-.08 0-.12-.04-.1-.131l1.818-6.838c.02-.07.07-.101.14-.101h1.465c.071 0 .122.03.142.101l1.818 6.838c.02.09-.02.131-.101.131zm-2.091-2.293c-.01.04.02.06.05.06h1.334c.03 0 .06-.02.05-.06l-.697-2.929c-.01-.05-.05-.05-.06 0zM18.171 19a.117.117 0 0 1-.121-.121V12.05c0-.07.05-.121.121-.121h1.182c.07 0 .12.05.12.121v6.828c0 .07-.05.121-.12.121z"/></svg>