<svg width="24" height="24" viewBox="0 0 24 24" fill="none" xmlns="http://www.w3.org/2000/svg">
<path d="M16.5 10.5V7.49998C16.5026 7.40141 16.4839 7.30344 16.4451 7.21281C16.4062 7.12218 16.3482 7.04104 16.275 6.97498L11.025 1.72498C10.9593 1.65138 10.8782 1.59309 10.7875 1.55421C10.6968 1.51534 10.5986 1.49682 10.5 1.49998H3C2.60254 1.50117 2.2217 1.65958 1.94065 1.94063C1.6596 2.22168 1.50119 2.60252 1.5 2.99998V21C1.5 21.3978 1.65804 21.7793 1.93934 22.0606C2.22064 22.3419 2.60218 22.5 3 22.5H15V21H3V2.99998H9V7.49998C9.00119 7.89744 9.1596 8.27828 9.44065 8.55933C9.7217 8.84037 10.1025 8.99879 10.5 8.99998H15V10.5H16.5ZM10.5 7.49998V3.29998L14.7 7.49998H10.5Z" fill="#27292A"/>
<path d="M9.85436 13.0309C9.85436 13.1016 9.80386 13.1521 9.73316 13.1521H7.02636C6.99606 13.1521 6.97586 13.1723 6.97586 13.2026V14.7782C6.97586 14.8085 6.99606 14.8287 7.02636 14.8287H8.71306C8.78376 14.8287 8.83426 14.8792 8.83426 14.9499V15.9296C8.83426 16.0003 8.78376 16.0508 8.71306 16.0508H7.02636C6.99606 16.0508 6.97586 16.071 6.97586 16.1013V17.7274C6.97586 17.7577 6.99606 17.7779 7.02636 17.7779H9.73316C9.80386 17.7779 9.85436 17.8284 9.85436 17.8991V18.8788C9.85436 18.9495 9.80386 19 9.73316 19H5.67296C5.60226 19 5.55176 18.9495 5.55176 18.8788V12.0512C5.55176 11.9805 5.60226 11.93 5.67296 11.93H9.73316C9.80386 11.93 9.85436 11.9805 9.85436 12.0512V13.0309Z" fill="#27292A"/>
<path d="M13.8514 11.9199C15.0836 11.9199 15.9118 12.7986 15.9118 14.0914C15.9118 15.364 15.0836 16.2023 13.8514 16.2023H12.7606C12.7303 16.2023 12.7101 16.2225 12.7101 16.2528V18.8788C12.7101 18.9495 12.6596 19 12.5889 19H11.4072C11.3365 19 11.286 18.9495 11.286 18.8788V12.0411C11.286 11.9704 11.3365 11.9199 11.4072 11.9199H13.8514ZM13.6191 15.0711C14.1342 15.0711 14.4877 14.7075 14.4877 14.1217C14.4877 13.5157 14.1342 13.1521 13.6191 13.1521H12.7606C12.7303 13.1521 12.7101 13.1723 12.7101 13.2026V15.0206C12.7101 15.0509 12.7303 15.0711 12.7606 15.0711H13.6191Z" fill="#27292A"/>
<path d="M19.4089 19.0808C17.9949 19.0808 17.0859 18.2829 17.0859 17.1012V16.8386C17.0859 16.7679 17.1364 16.7174 17.2071 16.7174H18.3686C18.4393 16.7174 18.4898 16.7679 18.4898 16.8386V17.0305C18.4898 17.4951 18.8534 17.8587 19.4594 17.8587C20.0048 17.8587 20.2674 17.5355 20.2674 17.1416C20.2674 16.6669 19.8634 16.4548 19.0352 16.0306C18.1363 15.5761 17.1162 15.0509 17.1162 13.7884C17.1162 12.5966 18.0252 11.8492 19.3281 11.8492C20.6916 11.8492 21.641 12.6774 21.641 13.8995V14.1015C21.641 14.1722 21.5905 14.2227 21.5198 14.2227H20.3583C20.2876 14.2227 20.2371 14.1722 20.2371 14.1015V13.9197C20.2371 13.4551 19.8937 13.0713 19.2978 13.0713C18.8231 13.0713 18.5201 13.3339 18.5201 13.7783C18.5201 14.253 18.8635 14.4651 19.7826 14.9196C20.7623 15.4751 21.6814 15.8993 21.6814 17.081C21.6814 18.3132 20.7724 19.0808 19.4089 19.0808Z" fill="#27292A"/>
</svg>
