<svg xmlns="http://www.w3.org/2000/svg" width="24" height="24" fill="none" viewBox="0 0 24 24"><path fill="currentColor" d="M16.5 10.5v-3a.68.68 0 0 0-.225-.525l-5.25-5.25A.68.68 0 0 0 10.5 1.5H3A1.505 1.505 0 0 0 1.5 3v18A1.5 1.5 0 0 0 3 22.5h12V21H3V3h6v4.5A1.505 1.505 0 0 0 10.5 9H15v1.5zm-6-3V3.3l4.2 4.2z"/><path fill="currentColor" d="M7.081 11.92c1.232 0 2.06.879 2.06 2.171 0 1.273-.828 2.111-2.06 2.111h-1.09c-.031 0-.051.02-.051.05v2.627c0 .07-.05.121-.121.121H4.637a.117.117 0 0 1-.121-.121V12.04c0-.07.05-.121.12-.121zm-.232 3.151c.515 0 .868-.364.868-.95 0-.605-.353-.969-.868-.969H5.99c-.03 0-.05.02-.05.05v1.819c0 .03.02.05.05.05zM13.992 12.051c0-.07.05-.121.121-.121h1.172c.07 0 .121.05.121.121v6.828c0 .07-.05.121-.121.121h-1.232c-.061 0-.112-.02-.142-.09l-1.929-4.112c-.02-.04-.06-.04-.06.01l.01 4.07c0 .072-.05.122-.122.122H10.64a.117.117 0 0 1-.121-.121V12.05c0-.07.05-.121.12-.121h1.223c.06 0 .111.02.141.09l1.93 4.112c.02.04.06.04.06-.01zM19.273 19.08c-1.394 0-2.313-.878-2.313-2.201v-2.838c0-1.323.919-2.192 2.313-2.192 1.383 0 2.313.879 2.313 2.101v.222c0 .07-.05.121-.122.121h-1.181a.117.117 0 0 1-.122-.12v-.213c0-.505-.343-.889-.888-.889-.536 0-.9.384-.9.95v2.888c0 .566.385.95.93.95.525 0 .869-.334.869-.869v-.626c0-.03-.02-.05-.05-.05h-.789a.117.117 0 0 1-.12-.122v-.919c0-.07.05-.121.12-.121h2.131c.071 0 .122.05.122.121v1.606c0 1.363-.93 2.202-2.313 2.202"/></svg>