<svg width="24" height="24" viewBox="0 0 24 24" fill="none" xmlns="http://www.w3.org/2000/svg">
<path d="M16.5 10.5V7.49998C16.5026 7.40141 16.4839 7.30344 16.4451 7.21281C16.4062 7.12218 16.3482 7.04104 16.275 6.97498L11.025 1.72498C10.9593 1.65138 10.8782 1.59309 10.7875 1.55421C10.6968 1.51534 10.5986 1.49682 10.5 1.49998H3C2.60254 1.50117 2.2217 1.65958 1.94065 1.94063C1.6596 2.22168 1.50119 2.60252 1.5 2.99998V21C1.5 21.3978 1.65804 21.7793 1.93934 22.0606C2.22064 22.3419 2.60218 22.5 3 22.5H15V21H3V2.99998H9V7.49998C9.00119 7.89744 9.1596 8.27828 9.44065 8.55933C9.7217 8.84037 10.1025 8.99879 10.5 8.99998H15V10.5H16.5ZM10.5 7.49998V3.29998L14.7 7.49998H10.5Z" fill="#27292A"/>
<path d="M7.08103 11.9199C8.31323 11.9199 9.14143 12.7986 9.14143 14.0914C9.14143 15.364 8.31323 16.2023 7.08103 16.2023H5.99023C5.95993 16.2023 5.93973 16.2225 5.93973 16.2528V18.8788C5.93973 18.9495 5.88923 19 5.81853 19H4.63683C4.56613 19 4.51562 18.9495 4.51562 18.8788V12.0411C4.51562 11.9704 4.56613 11.9199 4.63683 11.9199H7.08103ZM6.84873 15.0711C7.36383 15.0711 7.71733 14.7075 7.71733 14.1217C7.71733 13.5157 7.36383 13.1521 6.84873 13.1521H5.99023C5.95993 13.1521 5.93973 13.1723 5.93973 13.2026V15.0206C5.93973 15.0509 5.95993 15.0711 5.99023 15.0711H6.84873Z" fill="#27292A"/>
<path d="M13.992 12.0512C13.992 11.9805 14.0425 11.93 14.1132 11.93H15.2848C15.3555 11.93 15.406 11.9805 15.406 12.0512V18.8788C15.406 18.9495 15.3555 19 15.2848 19H14.0526C13.992 19 13.9415 18.9798 13.9112 18.9091L11.9821 14.7984C11.9619 14.758 11.9215 14.758 11.9215 14.8085L11.9316 18.8788C11.9316 18.9495 11.8811 19 11.8104 19H10.6388C10.5681 19 10.5176 18.9495 10.5176 18.8788V12.0512C10.5176 11.9805 10.5681 11.93 10.6388 11.93H11.8609C11.9215 11.93 11.972 11.9502 12.0023 12.0209L13.9314 16.1316C13.9516 16.172 13.992 16.172 13.992 16.1215V12.0512Z" fill="#27292A"/>
<path d="M19.2727 19.0808C17.8789 19.0808 16.9598 18.2021 16.9598 16.879V14.0409C16.9598 12.7178 17.8789 11.8492 19.2727 11.8492C20.6564 11.8492 21.5856 12.7279 21.5856 13.95V14.1722C21.5856 14.2429 21.5351 14.2934 21.4644 14.2934H20.2827C20.212 14.2934 20.1615 14.2429 20.1615 14.1722V13.9601C20.1615 13.4551 19.8181 13.0713 19.2727 13.0713C18.7374 13.0713 18.3738 13.4551 18.3738 14.0207V16.9093C18.3738 17.4749 18.7576 17.8587 19.303 17.8587C19.8282 17.8587 20.1716 17.5254 20.1716 16.9901V16.3639C20.1716 16.3336 20.1514 16.3134 20.1211 16.3134H19.3333C19.2626 16.3134 19.2121 16.2629 19.2121 16.1922V15.2731C19.2121 15.2024 19.2626 15.1519 19.3333 15.1519H21.4644C21.5351 15.1519 21.5856 15.2024 21.5856 15.2731V16.879C21.5856 18.2425 20.6564 19.0808 19.2727 19.0808Z" fill="#27292A"/>
</svg>
