<svg width="24" height="24" viewBox="0 0 24 24" fill="none" xmlns="http://www.w3.org/2000/svg">
<path d="M16.5 10.5V7.49998C16.5026 7.40141 16.4839 7.30344 16.4451 7.21281C16.4062 7.12218 16.3482 7.04104 16.275 6.97498L11.025 1.72498C10.9593 1.65138 10.8782 1.59309 10.7875 1.55421C10.6968 1.51534 10.5986 1.49682 10.5 1.49998H3C2.60254 1.50117 2.2217 1.65958 1.94065 1.94063C1.6596 2.22168 1.50119 2.60252 1.5 2.99998V21C1.5 21.3978 1.65804 21.7793 1.93934 22.0606C2.22064 22.3419 2.60218 22.5 3 22.5H15V21H3V2.99998H9V7.49998C9.00119 7.89744 9.1596 8.27828 9.44065 8.55933C9.7217 8.84037 10.1025 8.99879 10.5 8.99998H15V10.5H16.5ZM10.5 7.49998V3.29998L14.7 7.49998H10.5Z" fill="#27292A"/>
<path d="M7.57447 19.0808C6.16046 19.0808 5.25146 18.2829 5.25146 17.1012V16.8386C5.25146 16.7679 5.30196 16.7174 5.37266 16.7174H6.53417C6.60487 16.7174 6.65536 16.7679 6.65536 16.8386V17.0305C6.65536 17.4951 7.01896 17.8587 7.62496 17.8587C8.17037 17.8587 8.43297 17.5355 8.43297 17.1416C8.43297 16.6669 8.02897 16.4548 7.20077 16.0306C6.30186 15.5761 5.28176 15.0509 5.28176 13.7884C5.28176 12.5966 6.19076 11.8492 7.49367 11.8492C8.85717 11.8492 9.80657 12.6774 9.80657 13.8995V14.1015C9.80657 14.1722 9.75607 14.2227 9.68537 14.2227H8.52387C8.45317 14.2227 8.40267 14.1722 8.40267 14.1015V13.9197C8.40267 13.4551 8.05927 13.0713 7.46337 13.0713C6.98867 13.0713 6.68567 13.3339 6.68567 13.7783C6.68567 14.253 7.02907 14.4651 7.94817 14.9196C8.92787 15.4751 9.84697 15.8993 9.84697 17.081C9.84697 18.3132 8.93797 19.0808 7.57447 19.0808Z" fill="#27292A"/>
<path d="M12.7452 19C12.6745 19 12.624 18.9697 12.6038 18.899L10.8464 12.0613C10.8262 11.9704 10.8767 11.93 10.9575 11.93H12.2402C12.3109 11.93 12.3614 11.9704 12.3715 12.0411L13.3916 16.7376C13.4017 16.7881 13.4421 16.7881 13.4522 16.7376L14.4622 12.0411C14.4723 11.9704 14.5228 11.93 14.5935 11.93H15.8358C15.9166 11.93 15.9671 11.9704 15.9469 12.0613L14.1693 18.899C14.1491 18.9697 14.0986 19 14.0279 19H12.7452Z" fill="#27292A"/>
<path d="M19.2728 19.0808C17.879 19.0808 16.9599 18.2021 16.9599 16.879V14.0409C16.9599 12.7178 17.879 11.8492 19.2728 11.8492C20.6565 11.8492 21.5857 12.7279 21.5857 13.95V14.1722C21.5857 14.2429 21.5352 14.2934 21.4645 14.2934H20.2828C20.2121 14.2934 20.1616 14.2429 20.1616 14.1722V13.9601C20.1616 13.4551 19.8182 13.0713 19.2728 13.0713C18.7375 13.0713 18.3739 13.4551 18.3739 14.0207V16.9093C18.3739 17.4749 18.7577 17.8587 19.3031 17.8587C19.8283 17.8587 20.1717 17.5254 20.1717 16.9901V16.3639C20.1717 16.3336 20.1515 16.3134 20.1212 16.3134H19.3334C19.2627 16.3134 19.2122 16.2629 19.2122 16.1922V15.2731C19.2122 15.2024 19.2627 15.1519 19.3334 15.1519H21.4645C21.5352 15.1519 21.5857 15.2024 21.5857 15.2731V16.879C21.5857 18.2425 20.6565 19.0808 19.2728 19.0808Z" fill="#27292A"/>
</svg>
