<svg xmlns="http://www.w3.org/2000/svg" width="24" height="24" fill="none" viewBox="0 0 24 24"><path fill="currentColor" d="M16.5 10.5v-3a.68.68 0 0 0-.225-.525l-5.25-5.25A.68.68 0 0 0 10.5 1.5H3A1.505 1.505 0 0 0 1.5 3v18A1.5 1.5 0 0 0 3 22.5h12V21H3V3h6v4.5A1.505 1.505 0 0 0 10.5 9H15v1.5zm-6-3V3.3l4.2 4.2z"/><path fill="currentColor" d="M9.854 13.03c0 .072-.05.122-.12.122H7.025c-.03 0-.05.02-.05.05v1.576c0 .03.02.05.05.05h1.687c.07 0 .121.051.121.122v.98c0 .07-.05.12-.12.12H7.025c-.03 0-.05.021-.05.051v1.626c0 .03.02.05.05.05h2.707c.07 0 .121.051.121.122v.98c0 .07-.05.121-.12.121H5.672a.117.117 0 0 1-.121-.121V12.05c0-.07.05-.121.121-.121h4.06c.07 0 .121.05.121.121zM13.851 11.92c1.233 0 2.06.879 2.06 2.171 0 1.273-.827 2.111-2.06 2.111h-1.09c-.03 0-.05.02-.05.05v2.627c0 .07-.051.121-.122.121h-1.182a.117.117 0 0 1-.121-.121V12.04c0-.07.05-.121.121-.121zm-.232 3.151c.515 0 .869-.364.869-.95 0-.605-.354-.969-.869-.969h-.858c-.03 0-.05.02-.05.05v1.819c0 .03.02.05.05.05zM19.409 19.08c-1.414 0-2.323-.797-2.323-1.979v-.262c0-.071.05-.122.121-.122h1.162c.07 0 .12.05.12.122v.192c0 .464.364.828.97.828.546 0 .808-.324.808-.717 0-.475-.404-.687-1.232-1.111-.899-.455-1.919-.98-1.919-2.243 0-1.191.91-1.939 2.212-1.939 1.364 0 2.313.828 2.313 2.05v.203c0 .07-.05.12-.121.12h-1.162a.117.117 0 0 1-.12-.12v-.182c0-.465-.344-.849-.94-.849-.475 0-.778.263-.778.707 0 .475.343.687 1.263 1.142.98.555 1.898.98 1.898 2.161 0 1.232-.909 2-2.272 2"/></svg>