<svg width="24" height="24" viewBox="0 0 24 24" fill="none" xmlns="http://www.w3.org/2000/svg">
<path d="M17.5 10.5V7.49998C17.5026 7.40141 17.4839 7.30344 17.4451 7.21281C17.4062 7.12218 17.3482 7.04104 17.275 6.97498L12.025 1.72498C11.9593 1.65138 11.8782 1.59309 11.7875 1.55421C11.6968 1.51534 11.5986 1.49682 11.5 1.49998H4C3.60254 1.50117 3.2217 1.65958 2.94065 1.94063C2.6596 2.22168 2.50119 2.60252 2.5 2.99998V21C2.5 21.3978 2.65804 21.7793 2.93934 22.0606C3.22064 22.3419 3.60218 22.5 4 22.5H16V21H4V2.99998H10V7.49998C10.0012 7.89744 10.1596 8.27828 10.4407 8.55933C10.7217 8.84037 11.1025 8.99879 11.5 8.99998H16V10.5H17.5ZM11.5 7.49998V3.29998L15.7 7.49998H11.5Z" fill="#27292A"/>
<path d="M15.3516 19C15.2809 19 15.2304 18.9697 15.2102 18.899L14.9779 17.9092C14.9678 17.8789 14.9577 17.8688 14.9274 17.8688H13.0387C13.0084 17.8688 12.9983 17.8789 12.9882 17.9092L12.7559 18.899C12.7357 18.9697 12.6953 19 12.6246 19H11.4025C11.3217 19 11.2813 18.9596 11.3015 18.8687L13.1195 12.031C13.1397 11.9603 13.1902 11.93 13.2609 11.93H14.7254C14.7961 11.93 14.8466 11.9603 14.8668 12.031L16.6848 18.8687C16.705 18.9596 16.6646 19 16.5838 19H15.3516ZM13.2609 16.7073C13.2508 16.7477 13.2811 16.7679 13.3114 16.7679H14.6446C14.6749 16.7679 14.7052 16.7477 14.6951 16.7073L13.9982 13.7783C13.9881 13.7278 13.9477 13.7278 13.9376 13.7783L13.2609 16.7073Z" fill="#27292A"/>
<path d="M18.171 19C18.1003 19 18.0498 18.9495 18.0498 18.8788V12.0512C18.0498 11.9805 18.1003 11.93 18.171 11.93H19.3527C19.4234 11.93 19.4739 11.9805 19.4739 12.0512V18.8788C19.4739 18.9495 19.4234 19 19.3527 19H18.171Z" fill="#27292A"/>
</svg>
