<svg xmlns="http://www.w3.org/2000/svg" width="24" height="24" fill="none" viewBox="0 0 24 24"><path fill="currentColor" d="M16.5 10.5v-3a.68.68 0 0 0-.225-.525l-5.25-5.25A.68.68 0 0 0 10.5 1.5H3A1.505 1.505 0 0 0 1.5 3v18A1.5 1.5 0 0 0 3 22.5h12V21H3V3h6v4.5A1.505 1.505 0 0 0 10.5 9H15v1.5zm-6-3V3.3l4.2 4.2z"/><path fill="currentColor" d="M8.028 11.92c1.232 0 2.06.879 2.06 2.171 0 1.273-.828 2.111-2.06 2.111H6.937c-.03 0-.05.02-.05.05v2.627c0 .07-.051.121-.122.121H5.584a.117.117 0 0 1-.122-.121V12.04c0-.07.05-.121.122-.121zm-.233 3.151c.516 0 .87-.364.87-.95 0-.605-.354-.969-.87-.969h-.858c-.03 0-.05.02-.05.05v1.819c0 .03.02.05.05.05zM11.586 19a.117.117 0 0 1-.122-.121V12.05c0-.07.05-.121.121-.121h2.172c1.374 0 2.283.808 2.283 2.05v2.97c0 1.242-.91 2.05-2.283 2.05zm1.302-1.273c0 .03.02.05.05.05l.83-.01c.494 0 .827-.383.848-.979v-2.646c0-.606-.334-.99-.849-.99h-.828c-.03 0-.05.02-.05.05zM21.876 13.03c0 .072-.05.122-.12.122h-2.698c-.03 0-.05.02-.05.05v1.576c0 .03.02.05.05.05h1.677c.07 0 .121.051.121.122v.98c0 .07-.05.12-.12.12h-1.678c-.03 0-.05.021-.05.051v2.778c0 .07-.05.121-.121.121h-1.182a.117.117 0 0 1-.121-.121V12.05c0-.07.05-.121.121-.121h4.05c.07 0 .121.05.121.121z"/></svg>