<svg xmlns="http://www.w3.org/2000/svg" width="24" height="24" fill="none" viewBox="0 0 24 24"><path fill="currentColor" d="M16.5 10.5v-3a.68.68 0 0 0-.225-.525l-5.25-5.25A.68.68 0 0 0 10.5 1.5H3A1.505 1.505 0 0 0 1.5 3v18A1.5 1.5 0 0 0 3 22.5h12V21H3V3h6v4.5A1.505 1.505 0 0 0 10.5 9H15v1.5zm-6-3V3.3l4.2 4.2z"/><path fill="currentColor" d="M9.621 13.03c0 .072-.05.122-.121.122H7.4c-.031 0-.051.02-.051.05v1.596c0 .03.02.05.05.05h1.202c.07 0 .121.051.121.122v.98c0 .07-.05.121-.12.121H7.398c-.03 0-.05.02-.05.05v2.758c0 .07-.05.121-.122.121H6.046a.117.117 0 0 1-.121-.121V12.05c0-.07.05-.121.12-.121H9.5c.07 0 .121.05.121.121zM10.7 19a.117.117 0 0 1-.12-.121V12.05c0-.07.05-.121.12-.121h1.183c.07 0 .12.05.12.121v6.828c0 .07-.05.121-.12.121zM13.433 19a.117.117 0 0 1-.122-.121V12.05c0-.07.05-.121.122-.121h1.181c.071 0 .121.05.121.121v5.676c0 .03.02.05.051.05h2.121c.07 0 .121.051.121.122v.98c0 .07-.05.121-.121.121zM21.723 13.03c0 .072-.051.122-.122.122h-2.11c-.03 0-.051.02-.051.05v1.596c0 .03.02.05.05.05h1.212c.071 0 .122.051.122.122v.98c0 .07-.05.121-.122.121H19.49c-.03 0-.05.02-.05.05v1.606c0 .03.02.05.05.05h2.111c.071 0 .122.051.122.122v.98c0 .07-.051.121-.122.121h-3.464a.117.117 0 0 1-.121-.121V12.05c0-.07.05-.121.121-.121h3.464c.071 0 .122.05.122.121z"/></svg>