<svg width="24" height="24" viewBox="0 0 24 24" fill="none" xmlns="http://www.w3.org/2000/svg">
<path d="M6 22.5C6.89002 22.5 7.76005 22.2361 8.50007 21.7416C9.24009 21.2471 9.81686 20.5443 10.1575 19.7221C10.4981 18.8998 10.5872 17.995 10.4135 17.1221C10.2399 16.2492 9.81132 15.4474 9.18198 14.818C8.55264 14.1887 7.75082 13.7601 6.87791 13.5865C6.00499 13.4128 5.10019 13.5019 4.27792 13.8425C3.45566 14.1831 2.75285 14.7599 2.25839 15.4999C1.76392 16.24 1.5 17.11 1.5 18C1.50139 19.193 1.97594 20.3368 2.81955 21.1804C3.66317 22.0241 4.80695 22.4986 6 22.5ZM6 15C6.59334 15 7.17336 15.1759 7.66671 15.5056C8.16006 15.8352 8.54458 16.3038 8.77164 16.852C8.9987 17.4001 9.05811 18.0033 8.94236 18.5853C8.8266 19.1672 8.54088 19.7018 8.12132 20.1213C7.70176 20.5409 7.16721 20.8266 6.58527 20.9424C6.00333 21.0581 5.40013 20.9987 4.85195 20.7716C4.30377 20.5446 3.83524 20.1601 3.50559 19.6667C3.17595 19.1734 3 18.5933 3 18C3.00099 17.2047 3.31738 16.4422 3.87978 15.8798C4.44217 15.3174 5.20465 15.001 6 15ZM18 16.5H12V18H18V16.5ZM18 12H10.5V13.5H18V12Z" fill="#27292A"/>
<path d="M12 21H19.5V2.99998H13.5V7.49998C13.4988 7.89744 13.3404 8.27828 13.0593 8.55933C12.7783 8.84037 12.3975 8.99879 12 8.99998H7.5V11.25H6V7.49998C5.99735 7.40141 6.0161 7.30344 6.05494 7.21281C6.09378 7.12218 6.1518 7.04104 6.225 6.97498L11.475 1.72498C11.5407 1.65138 11.6218 1.59309 11.7125 1.55421C11.8032 1.51534 11.9014 1.49682 12 1.49998H19.5C19.8975 1.50117 20.2783 1.65958 20.5593 1.94063C20.8404 2.22168 20.9988 2.60252 21 2.99998V21C20.9988 21.3974 20.8404 21.7783 20.5593 22.0593C20.2783 22.3404 19.8975 22.4988 19.5 22.5H12V21ZM12 3.29998L7.8 7.49998H12V3.29998Z" fill="#27292A"/>
<path d="M6 16V18L7.5 19.5" stroke="#27292A" stroke-width="1.5"/>
</svg>
