<svg width="24" height="24" viewBox="0 0 24 24" fill="none" xmlns="http://www.w3.org/2000/svg">
<path d="M1.5 16.5H22.5V18H1.5V16.5ZM1.5 19.5H22.5V21H1.5V19.5ZM18 7.5C17.7033 7.5 17.4133 7.58798 17.1666 7.7528C16.92 7.91762 16.7277 8.15189 16.6142 8.42598C16.5006 8.70007 16.4709 9.00167 16.5288 9.29264C16.5867 9.58361 16.7296 9.85088 16.9393 10.0607C17.1491 10.2704 17.4164 10.4133 17.7074 10.4712C17.9983 10.5291 18.2999 10.4994 18.574 10.3858C18.8481 10.2723 19.0824 10.08 19.2472 9.83336C19.412 9.58668 19.5 9.29667 19.5 9C19.5 8.60218 19.342 8.22065 19.0607 7.93934C18.7794 7.65804 18.3978 7.5 18 7.5ZM12 12C11.4067 12 10.8266 11.8241 10.3333 11.4944C9.83994 11.1648 9.45542 10.6962 9.22836 10.1481C9.0013 9.59987 8.94189 8.99667 9.05764 8.41473C9.1734 7.83279 9.45912 7.29824 9.87868 6.87868C10.2982 6.45912 10.8328 6.1734 11.4147 6.05765C11.9967 5.94189 12.5999 6.0013 13.1481 6.22836C13.6962 6.45543 14.1648 6.83994 14.4944 7.33329C14.8241 7.82664 15 8.40666 15 9C14.999 9.79535 14.6826 10.5578 14.1202 11.1202C13.5578 11.6826 12.7953 11.999 12 12ZM12 7.5C11.7033 7.5 11.4133 7.58798 11.1666 7.7528C10.92 7.91762 10.7277 8.15189 10.6142 8.42598C10.5006 8.70007 10.4709 9.00167 10.5288 9.29264C10.5867 9.58361 10.7296 9.85088 10.9393 10.0607C11.1491 10.2704 11.4164 10.4133 11.7074 10.4712C11.9983 10.5291 12.2999 10.4994 12.574 10.3858C12.8481 10.2723 13.0824 10.08 13.2472 9.83336C13.412 9.58668 13.5 9.29667 13.5 9C13.5 8.60218 13.342 8.22065 13.0607 7.93934C12.7794 7.65804 12.3978 7.5 12 7.5ZM6 7.5C5.70333 7.5 5.41332 7.58798 5.16664 7.7528C4.91997 7.91762 4.72771 8.15189 4.61418 8.42598C4.50065 8.70007 4.47094 9.00167 4.52882 9.29264C4.5867 9.58361 4.72956 9.85088 4.93934 10.0607C5.14912 10.2704 5.41639 10.4133 5.70736 10.4712C5.99834 10.5291 6.29994 10.4994 6.57403 10.3858C6.84811 10.2723 7.08238 10.08 7.2472 9.83336C7.41203 9.58668 7.5 9.29667 7.5 9C7.5 8.60218 7.34196 8.22065 7.06066 7.93934C6.77936 7.65804 6.39782 7.5 6 7.5Z" fill="#27292A"/>
<path d="M21 15H3C2.60248 14.999 2.22152 14.8407 1.94043 14.5596C1.65934 14.2785 1.50099 13.8975 1.5 13.5V4.5C1.50099 4.10248 1.65934 3.72152 1.94043 3.44043C2.22152 3.15934 2.60248 3.00099 3 3H21C21.3975 3.00099 21.7785 3.15934 22.0596 3.44043C22.3407 3.72152 22.499 4.10248 22.5 4.5V13.5C22.4994 13.8976 22.3412 14.2788 22.06 14.56C21.7788 14.8412 21.3976 14.9994 21 15ZM21 4.5H3V13.5H21V4.5Z" fill="#27292A"/>
</svg>
