<svg xmlns="http://www.w3.org/2000/svg" width="24" height="24" fill="none" viewBox="0 0 24 24"><path fill="currentColor" d="M9.675 5.25C9.375 3.975 8.175 3 6.75 3s-2.55.975-2.925 2.25H1.5v1.5h2.325C4.125 8.025 5.325 9 6.75 9s2.55-.975 2.925-2.25H22.5v-1.5zM6.75 7.5c-.825 0-1.5-.675-1.5-1.5s.675-1.5 1.5-1.5 1.5.675 1.5 1.5-.675 1.5-1.5 1.5M17.25 9c-1.425 0-2.55.975-2.925 2.25H1.5v1.5h12.825c.3 1.275 1.5 2.25 2.925 2.25s2.55-.975 2.925-2.25H22.5v-1.5h-2.325c-.3-1.275-1.5-2.25-2.925-2.25m0 4.5c-.825 0-1.5-.675-1.5-1.5s.675-1.5 1.5-1.5 1.5.675 1.5 1.5-.675 1.5-1.5 1.5M10.5 15c-1.425 0-2.55.975-2.925 2.25H1.5v1.5h6.075c.3 1.275 1.5 2.25 2.925 2.25s2.55-.975 2.925-2.25H22.5v-1.5h-9.075c-.3-1.275-1.5-2.25-2.925-2.25m0 4.5c-.825 0-1.5-.675-1.5-1.5s.675-1.5 1.5-1.5 1.5.675 1.5 1.5-.675 1.5-1.5 1.5"/></svg>