<svg width="24" height="24" viewBox="0 0 24 24" fill="none" xmlns="http://www.w3.org/2000/svg">
<path d="M21 2.2002C21.718 2.2002 22.2998 2.78203 22.2998 3.5V10.5C22.2998 11.218 21.718 11.7998 21 11.7998H18.2998V21.7998H5.7002V11.7998H3C2.28203 11.7998 1.7002 11.218 1.7002 10.5V3.5C1.7002 2.78203 2.28203 2.2002 3 2.2002H21ZM7.2998 20.2002H16.7002V7.7998H7.2998V20.2002ZM3.2998 10.2002H5.7002V6.2002H18.2998V10.2002H20.7002V3.7998H3.2998V10.2002Z" fill="#27292A"/>
<path d="M9 10H15V11.6H9V10ZM9 13.2H15V14.8H9V13.2ZM9 16.4H12V18H9V16.4Z" fill="#27292A"/>
</svg>
