<svg xmlns="http://www.w3.org/2000/svg" width="24" height="24" fill="none" viewBox="0 0 24 24"><path stroke="currentColor" stroke-linecap="round" stroke-linejoin="round" stroke-width="1.5" d="M11.48 3.499a.562.562 0 0 1 1.04 0l2.125 5.111a.56.56 0 0 0 .475.345l5.518.442c.499.04.7.663.32.988l-4.203 3.602a.56.56 0 0 0-.182.557l1.285 5.385a.562.562 0 0 1-.84.61l-4.725-2.885a.56.56 0 0 0-.586 0L6.982 20.54a.562.562 0 0 1-.84-.61l1.285-5.386a.56.56 0 0 0-.182-.557L3.04 10.385a.562.562 0 0 1 .32-.988l5.519-.442a.56.56 0 0 0 .475-.345z"/></svg>