<svg xmlns="http://www.w3.org/2000/svg" width="24" height="24" fill="none" viewBox="0 0 24 24"><path fill="currentColor" d="M21 16.489a4.5 4.5 0 0 0-.116-1.002l1.616-.62-.538-1.4-1.654.634a4.5 4.5 0 0 0-1.318-1.357l.728-1.634-1.37-.61-.729 1.635a4.5 4.5 0 0 0-1.119-.146c-.387 0-.76.054-1.119.146l-.728-1.635-1.37.61.727 1.633a4.5 4.5 0 0 0-1.318 1.358l-1.654-.635-.538 1.4 1.616.62A4.5 4.5 0 0 0 12 16.49q.002.495.105.96l-1.605.714.61 1.37 1.56-.694c.33.539.77 1.002 1.29 1.36l-.678 1.763 1.4.538.643-1.672c.375.102.768.16 1.175.16s.8-.06 1.175-.16l.642 1.672 1.4-.538-.677-1.762c.521-.358.96-.822 1.29-1.36l1.56.694.61-1.37-1.605-.715c.067-.31.105-.63.105-.96m-4.5 3c-1.655 0-3-1.347-3-3s1.345-3 3-3c1.654 0 3 1.345 3 3 0 1.654-1.346 3-3 3m-6.397-8.325 1.11 1.109 1.06-1.06-1.11-1.11a4.5 4.5 0 0 0 .77-1.852H13.5V6.75h-1.568a4.5 4.5 0 0 0-.768-1.854l1.109-1.11-1.06-1.06-1.11 1.11a4.5 4.5 0 0 0-1.853-.768V1.5h-1.5v1.568a4.5 4.5 0 0 0-1.853.768l-1.11-1.109-1.06 1.06 1.11 1.11a4.5 4.5 0 0 0-.77 1.853H1.5v1.5h1.568a4.5 4.5 0 0 0 .768 1.853l-1.109 1.11 1.06 1.06 1.11-1.11a4.5 4.5 0 0 0 1.853.77V13.5h1.5v-1.568a4.5 4.5 0 0 0 1.853-.768M4.5 7.5c0-1.654 1.346-3 3-3 1.655 0 3 1.346 3 3 0 1.655-1.345 3-3 3-1.654 0-3-1.345-3-3"/></svg>