<svg width="24" height="24" viewBox="0 0 24 24" fill="none" xmlns="http://www.w3.org/2000/svg">
<path d="M21 16.4888C20.9989 16.1514 20.9599 15.8153 20.8837 15.4867L22.5 14.8665L21.9622 13.4662L20.3078 14.1015C19.9697 13.5607 19.5205 13.098 18.99 12.744L19.7175 11.1097L18.3472 10.5L17.619 12.135C17.2605 12.0428 16.887 11.9887 16.5 11.9887C16.113 11.9887 15.7395 12.0428 15.381 12.135L14.6535 10.5L13.2825 11.1105L14.01 12.7432C13.4795 13.0973 13.0303 13.56 12.6923 14.1007L11.0378 13.4662L10.5 14.8665L12.1163 15.4867C12.0401 15.8153 12.0011 16.1514 12 16.4888C12 16.8188 12.0375 17.139 12.105 17.4487L10.5 18.1635L11.1097 19.5338L12.6698 18.8392C12.9995 19.378 13.4391 19.8413 13.9598 20.199L13.2825 21.9622L14.6827 22.5L15.3248 20.8275C15.6998 20.9295 16.0927 20.9888 16.5 20.9888C16.9073 20.9888 17.2995 20.9287 17.6752 20.8275L18.3172 22.5L19.7175 21.9622L19.0402 20.1998C19.561 19.8419 20.0005 19.3783 20.3302 18.8392L21.8903 19.5338L22.5 18.1635L20.895 17.4487C20.9625 17.139 21 16.8188 21 16.4888ZM16.5 19.4888C14.8455 19.4888 13.5 18.1425 13.5 16.4888C13.5 14.835 14.8455 13.4888 16.5 13.4888C18.1545 13.4888 19.5 14.8343 19.5 16.4888C19.5 18.1432 18.1545 19.4888 16.5 19.4888ZM10.1032 11.1637L11.2125 12.273L12.273 11.2125L11.1637 10.1032C11.557 9.55195 11.8199 8.91851 11.9325 8.25075H13.5V6.75H11.9325C11.8201 6.08172 11.5572 5.44774 11.1637 4.896L12.273 3.78675L11.2125 2.72625L10.1032 3.8355C9.55166 3.4424 8.91796 3.17978 8.25 3.0675V1.5H6.75V3.0675C6.08198 3.18001 5.44827 3.44288 4.89675 3.83625L3.7875 2.727L2.727 3.7875L3.83625 4.8975C3.44298 5.4488 3.18012 6.08224 3.0675 6.75H1.5V8.25H3.0675C3.18001 8.91802 3.44288 9.55173 3.83625 10.1032L2.727 11.2125L3.7875 12.273L4.89675 11.1637C5.44827 11.5571 6.08198 11.82 6.75 11.9325V13.5H8.25V11.9325C8.91802 11.82 9.55173 11.5571 10.1032 11.1637ZM4.5 7.5C4.5 5.8455 5.8455 4.5 7.5 4.5C9.1545 4.5 10.5 5.8455 10.5 7.5C10.5 9.1545 9.1545 10.5 7.5 10.5C5.8455 10.5 4.5 9.1545 4.5 7.5Z" fill="black"/>
</svg>
