<svg width="24" height="24" viewBox="0 0 24 24" fill="none" xmlns="http://www.w3.org/2000/svg">
<path d="M21.4971 9.95508V5C21.4971 4.72388 21.2732 4.50004 20.9971 4.5H3C2.72386 4.5 2.5 4.72386 2.5 5V9.95508C2.5 10.2312 2.72386 10.4551 3 10.4551H7.20801V11.4551H3C2.17157 11.4551 1.5 10.7835 1.5 9.95508V5C1.5 4.17157 2.17157 3.5 3 3.5H20.9971C21.8255 3.50004 22.4971 4.1716 22.4971 5V9.95508C22.4971 10.7835 21.8255 11.455 20.9971 11.4551H16.7891V10.4551H20.9971C21.2732 10.455 21.4971 10.2312 21.4971 9.95508Z" fill="#27292A"/>
<path d="M3.86963 20.5186H2.86963L2.86963 10.9551H3.86963L3.86963 20.5186Z" fill="#27292A"/>
<path d="M19.7065 20.5186H18.7065V10.9551H19.7065V20.5186Z" fill="#27292A"/>
<path d="M5.6084 20.5186H4.6084L4.6084 10.9551H5.6084L5.6084 20.5186Z" fill="#27292A"/>
<path d="M21.4453 20.5186H20.4453V10.9551H21.4453V20.5186Z" fill="#27292A"/>
<path d="M5.66821 19.665C5.94436 19.665 6.16821 19.8888 6.16821 20.165C6.16821 20.4411 5.94436 20.665 5.66821 20.665H2.5022C2.22605 20.665 2.0022 20.4411 2.0022 20.165C2.0022 19.8888 2.22605 19.665 2.5022 19.665H5.66821Z" fill="#27292A"/>
<path d="M21.5007 19.665C21.7769 19.665 22.0007 19.8888 22.0007 20.165C22.0007 20.4411 21.7769 20.665 21.5007 20.665H18.3347C18.0586 20.665 17.8347 20.4411 17.8347 20.165C17.8347 19.8888 18.0586 19.665 18.3347 19.665H21.5007Z" fill="#27292A"/>
<path d="M16.2156 17.3447V18.3447H7.78198V17.3447H16.2156ZM16.2156 8.47754H7.78198V18.3447C7.2297 18.3447 6.78198 17.897 6.78198 17.3447V8.47754C6.78198 7.92525 7.2297 7.47754 7.78198 7.47754H16.2156L16.3171 7.48242C16.8215 7.53348 17.2156 7.95966 17.2156 8.47754V17.3447L17.2097 17.4473C17.1618 17.9179 16.7879 18.2922 16.3171 18.3398L16.2156 18.3447V8.47754Z" fill="#27292A"/>
<path d="M7.2168 8.21631V9.21631H2V8.21631H7.2168Z" fill="#27292A"/>
<path d="M7.21704 15.1713L7.21704 16.1713L5.04321 16.1713L5.04321 15.1713L7.21704 15.1713Z" fill="#27292A"/>
<path d="M19.3889 15.1713V16.1713H16.7805V15.1713H19.3889Z" fill="#27292A"/>
<path d="M21.9973 8.21631L21.9973 9.21631L16.7805 9.21631L16.7805 8.21631L21.9973 8.21631Z" fill="#27292A"/>
<path d="M18.4539 5.17346C18.73 5.17346 18.9539 5.39732 18.9539 5.67346C18.9539 5.9496 18.73 6.17346 18.4539 6.17346L15.9763 6.17346C15.7002 6.17346 15.4763 5.9496 15.4763 5.67346C15.4763 5.39732 15.7002 5.17346 15.9763 5.17346L18.4539 5.17346Z" fill="#27292A"/>
<path d="M20.324 5.17346C20.6001 5.17346 20.824 5.39732 20.824 5.67346C20.824 5.9496 20.6001 6.17346 20.324 6.17346L19.7585 6.17346C19.4825 6.17338 19.2585 5.94956 19.2585 5.67346C19.2585 5.39737 19.4825 5.17354 19.7585 5.17346L20.324 5.17346Z" fill="#27292A"/>
<path d="M14.5415 9.52039C14.8176 9.52039 15.0415 9.74424 15.0415 10.0204C15.0415 10.2965 14.8176 10.5204 14.5415 10.5204H9.45557C9.17942 10.5204 8.95557 10.2965 8.95557 10.0204C8.95557 9.74424 9.17942 9.52039 9.45557 9.52039H14.5415Z" fill="#27292A"/>
<path d="M14.5415 11.6938C14.8176 11.6938 15.0415 11.9177 15.0415 12.1938C15.0415 12.47 14.8176 12.6938 14.5415 12.6938H9.45557C9.17942 12.6938 8.95557 12.47 8.95557 12.1938C8.95557 11.9177 9.17942 11.6938 9.45557 11.6938H14.5415Z" fill="#27292A"/>
<path d="M14.0415 15.1718V16.1718H9.95557V15.1718H14.0415ZM14.0415 14.9979H9.95557V16.1718L9.85303 16.1659C9.38243 16.1179 9.00809 15.744 8.96045 15.2733L8.95557 15.1718V14.9979C8.95557 14.4456 9.40328 13.9979 9.95557 13.9979H14.0415C14.5938 13.9979 15.0415 14.4456 15.0415 14.9979V15.1718L15.0366 15.2733C14.989 15.744 14.6147 16.118 14.144 16.1659L14.0415 16.1718V14.9979Z" fill="#27292A"/>
</svg>
