<svg xmlns="http://www.w3.org/2000/svg" width="24" height="24" fill="none" viewBox="0 0 24 24"><path fill="currentColor" d="M16.25 8.25A.25.25 0 0 0 16 8H8a.25.25 0 0 0-.25.25v9c0 .138.112.25.25.25h8a.25.25 0 0 0 .25-.25zm1.5 9A1.75 1.75 0 0 1 16 19H8a1.75 1.75 0 0 1-1.75-1.75v-9c0-.966.784-1.75 1.75-1.75h8c.966 0 1.75.784 1.75 1.75zM20.7 20.25h-1.5v-9h1.5z"/><path fill="currentColor" d="M21.25 19.25a.75.75 0 0 1 0 1.5h-2.5a.75.75 0 0 1 0-1.5zM4.9 20.25H3.4v-9h1.5z"/><path fill="currentColor" d="M5.45 19.25a.75.75 0 0 1 0 1.5h-2.5a.75.75 0 0 1 0-1.5zM21 3.5c.966 0 1.75.784 1.75 1.75v5A1.75 1.75 0 0 1 21 12h-4v-1.5h4a.25.25 0 0 0 .25-.25v-5A.25.25 0 0 0 21 5H3a.25.25 0 0 0-.25.25v5c0 .138.112.25.25.25h4V12H3a1.75 1.75 0 0 1-1.75-1.75v-5c0-.966.784-1.75 1.75-1.75z"/></svg>