<svg width="24" height="24" viewBox="0 0 24 24" fill="none" xmlns="http://www.w3.org/2000/svg">
<path d="M18.6172 5.23529C18.6172 4.40686 17.9456 3.73529 17.1172 3.73529H7C6.17157 3.73529 5.5 4.40686 5.5 5.23529V18.8828C5.50022 19.711 6.17171 20.3828 7 20.3828H13.2354V21.3828H7C5.61942 21.3828 4.50022 20.2633 4.5 18.8828V5.23529C4.5 3.85458 5.61929 2.73529 7 2.73529H17.1172C18.4979 2.73529 19.6172 3.85458 19.6172 5.23529V10.0536H18.6172V5.23529Z" fill="#27292A"/>
<path d="M7 6H17V8H7V6Z" fill="#27292A"/>
<path d="M7 10H8.32353V11.3235H7V10Z" fill="#27292A"/>
<path d="M7 13.5294H8.32353V14.8529H7V13.5294Z" fill="#27292A"/>
<path d="M7 17.0588H8.32353V18.3824H7V17.0588Z" fill="#27292A"/>
<path d="M11 10H12.3235V11.3235H11V10Z" fill="#27292A"/>
<path d="M11 13.5294H12.3235V14.8529H11V13.5294Z" fill="#27292A"/>
<path d="M11 17.0588H12.3235V18.3824H11V17.0588Z" fill="#27292A"/>
<path d="M19.9999 18.5059C19.9999 19.1266 19.8114 19.6399 19.4343 20.0457C19.0648 20.4436 18.5482 20.6824 17.8845 20.762C17.8544 20.762 17.8393 20.7779 17.8393 20.8097L17.8506 21.6453C17.8506 21.7249 17.8129 21.7647 17.7375 21.7647H16.9909C16.9155 21.7647 16.8778 21.7249 16.8778 21.6453L16.8891 20.7978C16.8891 20.7659 16.874 20.75 16.8438 20.75C16.1726 20.6545 15.6485 20.4078 15.2714 20.0099C14.8943 19.6041 14.7058 19.0868 14.7058 18.4581V18.1119C14.7058 18.0323 14.7435 17.9926 14.8189 17.9926H15.5995C15.6749 17.9926 15.7126 18.0323 15.7126 18.1119V18.3984C15.7126 18.8043 15.871 19.1385 16.1877 19.4011C16.5045 19.6638 16.9343 19.7951 17.4773 19.7951C17.9675 19.7951 18.337 19.6797 18.5859 19.4489C18.8423 19.2181 18.9705 18.9157 18.9705 18.5417C18.9705 18.295 18.9064 18.0841 18.7782 17.909C18.65 17.7339 18.4615 17.5748 18.2126 17.4315C17.9637 17.2803 17.6017 17.1012 17.1266 16.8943C16.5987 16.6715 16.1839 16.4686 15.8823 16.2855C15.5806 16.1025 15.328 15.8638 15.1244 15.5693C14.9283 15.2669 14.8302 14.8889 14.8302 14.4353C14.8302 13.8305 15.0075 13.3411 15.3619 12.967C15.7164 12.585 16.199 12.3503 16.8099 12.2627C16.84 12.2627 16.8551 12.2468 16.8551 12.215L16.8438 11.2958C16.8438 11.2162 16.8815 11.1765 16.9569 11.1765H17.6922C17.7677 11.1765 17.8054 11.2162 17.8054 11.2958L17.794 12.2269C17.794 12.2588 17.8091 12.2786 17.8393 12.2866C18.4879 12.3821 18.9969 12.6368 19.3664 13.0506C19.7435 13.4644 19.9321 13.9857 19.9321 14.6143V14.8531C19.9321 14.9327 19.8943 14.9725 19.8189 14.9725H19.0271C18.9517 14.9725 18.914 14.9327 18.914 14.8531V14.674C18.914 14.2602 18.7669 13.918 18.4728 13.6474C18.1787 13.3689 17.7677 13.2296 17.2397 13.2296C16.7948 13.2296 16.4517 13.3331 16.2103 13.54C15.969 13.739 15.8483 14.0294 15.8483 14.4114C15.8483 14.674 15.9087 14.8889 16.0293 15.056C16.1575 15.2231 16.3385 15.3743 16.5723 15.5096C16.8137 15.637 17.1794 15.8041 17.6696 16.011C18.1824 16.2338 18.5934 16.4407 18.9026 16.6317C19.2194 16.8148 19.4796 17.0615 19.6832 17.3718C19.8943 17.6742 19.9999 18.0522 19.9999 18.5059Z" fill="#27292A"/>
</svg>
