<svg xmlns="http://www.w3.org/2000/svg" width="24" height="24" fill="none" viewBox="0 0 24 24"><path fill="currentColor" d="M7 10h1.5v1.5H7zM10.5 10H12v1.5h-1.5zM7 13.5h1.5V15H7zM7 17h1.5v1.5H7zM10.5 17H12v1.5h-1.5zM10.5 13.5H12V15h-1.5zM7 6h9v2H7zM20 18.307q0 .909-.591 1.5-.592.591-1.618.75-.06.023-.06.068l.011.739a.1.1 0 0 1-.048.09.12.12 0 0 1-.096.046H16.39a.16.16 0 0 1-.108-.046.12.12 0 0 1-.037-.09l.012-.75q0-.045-.06-.069-1.026-.193-1.617-.795-.58-.602-.58-1.511v-.25a.12.12 0 0 1 .036-.091.16.16 0 0 1 .109-.046h1.304q.06 0 .096.046a.1.1 0 0 1 .049.09v.171q0 .454.422.773.422.306 1.16.307.614 0 .905-.25a.81.81 0 0 0 .301-.637.62.62 0 0 0-.18-.454 1.45 1.45 0 0 0-.508-.33q-.314-.146-1.002-.398a9.5 9.5 0 0 1-1.316-.534 2.8 2.8 0 0 1-.905-.738q-.363-.478-.362-1.17 0-.876.555-1.444.567-.579 1.521-.75.06-.023.06-.068l-.024-.83q0-.056.037-.09a.16.16 0 0 1 .108-.046h1.207q.06 0 .097.046a.1.1 0 0 1 .048.09l-.012.853q0 .045.06.068 1.003.193 1.594.83.592.624.592 1.534v.17a.14.14 0 0 1-.049.102.14.14 0 0 1-.096.034H18.49a.2.2 0 0 1-.109-.034.16.16 0 0 1-.036-.102V15q0-.477-.398-.807-.399-.34-1.087-.34-.543 0-.845.226a.74.74 0 0 0-.302.625q0 .285.17.478.18.193.53.352t1.087.41q.81.284 1.28.51.47.229.845.682.375.455.374 1.17"/><path fill="currentColor" d="M16 2.5a3 3 0 0 1 3 3v4.174a3 3 0 0 0-1-.174h-.5v-4A1.5 1.5 0 0 0 16 4H7a1.5 1.5 0 0 0-1.5 1.5v13A1.5 1.5 0 0 0 7 20h5.042c.096.572.356 1.087.727 1.5H7l-.154-.004A3 3 0 0 1 4 18.5v-13a3 3 0 0 1 3-3z"/></svg>