<svg width="24" height="24" viewBox="0 0 24 24" fill="none" xmlns="http://www.w3.org/2000/svg">
<g clip-path="url(#clip0_205_1159)">
<path d="M21.1301 4.95953C21.1299 3.56799 20.0012 2.44 18.6096 2.44C17.2182 2.44026 16.0903 3.56815 16.0901 4.95953C16.0901 6.35113 17.2181 7.47979 18.6096 7.48004C20.0014 7.48004 21.1301 6.35129 21.1301 4.95953ZM22.6301 4.95953C22.6301 7.17972 20.8298 8.98004 18.6096 8.98004C16.3897 8.97979 14.5901 7.17956 14.5901 4.95953C14.5903 2.73972 16.3898 0.940256 18.6096 0.940002C20.8296 0.940002 22.6299 2.73956 22.6301 4.95953Z" fill="#27292A"/>
<path d="M16.3698 9.07568L16.4577 9.10498L16.5368 9.15381L20.4733 11.606L22.1022 9.11865C22.3291 8.77223 22.7948 8.67594 23.1413 8.90283C23.4875 9.12984 23.5839 9.59451 23.3571 9.94092L20.9254 13.6538L15.8219 10.4751L11.6188 9.12061L9.28091 12.7651C9.05716 13.1135 8.5933 13.2153 8.24478 12.9917C7.89616 12.768 7.7955 12.3032 8.01919 11.9546L10.9801 7.33936L16.3698 9.07568Z" fill="#27292A"/>
<path d="M15.0571 9.91765C15.2794 9.56813 15.7428 9.46498 16.0923 9.68718C16.4418 9.90942 16.545 10.3728 16.3228 10.7223L8.90284 22.3923C8.68059 22.7418 8.21722 22.845 7.86768 22.6227C7.51816 22.4005 7.41497 21.9371 7.63721 21.5876L15.0571 9.91765Z" fill="#27292A"/>
<path d="M12.2464 14.6743C12.4594 14.3192 12.9205 14.2036 13.2757 14.4165L18.804 17.7339L15.9915 22.6811C15.7866 23.0408 15.3289 23.167 14.969 22.9624C14.609 22.7577 14.4831 22.299 14.6878 21.9389L16.7757 18.2661L12.5042 15.7036C12.1491 15.4905 12.0335 15.0294 12.2464 14.6743Z" fill="#27292A"/>
<path d="M10.9297 3.78998C11.3439 3.78998 11.6797 4.12576 11.6797 4.53998C11.6797 4.95419 11.3439 5.28998 10.9297 5.28998H3.37988C2.96567 5.28998 2.62988 4.95419 2.62988 4.53998C2.62988 4.12576 2.96567 3.78998 3.37988 3.78998H10.9297Z" fill="#27292A"/>
<path d="M8.27026 16.83C8.68441 16.8301 9.02026 17.1659 9.02026 17.58C9.02026 17.9942 8.68441 18.3299 8.27026 18.33H2.61011C2.19589 18.33 1.86011 17.9942 1.86011 17.58C1.86011 17.1658 2.19589 16.83 2.61011 16.83H8.27026Z" fill="#27292A"/>
<path d="M6.13965 10.16C6.55386 10.16 6.88965 10.4958 6.88965 10.91C6.88965 11.3242 6.55386 11.66 6.13965 11.66H1.5C1.08579 11.66 0.75 11.3242 0.75 10.91C0.75 10.4958 1.08579 10.16 1.5 10.16H6.13965Z" fill="#27292A"/>
</g>
<defs>
<clipPath id="clip0_205_1159">
<rect width="24" height="24" fill="white"/>
</clipPath>
</defs>
</svg>
