<svg xmlns="http://www.w3.org/2000/svg" width="24" height="24" fill="none" viewBox="0 0 24 24"><path fill="currentColor" d="M20.25 12.57v-1.148l1.44-1.26a1.5 1.5 0 0 0 .285-1.912l-1.77-3a1.5 1.5 0 0 0-1.298-.75 1.5 1.5 0 0 0-.48.075l-1.822.615a8 8 0 0 0-.983-.562l-.382-1.89a1.5 1.5 0 0 0-1.5-1.208h-3.51a1.5 1.5 0 0 0-1.5 1.207l-.383 1.89a9 9 0 0 0-.99.563l-1.785-.645a1.5 1.5 0 0 0-.48-.045 1.5 1.5 0 0 0-1.297.75l-1.77 3a1.5 1.5 0 0 0 .307 1.883L3.75 11.43v1.148l-1.418 1.26a1.5 1.5 0 0 0-.307 1.912l1.77 3a1.5 1.5 0 0 0 1.297.75c.163.001.326-.024.48-.075l1.823-.615q.471.315.982.563l.383 1.89a1.5 1.5 0 0 0 1.5 1.207h3.54a1.5 1.5 0 0 0 1.5-1.207l.382-1.89q.514-.25.99-.563l1.815.615q.234.076.48.075a1.5 1.5 0 0 0 1.298-.75l1.71-3a1.5 1.5 0 0 0-.308-1.883zM18.907 18l-2.572-.87c-.603.51-1.29.908-2.033 1.178L13.77 21h-3.54l-.533-2.663a7 7 0 0 1-2.025-1.177l-2.58.84-1.77-3 2.04-1.8a6.7 6.7 0 0 1 0-2.347L3.322 9l1.77-3 2.573.87a6.7 6.7 0 0 1 2.032-1.178L10.23 3h3.54l.532 2.662c.736.277 1.42.675 2.025 1.178l2.58-.84 1.77 3-2.04 1.8a6.7 6.7 0 0 1 0 2.348L20.677 15z"/><path fill="currentColor" d="M12 16.5a4.5 4.5 0 1 1 4.5-4.5 4.456 4.456 0 0 1-4.5 4.5M12 9a2.933 2.933 0 0 0-3 3 2.933 2.933 0 0 0 3 3 2.933 2.933 0 0 0 3-3 2.933 2.933 0 0 0-3-3"/></svg>