<svg width="24" height="24" viewBox="0 0 24 24" fill="none" xmlns="http://www.w3.org/2000/svg">
<path d="M21.378 6.10198L12.378 0.851978C12.2633 0.785032 12.1328 0.749756 12 0.749756C11.8672 0.749756 11.7367 0.785032 11.622 0.851978L2.622 6.10198C2.50877 6.16805 2.41483 6.26266 2.34956 6.37635C2.28429 6.49005 2.24996 6.61888 2.25 6.74998V17.25C2.24996 17.3811 2.28429 17.5099 2.34956 17.6236C2.41483 17.7373 2.50877 17.8319 2.622 17.898L11.622 23.148C11.7367 23.2149 11.8672 23.2502 12 23.2502C12.1328 23.2502 12.2633 23.2149 12.378 23.148L21.378 17.898C21.4912 17.8319 21.5852 17.7373 21.6504 17.6236C21.7157 17.5099 21.75 17.3811 21.75 17.25V6.74998C21.75 6.61888 21.7157 6.49005 21.6504 6.37635C21.5852 6.26266 21.4912 6.16805 21.378 6.10198ZM12 2.36848L19.512 6.74998L12 11.1315L4.488 6.74998L12 2.36848ZM3.75 8.05498L11.25 12.4297V21.195L3.75 16.8195V8.05498ZM12.75 21.195V12.4305L20.25 8.05573V16.8195L12.75 21.195Z" fill="#27292A"/>
</svg>
