<svg width="24" height="24" viewBox="0 0 24 24" fill="none" xmlns="http://www.w3.org/2000/svg">
<path d="M6.75 17.25H8.25V18.75H6.75V17.25ZM11.25 13.5H12.75V15H11.25V13.5ZM6.75 13.5H8.25V15H6.75V13.5ZM11.25 9.75H12.75V11.25H11.25V9.75ZM6.75 9.75H8.25V11.25H6.75V9.75ZM6.75 5.25H17.25V7.5H6.75V5.25Z" fill="#27292A"/>
<path d="M11.75 22.5H4.50375C4.10505 22.4996 3.7228 22.341 3.44088 22.0591C3.15896 21.7772 3.0004 21.3949 3 20.9963V2.997C3.00079 2.60021 3.15877 2.21991 3.43934 1.93934C3.71991 1.65877 4.10021 1.50079 4.497 1.5H19.503C19.8998 1.50079 20.2801 1.65877 20.5607 1.93934C20.8412 2.21991 20.9992 2.60021 21 2.997V8H19.5V3H4.5V21H11.75V22.5Z" fill="#27292A"/>
<path d="M21 15H16.5V12.75C16.5 11.9235 17.1727 11.25 18 11.25C18.8273 11.25 19.5 11.9235 19.5 12.75H21C21 11.0955 19.6545 9.75 18 9.75C16.3455 9.75 15 11.0955 15 12.75V15C14.1727 15 13.5 15.6735 13.5 16.5V21C13.5 21.8272 14.1727 22.5 15 22.5H21C21.8272 22.5 22.5 21.8272 22.5 21V16.5C22.5 15.6735 21.8272 15 21 15ZM21 21H15V16.5H21V21Z" fill="#27292A"/>
</svg>
