<svg width="32" height="32" viewBox="0 0 32 32" fill="none" xmlns="http://www.w3.org/2000/svg">
<path d="M28.7969 13.1816V6C28.7969 5.77917 28.6183 5.59975 28.3975 5.59961H4C3.77909 5.59961 3.59961 5.77909 3.59961 6V13.1816C3.59961 13.4026 3.77909 13.582 4 13.582H9.87402V14.7812H4C3.11635 14.7812 2.40039 14.0653 2.40039 13.1816V6C2.40039 5.11634 3.11634 4.40039 4 4.40039H28.3975C29.281 4.40053 29.9971 5.11643 29.9971 6V13.1816C29.9971 14.0652 29.281 14.7811 28.3975 14.7812H22.5225V13.582H28.3975C28.6183 13.5819 28.7969 13.4025 28.7969 13.1816Z" fill="#27292A"/>
<path d="M5.3479 26.8066H4.14771L4.14771 14.1816H5.3479L5.3479 26.8066Z" fill="#27292A"/>
<path d="M26.2534 26.8066H25.0532V14.1816H26.2534V26.8066Z" fill="#27292A"/>
<path d="M7.64355 26.8066H6.44336L6.44336 14.1816H7.64355L7.64355 26.8066Z" fill="#27292A"/>
<path d="M28.5491 26.8066H27.3489V14.1816H28.5491V26.8066Z" fill="#27292A"/>
<path d="M7.90308 25.7998C8.23427 25.8 8.50269 26.0691 8.50269 26.4004C8.50247 26.7315 8.23414 26.9998 7.90308 27H3.60229C3.27123 26.9998 3.0029 26.7315 3.00269 26.4004C3.00269 26.0691 3.2711 25.8 3.60229 25.7998H7.90308Z" fill="#27292A"/>
<path d="M28.803 25.7998C29.1342 25.8 29.4026 26.0691 29.4026 26.4004C29.4024 26.7315 29.134 26.9998 28.803 27H24.5022C24.1711 26.9998 23.9028 26.7315 23.9026 26.4004C23.9026 26.0691 24.171 25.8 24.5022 25.7998H28.803Z" fill="#27292A"/>
<path d="M10.5129 22.7373H21.885V10.791H10.5129V22.7373ZM23.0852 22.9375L23.0803 23.0391C23.0327 23.5097 22.6583 23.8837 22.1877 23.9316L22.0852 23.9375H10.3127L10.2102 23.9316C9.73961 23.8837 9.36527 23.5097 9.31763 23.0391L9.31274 22.9375V10.5908C9.31274 10.0385 9.76046 9.59082 10.3127 9.59082H22.0852L22.1877 9.5957C22.6919 9.64704 23.0852 10.0731 23.0852 10.5908V22.9375Z" fill="#27292A"/>
<path d="M9.88574 10.686V11.8862H3V10.686H9.88574Z" fill="#27292A"/>
<path d="M9.88623 19.8676L9.88623 21.0678L7.01709 21.0678L7.01709 19.8676L9.88623 19.8676Z" fill="#27292A"/>
<path d="M25.9543 19.8676V21.0678H22.511V19.8676H25.9543Z" fill="#27292A"/>
<path d="M29.3967 10.686L29.3967 11.8862L22.511 11.8862L22.511 10.686L29.3967 10.686Z" fill="#27292A"/>
<path d="M24.7808 6.66907C25.112 6.66928 25.3804 6.93841 25.3804 7.26965C25.3802 7.60071 25.1118 7.86905 24.7808 7.86926L21.3892 7.86926C21.0581 7.86905 20.7898 7.60071 20.7896 7.26965C20.7896 6.93841 21.058 6.66928 21.3892 6.66907L24.7808 6.66907Z" fill="#27292A"/>
<path d="M27.1277 6.66907C27.4591 6.66907 27.7283 6.93828 27.7283 7.26965C27.7281 7.60084 27.4589 7.86926 27.1277 7.86926L26.5017 7.86926C26.1706 7.86914 25.9023 7.60077 25.9021 7.26965C25.9021 6.93836 26.1704 6.66919 26.5017 6.66907L27.1277 6.66907Z" fill="#27292A"/>
<path d="M19.6155 12.4076C19.9468 12.4076 20.2161 12.6768 20.2161 13.0082C20.2159 13.3394 19.9467 13.6078 19.6155 13.6078H12.7815C12.4504 13.6076 12.1821 13.3392 12.1819 13.0082C12.1819 12.6769 12.4503 12.4078 12.7815 12.4076H19.6155Z" fill="#27292A"/>
<path d="M19.6155 15.2769C19.9468 15.2769 20.2161 15.5461 20.2161 15.8774C20.2159 16.2086 19.9467 16.4771 19.6155 16.4771H12.7815C12.4504 16.4768 12.1821 16.2085 12.1819 15.8774C12.1819 15.5462 12.4503 15.2771 12.7815 15.2769H19.6155Z" fill="#27292A"/>
<path d="M13.3821 19.8676H19.0159V19.3988H13.3821V19.8676ZM20.2161 20.0677L20.2102 20.1703C20.1623 20.641 19.7884 21.0153 19.3176 21.0629L19.2161 21.0677H13.1819L13.0793 21.0629C12.5752 21.0115 12.1819 20.5854 12.1819 20.0677V19.1986C12.1819 18.6809 12.5752 18.2548 13.0793 18.2035L13.1819 18.1986H19.2161L19.3176 18.2035C19.8221 18.2545 20.2161 18.6807 20.2161 19.1986V20.0677Z" fill="#27292A"/>
</svg>
