<svg width="48" height="48" viewBox="0 0 48 48" fill="none" xmlns="http://www.w3.org/2000/svg">
<path d="M37.4258 8C37.4258 7.30964 36.8661 6.75 36.1758 6.75H11C10.3096 6.75 9.75 7.30964 9.75 8V40.4697C9.75 41.1601 10.3096 41.7197 11 41.7197H26.0195V43.2197H11C9.48122 43.2197 8.25 41.9885 8.25 40.4697V8C8.25 6.48122 9.48122 5.25 11 5.25H36.1758C37.6946 5.25 38.9258 6.48122 38.9258 8V20.0908H37.4258V8Z" fill="#27292A"/>
<path d="M13 11H34V16H13V11Z" fill="#27292A"/>
<path d="M13 20.5879H15.7352V23.3231H13V20.5879Z" fill="#27292A"/>
<path d="M13 27.8818H15.7352V30.6171H13V27.8818Z" fill="#27292A"/>
<path d="M13 35.1758H15.7352V37.911H13V35.1758Z" fill="#27292A"/>
<path d="M22 20.5879H24.7352V23.3231H22V20.5879Z" fill="#27292A"/>
<path d="M22 27.8818H24.7352V30.6171H22V27.8818Z" fill="#27292A"/>
<path d="M22 35.1758H24.7352V37.911H22V35.1758Z" fill="#27292A"/>
<path d="M40 37.5584C40 38.8412 39.6104 39.902 38.8311 40.7408C38.0674 41.5631 36.9998 42.0565 35.6283 42.2209C35.566 42.2209 35.5348 42.2538 35.5348 42.3196L35.5582 44.0465C35.5582 44.211 35.4803 44.2932 35.3244 44.2932H33.7815C33.6256 44.2932 33.5477 44.211 33.5477 44.0465L33.571 42.295C33.571 42.2292 33.5399 42.1963 33.4775 42.1963C32.0904 41.9989 31.0073 41.4891 30.228 40.6668C29.4487 39.828 29.0591 38.759 29.0591 37.4597V36.7443C29.0591 36.5798 29.137 36.4976 29.2929 36.4976H30.9059C31.0618 36.4976 31.1397 36.5798 31.1397 36.7443V37.3364C31.1397 38.1751 31.467 38.8659 32.1216 39.4086C32.7762 39.9513 33.6646 40.2227 34.7867 40.2227C35.7998 40.2227 36.5634 39.9842 37.0778 39.5073C37.6077 39.0304 37.8726 38.4054 37.8726 37.6324C37.8726 37.1226 37.7401 36.6867 37.4752 36.3249C37.2102 35.9631 36.8206 35.6342 36.3063 35.3381C35.792 35.0257 35.0439 34.6556 34.062 34.228C32.971 33.7675 32.1138 33.3481 31.4904 32.9699C30.867 32.5916 30.3449 32.0982 29.9241 31.4897C29.5189 30.8647 29.3162 30.0835 29.3162 29.1461C29.3162 27.8962 29.6825 26.8847 30.415 26.1117C31.1475 25.3223 32.145 24.8372 33.4074 24.6562C33.4697 24.6562 33.5009 24.6234 33.5009 24.5576L33.4775 22.658C33.4775 22.4935 33.5555 22.4113 33.7113 22.4113H35.2309C35.3867 22.4113 35.4647 22.4935 35.4647 22.658L35.4413 24.5822C35.4413 24.648 35.4725 24.6891 35.5348 24.7056C36.8751 24.9029 37.9272 25.4292 38.6908 26.2844C39.4701 27.1396 39.8597 28.2169 39.8597 29.5161V30.0095C39.8597 30.174 39.7818 30.2562 39.626 30.2562H37.9895C37.8336 30.2562 37.7557 30.174 37.7557 30.0095V29.6395C37.7557 28.7843 37.4518 28.0771 36.844 27.5179C36.2361 26.9423 35.3867 26.6545 34.2958 26.6545C33.3762 26.6545 32.6671 26.8683 32.1684 27.2959C31.6696 27.707 31.4203 28.3073 31.4203 29.0968C31.4203 29.6395 31.5449 30.0835 31.7943 30.4289C32.0593 30.7743 32.4333 31.0868 32.9165 31.3664C33.4152 31.6295 34.1711 31.9749 35.1841 32.4025C36.2439 32.863 37.0933 33.2906 37.7323 33.6853C38.3869 34.0636 38.9246 34.5734 39.3454 35.2148C39.7818 35.8398 40 36.621 40 37.5584Z" fill="#27292A"/>
</svg>
