<svg xmlns="http://www.w3.org/2000/svg" width="48" height="48" fill="none" viewBox="0 0 48 48"><rect width="42.001" height="28.001" x="2.998" y="7" stroke="currentColor" stroke-width="1.5" rx="2"/><path stroke="currentColor" stroke-width="1.5" d="M2.998 28.65h42.001"/><path stroke="currentColor" stroke-linecap="round" stroke-width="1.5" d="M6.547 31.73h4.101M9.347 41.25h29.301"/><path stroke="currentColor" stroke-width="1.5" d="M16.297 41.3v-2.1h15.4v2.1"/><path stroke="currentColor" stroke-linecap="round" stroke-width="1.5" d="M6.547 10.45h5.501M6.547 13.25h1.301M40.148 24.45h1.3M38.747 21.65h2.7M38.747 10.45h2.7M40.148 18.85h1.3M40.148 16.05h1.3M40.148 13.25h1.3M13.547 31.73h1.301"/><path stroke="currentColor" stroke-width="1.5" d="m20.508 35.237-1.4 4.201M27.486 35.237l1.4 4.2M28.84 11.043l1.935 2.065a.25.25 0 0 1-.011.353L18.962 24.518h-2.256v-2.45l11.781-11.037a.25.25 0 0 1 .354.012ZM25.727 12.589l3.302 3.525M17.797 20.019l3.302 3.525"/></svg>