<svg xmlns="http://www.w3.org/2000/svg" width="48" height="48" fill="none" viewBox="0 0 48 48"><path fill="currentColor" d="M43.241 20.908V9a.25.25 0 0 0-.25-.25H5a.25.25 0 0 0-.25.25v11.908c0 .138.112.25.25.25h9.414v1.5H5a1.75 1.75 0 0 1-1.75-1.75V9c0-.966.784-1.75 1.75-1.75h37.991c.967 0 1.75.784 1.75 1.75v11.908a1.75 1.75 0 0 1-1.75 1.75h-9.414v-1.5h9.414a.25.25 0 0 0 .25-.25"/><path fill="currentColor" d="M7.24 41.032h-1.5V21.908h1.5zM38.91 41.032h-1.5V21.908h1.5zM10.717 41.032h-1.5V21.908h1.5zM42.388 41.032h-1.5V21.908h1.5z"/><path fill="currentColor" d="M11.586 39.825a.75.75 0 0 1 0 1.5H4.754a.75.75 0 0 1 0-1.5zM43.25 39.825a.75.75 0 0 1 0 1.5h-6.833a.75.75 0 0 1 0-1.5zM15.064 35.185h17.865V16.454H15.063zm19.365.5-.005.103c-.048.47-.422.845-.893.893l-.102.004H14.563l-.102-.004a1 1 0 0 1-.893-.893l-.005-.103V15.954a1 1 0 0 1 .898-.995l.102-.005H33.43l.102.005a1 1 0 0 1 .898.995z"/><path fill="currentColor" d="M14.433 16.931v1.5H4v-1.5zM14.432 30.84v1.5h-4.346v-1.5zM38.775 30.84v1.5h-5.216v-1.5zM43.992 16.931v1.5H33.559v-1.5zM37.156 10.846a.75.75 0 0 1 0 1.5h-5.455a.75.75 0 0 1 0-1.5zM40.395 10.846a.75.75 0 1 1 0 1.5h-.63a.75.75 0 0 1 0-1.5zM29.33 19.539a.75.75 0 0 1 0 1.5H18.66a.75.75 0 0 1 0-1.5zM29.33 23.885a.75.75 0 0 1 0 1.5H18.66a.75.75 0 0 1 0-1.5zM19.41 30.84h9.17v-1.347h-9.17zm10.67.5-.004.101a1 1 0 0 1-.893.893l-.102.006H18.91l-.103-.006a1 1 0 0 1-.892-.893l-.005-.101v-2.347a1 1 0 0 1 .897-.995l.103-.005h10.17a1 1 0 0 1 1 1z"/></svg>