<svg xmlns="http://www.w3.org/2000/svg" width="48" height="48" fill="none" viewBox="0 0 48 48"><path fill="currentColor" d="M37.426 8c0-.69-.56-1.25-1.25-1.25H11c-.69 0-1.25.56-1.25 1.25v32.47c0 .69.56 1.25 1.25 1.25h15.02v1.5H11a2.75 2.75 0 0 1-2.75-2.75V8A2.75 2.75 0 0 1 11 5.25h25.176A2.75 2.75 0 0 1 38.926 8v12.09h-1.5z"/><path fill="currentColor" d="M13 11h21v5H13zM13 20.588h2.735v2.735H13zM13 27.882h2.735v2.735H13zM13 35.176h2.735v2.735H13zM22 20.588h2.735v2.735H22zM22 27.882h2.735v2.735H22zM22 35.176h2.735v2.735H22zM40 37.558q0 1.925-1.169 3.183-1.146 1.233-3.203 1.48-.093 0-.093.099l.023 1.727q0 .246-.234.246h-1.542q-.234 0-.234-.246l.023-1.752q0-.099-.093-.099-2.081-.296-3.25-1.53-1.17-1.257-1.169-3.206v-.716q0-.246.234-.246h1.613q.234 0 .234.246v.592q0 1.26.982 2.073t2.665.814q1.52 0 2.29-.716.796-.715.796-1.875 0-.764-.398-1.307-.397-.542-1.169-.987-.771-.468-2.244-1.11-1.636-.69-2.572-1.258a5.1 5.1 0 0 1-1.566-1.48q-.608-.937-.608-2.344 0-1.875 1.099-3.034 1.1-1.185 2.992-1.456.094 0 .094-.098l-.023-1.9q0-.247.233-.247h1.52q.234 0 .234.247l-.024 1.924q0 .099.094.124 2.01.295 3.156 1.578 1.17 1.284 1.169 3.232v.494q0 .246-.234.246H37.99q-.234 0-.234-.247v-.37q0-1.283-.912-2.121-.912-.864-2.548-.864-1.38 0-2.128.642-.748.616-.748 1.8 0 .816.374 1.333.398.518 1.122.937.75.395 2.268 1.037 1.59.69 2.548 1.282a4.75 4.75 0 0 1 1.613 1.53q.655.938.655 2.343"/></svg>