<svg width="48" height="48" viewBox="0 0 48 48" fill="none" xmlns="http://www.w3.org/2000/svg">
<path d="M43.2412 20.9082V9C43.2412 8.86193 43.1293 8.75 42.9912 8.75H5C4.86193 8.75 4.75 8.86193 4.75 9V20.9082C4.75006 21.0462 4.86196 21.1582 5 21.1582H14.4141V22.6582H5C4.03354 22.6582 3.25006 21.8747 3.25 20.9082V9C3.25 8.0335 4.0335 7.25 5 7.25H42.9912C43.9577 7.25 44.7412 8.0335 44.7412 9V20.9082C44.7411 21.8747 43.9577 22.6582 42.9912 22.6582H33.5771V21.1582H42.9912C43.1292 21.1582 43.2411 21.0462 43.2412 20.9082Z" fill="#27292A"/>
<path d="M7.23926 41.0322H5.73926L5.73926 21.9081H7.23926L7.23926 41.0322Z" fill="#27292A"/>
<path d="M38.9102 41.0322H37.4102V21.9081H38.9102V41.0322Z" fill="#27292A"/>
<path d="M10.7168 41.0322H9.2168L9.2168 21.9081H10.7168L10.7168 41.0322Z" fill="#27292A"/>
<path d="M42.3882 41.0322H40.8882V21.9081H42.3882V41.0322Z" fill="#27292A"/>
<path d="M11.5864 39.825C12.0006 39.825 12.3364 40.1608 12.3364 40.575C12.3364 40.9892 12.0006 41.325 11.5864 41.325H4.75439C4.34018 41.325 4.00439 40.9892 4.00439 40.575C4.00439 40.1608 4.34018 39.825 4.75439 39.825H11.5864Z" fill="#27292A"/>
<path d="M43.2495 39.825C43.6637 39.825 43.9995 40.1608 43.9995 40.575C43.9995 40.9892 43.6637 41.325 43.2495 41.325H36.4175C36.0033 41.325 35.6675 40.9892 35.6675 40.575C35.6675 40.1608 36.0033 39.825 36.4175 39.825H43.2495Z" fill="#27292A"/>
<path d="M15.0635 35.1854H32.9286V16.454H15.0635V35.1854ZM34.4286 35.6854L34.4237 35.788C34.3758 36.2583 34.0015 36.6326 33.5311 36.6806L33.4286 36.6854H14.5635L14.4609 36.6806C13.9905 36.6327 13.6163 36.2584 13.5684 35.788L13.5635 35.6854V15.954C13.5635 15.4364 13.9568 15.0103 14.4609 14.9589L14.5635 14.954H33.4286L33.5311 14.9589C34.0352 15.0103 34.4286 15.4364 34.4286 15.954V35.6854Z" fill="#27292A"/>
<path d="M14.4326 16.9311V18.4311H4V16.9311H14.4326Z" fill="#27292A"/>
<path d="M14.4324 30.8391L14.4324 32.3391L10.0857 32.3391L10.0857 30.8391L14.4324 30.8391Z" fill="#27292A"/>
<path d="M38.7749 30.8391V32.3391H33.5591V30.8391H38.7749Z" fill="#27292A"/>
<path d="M43.9917 16.9311L43.9917 18.4311L33.5591 18.4311L33.5591 16.9311L43.9917 16.9311Z" fill="#27292A"/>
<path d="M37.156 10.8463C37.5702 10.8463 37.906 11.1821 37.906 11.5963C37.906 12.0104 37.5702 12.3462 37.156 12.3463L31.7009 12.3463C31.2867 12.3463 30.9509 12.0105 30.9509 11.5963C30.9509 11.182 31.2867 10.8463 31.7009 10.8463L37.156 10.8463Z" fill="#27292A"/>
<path d="M40.3953 10.8463C40.8095 10.8463 41.1453 11.182 41.1453 11.5963C41.1453 12.0105 40.8095 12.3463 40.3953 12.3463L39.7644 12.3463C39.3503 12.3461 39.0144 12.0104 39.0144 11.5963C39.0144 11.1821 39.3503 10.8464 39.7644 10.8463L40.3953 10.8463Z" fill="#27292A"/>
<path d="M29.3308 19.5389C29.745 19.5389 30.0808 19.8747 30.0808 20.2889C30.0808 20.7031 29.745 21.0389 29.3308 21.0389H18.6599C18.2457 21.0389 17.9099 20.7031 17.9099 20.2889C17.9099 19.8747 18.2457 19.5389 18.6599 19.5389H29.3308Z" fill="#27292A"/>
<path d="M29.3308 23.8851C29.745 23.8851 30.0808 24.2209 30.0808 24.6351C30.0808 25.0493 29.745 25.3851 29.3308 25.3851H18.6599C18.2457 25.3851 17.9099 25.0493 17.9099 24.6351C17.9099 24.2209 18.2457 23.8851 18.6599 23.8851H29.3308Z" fill="#27292A"/>
<path d="M19.4099 30.8396H28.5808V29.4929H19.4099V30.8396ZM30.0808 31.3396L30.0759 31.4412C30.0282 31.912 29.6541 32.286 29.1833 32.3337L29.0808 32.3396H18.9099L18.8074 32.3337C18.3368 32.2858 17.9624 31.9118 17.9148 31.4412L17.9099 31.3396V28.9929C17.9099 28.4752 18.3032 28.0491 18.8074 27.9978L18.9099 27.9929H29.0808C29.6331 27.9929 30.0808 28.4406 30.0808 28.9929V31.3396Z" fill="#27292A"/>
</svg>
